<svg xmlns="http://www.w3.org/2000/svg" viewBox="0 0 796.33 836.24"><defs><style>.cls-1{isolation:isolate;}</style></defs><g id="Calque_2" data-name="Calque 2"><g id="Calque_6" data-name="Calque 6"><g class="cls-1"><g class="cls-1"><path d="M767.85,555.28l.06-.21h0a.56.56,0,0,0,0,.12l0,.08M760,556c4.4-10.83,9.87-20.28,11-16.68a2.61,2.61,0,0,1,.06.27c.5,3.7-2.1,12-3.2,15.51h0l-.2.59c-6.59,18.68-12.76,27.2-14,24.64-1.08-2.34,1.66-13,6.26-24.32"/><path d="M722.36,650.51a8.39,8.39,0,0,1-.6.93l3.62-5.34-1.2,1.79-.63.91a10.06,10.06,0,0,0-1.19,1.71M745.68,612c0,.17,0,.42-1.56,3.19l8.76-16.85c-3.67,7.45-5.55,10.74-7.22,13.64l0,0m19.42-42.1c.23.8-2.36,7-4.58,12L770.92,556c.92-2.55,1.57-4.42,2.66-7.69-.86,2.48-2.87,8.29-5.19,14-.52,1.29-1.15,2.77-1.5,3.58l-.47,1.07c-.44,1-.92,1.9-1.35,2.86,0,0,0,0,0,.05m14.29-43.64c.54.49-.42,4.85-2.87,13,1.58-5,3.63-11.63,5.51-18.64l1.15-4.4.07-.28s1.17-4.92,2.56-12.15c-2.42,10.52-4.43,17.45-6.49,22.47l.07,0m2.4-24.07c4.1-17.38,6.14-19.95,6.81-20.79.56,2.3.75,3.08-1,13.59,4.21-21.15,4.21-21.15,5.79-42.68,2.57-29.61,2.57-29.61,2.75-31.13-1.25,20-3.88,46.68-6.74,66.54-9.77,43.58-9.95,44.41-18.33,67.86-16.18,39.81-16.82,41.36-28.93,63.18-22.11,36.11-23,37.52-38.83,57.59l-6.71,8.17-.87,1c8.7-17.92,23.79-31.34,33.95-48.24,32.21-50.83,35.64-65.35,52.11-135.11m12.44-106c-.22-7.51-.47-20.87,0-23.36.72.76.72.76,2.09,38.9v2.2l0,2.31c-.1,3.72-.15,4.34-.37,5.13-.28-.8-1-2.94-1.69-25.18"/><path d="M793.33,452.93v0m-5.49-.39c.43-3.13,2.68-18.76,5-18.56a3,3,0,0,1,.63,1.58c.52,3.58.49,8.1-.12,17.26v-.11c-3.29,30.74-6.27,28.3-6.3,28.27-1.44-1.66-1.08-14.68.79-28.44"/><path d="M789,332.14c-.63-3.39-1.08-5.59-1.4-7.2l2.79,15,1.56,10-.2-1.4c-.34-2.27-1.25-8.29-2.75-16.37"/><path d="M744.16,598.36c-.93,1.73-9.08,17.07-9.28,22.5h0c.55,2.69,4.88-3.53,6.72-6.33,7.12-10.87,14.76-27.61,14.6-32-.12-.63-.47-2.55-5,3.92a130.69,130.69,0,0,0-7.09,11.87"/><path d="M788.46,345.52c1.53,11.58,3.85,24.94,5.16,26.87l.27-.14c1-4.64-3.5-36.7-6.3-45.15a5.44,5.44,0,0,0-.43-.83l-.25.17c-.51,2.77.91,14.26,1.55,19.08"/><path d="M787.7,406.06c-.19,7.34.11,21.21,2.39,26.62h0c.44.69,1.62,2.54,2.83-3.16,2.21-10.4,2-35.47-1-42.55h0c-.43-.66-1.6-2.42-2.81,3.62a100.66,100.66,0,0,0-1.4,15.46"/><path d="M729.44,637.64l.08-.13-.06.09,0,0m-5.62.29c1.83-2.7,11-16.12,12.88-15.42.1.46.1.46-.1,1.35-1,3-2.8,6.41-7.08,13.65l0-.07C713.32,662.33,711.93,659,711.93,659c-.25-1.63,5-10.88,11.89-21.06"/><path d="M770.44,512.24c-4.18,14.56-4.93,27.11-1.52,25.32,5.08-2.66,14.66-34.35,11.6-43-2.54-3.93-7.42,8.44-10.08,17.72"/><path d="M682.09,700.21c-5.6,5.86-11.35,11.56-16.86,17.51h0l-.5.58a8.38,8.38,0,0,0,1.42-1.25c8.56-8.88,20.07-20.64,28.2-29.91-1.75,1.9-5.85,6.35-12.24,13.05"/><path d="M778,287.75c2.3,7.77,5.24,18.13,6.62,23.74-3.34-11.83-7.56-27.67-11.47-39.33,1.48,4.33,3.45,10.87,4.85,15.59"/><path d="M775.76,467c-2.53,14.77-1.43,27.32,2.21,25.33,5.3-2.88,11.5-35.35,6.85-44.05-3.61-3.88-7.47,9.43-9.06,18.72"/><path d="M699,674.67c-1.52,1.79-14.77,17.52-14.08,19.32,2.82.48,24.55-25.11,27.68-32.59a1.53,1.53,0,0,0,0-.67c-1.39-.33-10,9.64-13.65,13.94"/><path d="M782,357.25c1.14,13.94,4.77,29.05,7.39,26.82,3.49-3,1.09-35.91-4.49-44.68-1.78-2-2.85.06-3.18,6a87.82,87.82,0,0,0,.28,11.84"/><path d="M649.87,731.48c-5.91,5-12.35,9.41-17.78,15a14.77,14.77,0,0,0,2.49-1.86l20.47-17.24,8.43-7.77c-.55.52-5.4,4.9-13.61,11.88"/><path d="M743.66,567.31c-6,13.43-7.51,24.67-3,23.13,6.69-2.3,20.35-31.15,16.72-39.23-2.76-3.2-9.12,5.9-13.72,16.1"/><path d="M777.17,298.53c2.29,9.48,6.42,23.71,8.41,25.64l.36-.15c1-4.4-6.53-34.27-10.65-42.06-.42-.64-.51-.74-.8-.84-.88,1.6,1,10.35,2.68,17.41"/><path d="M728.36,608.61c-.37.65-9.18,15.95-8,21.2h0c3.34,5.28,20.07-21,22.41-32.63.5-2.47.17-3.33,0-3.65-2.18-3.52-10.06,7.37-14.51,15.06"/><path d="M775.82,418.44c-1.16,16.14,2.08,29.76,6.19,26,5.5-5,7.59-35.68,1.49-44.05h0c-4.35-3.92-7,9-7.65,18.05"/><path d="M670.65,707.81c-4.86,4.65-16.14,15.62-16,17.1,2.36.62,25.65-21.62,30-28.67a2.12,2.12,0,0,0,.2-.6c-.48,0-1.59.08-14.22,12.17"/><path d="M754.11,523.57c-2.13,6.52-4.93,18.81-1.91,23.5h0c5.89,5.38,16.63-21.07,16.08-35.09-.13-3.12-.81-4.62-1.37-5.32-3.88-3.51-9.82,7.77-12.81,16.9"/><path d="M708.08,647.46c-.44.6-10.82,14.79-10.57,19.49h0c2,4.46,20.79-18.05,25.1-30.11a6.65,6.65,0,0,0,.6-3.26c-1.37-3.08-9.8,6.6-15.13,13.86"/><path d="M761.62,243.66c9.39,22.61,9.39,22.61,9.79,23.53v0c-4.8-11.88-11-27.79-16.45-39.41,2.22,5.3,4.45,10.59,6.65,15.9"/><path d="M758.92,478.64c-.38,1.82-3.62,17.95,1.38,23.75h0c7.29,5.33,15.36-21.89,12.74-36.14-.63-3.4-1.64-4.59-2.24-5.3-5.18-3.66-10.06,8.89-11.92,17.66"/><path d="M683.61,683.12c-1.24,1.36-12.14,13.42-12.79,17.51h0c.8,3.86,18.65-13.17,26.17-24.95,2.12-3.33,2.26-4.4,2.36-5.11-.63-3.05-10.57,6.87-15.74,12.54"/><path d="M771.12,310.72c1.19,6.31,4.5,19.54,8.61,24.49h0c3.26,2.78,3.12-4.51,2.9-7.77-.7-10.59-5.23-27.86-9.81-33.42h0c-3.17-2.85-3.25,3.13-3,6.94a86.63,86.63,0,0,0,1.29,9.73"/><path d="M770.25,370.77c.52,14.5,5.3,29.48,9.67,25.53,5.38-4.86,4.23-35.62-3.22-43.5h0c-5-3.67-6.78,8.31-6.43,18"/><path d="M615.94,758c-6.09,4.16-12.34,8.09-18.32,12.41h0c-.16.12-.37.28-.52.42.3-.11,1-.35,6.19-3.74,7.82-5.49,18.39-12.62,26-18.4l.22-.16c-4.55,3.11-9,6.35-13.54,9.45"/><path d="M638.5,737.67C624,748.89,622.18,751,621.59,751.73h0a1.17,1.17,0,0,0-.21.47c3.68-.06,28.38-20.1,31.79-24.55a1.68,1.68,0,0,0,.25-.5c-.49.06-1.53.17-14.91,10.51"/><path d="M758.66,431.83c-.74,6.76-.65,19.5,4.44,24.35h0c7.94,4.92,13.61-20.44,9.86-35.08-1.18-4.58-2.6-5.93-3.54-6.82h0c-5.71-3.53-9.74,8.13-10.78,17.54"/><path d="M654.84,715.62c-7.23,6.4-16.94,15.91-14.05,15.84,4.23-.1,28.08-20.29,30.29-26.89h0c0-3.22-14.58,9.59-16.24,11.06"/><path d="M761.26,254.78c3.42,9.62,9.24,23.09,11.26,23.39,2.06-1.86-8.63-31.18-14.13-38.75-.54-.6-.63-.71-1-.78-1.38,1.11,3,13.64,3.88,16.14"/><path d="M708.18,619.2c-7.31,11.79-9.3,21.57-4.1,20.12,7.77-2.16,24.5-27.65,20.63-34.62h0c-3.33-3-11.66,6.69-16.51,14.52"/><path d="M723.34,578.24c-6,12.38-6.5,23.12-1,21.69,9-2.36,22.19-31.38,16.82-37-4.25-3.17-11.79,7-15.78,15.28"/><path d="M688.83,656.76c-1.11,1.42-10.83,14-9.35,18.3h0c4.18,4.41,26.4-21,26.41-30.18a4.22,4.22,0,0,0-.26-1.27h0c-2.73-3.09-12.19,7.25-16.81,13.15"/><path d="M732.75,535.86c-2.17,6.14-4.75,17.66-.6,21.94h0c8.23,5.11,20.49-23,17.66-34.69a6.33,6.33,0,0,0-1.93-3.57c-5.65-3.39-12.15,7.9-15.14,16.31"/><path d="M759.11,322.84c.94,6.58,4,19,9.5,23.73h0c6.65,4,6.8-12.51,3.37-25.37-1.39-5.2-3.85-12.11-7.68-15.46h0c-5.19-3.14-6.75,6.43-5.22,17.09"/><path d="M603.69,763.51c-15.06,9.3-16.5,10.63-17.36,11.42h0l-.19.24.1.2c4-.57,27-14.81,32.79-20.32h0a1.9,1.9,0,0,0,.3-.44c-.56,0-1.41.11-15.63,8.88"/><path d="M752.77,383.45c-.08,6.78,1.39,19.53,7.46,24.36h0c8.67,4.57,12.25-18.31,7.27-33.45-1.93-5.88-4.08-7.57-5.11-8.38-6.46-3.32-9.54,8.21-9.66,17.45"/><path d="M580,780.59c-18.74,10.06-18.74,10.06-19,10.31,1.25.16,18.74-9,32.18-17.36h0c.19-.12.44-.28.62-.41-4.9,1.93-9.18,5-13.78,7.46"/><path d="M622.87,744.21c-4.64,3.31-15.46,11.22-15.87,13.24,1.81,2.22,29.45-17.07,32.5-22.68h0a.75.75,0,0,0,0-.47c-2-.3-12.26,6.85-16.59,9.93"/><path d="M664.44,691.64c-8.11,8.32-14.48,17.16-10.62,17,6.84-.37,29.47-23.67,27.82-28.65-1.8-2.86-12,6.4-17.2,11.7"/><path d="M737.32,491.06c-3.79,15.22.41,27.36,7.74,22.39,9.73-6.58,14.24-33.56,6.52-39-6.16-3.28-12.05,7.75-14.26,16.62"/><path d="M741.08,203c1.71,3.15,10.31,19,12,21.24,0-.39,0-.42-1.09-2.57l-7-13.4L734.53,190l-.43-.69c-.13-.2-.3-.46-.44-.65.07.3.2.93,7.42,14.25"/><path d="M754.93,265.34c4.13,13.9,11.35,26,13.56,22.66,2.84-4.26-5.28-30.79-12.88-38.08h0c-3.56-2.59-3.23,3-2.72,6.53a67.39,67.39,0,0,0,2,8.9"/><path d="M635.69,723.39c-7.84,6.53-14.89,13.75-12.51,14.26,4.26.92,30.24-18.55,30.53-25-1.46-2.95-16.33,9.31-18,10.72"/><path d="M740,466c4.75,6.14,13-.13,15.21-15.22,1-6.45.87-18.58-5.49-23.08a11.63,11.63,0,0,0-2.06-.7q-3,19.71-7.66,39"/><path d="M552.44,795.58c-4.26,2-4.26,2-18.32,8.11h0l-.68.31a3.49,3.49,0,0,0,.58-.22c7.7-3.46,18-8,25.61-11.67-1.36.68-3.63,1.81-7.17,3.47"/><path d="M740.47,212.47c5.69,12,12.59,22.65,13.67,21.15,1.58-2.19-10.41-27.52-17.26-34.83-.66-.58-1.56-1.38-1.54,0,0,1.78,2,7.15,5.13,13.67"/><path d="M684.77,629.5c-.37.57-8.94,14-5.23,18.36h0c8.1,4.83,26.55-23.37,23.91-30.88a4.86,4.86,0,0,0-.79-1.26h0c-4.43-2.78-13.13,6.39-17.89,13.79"/><path d="M752.81,359.6v.09c10.1,2.73,9.92-22.74,2-35.71a14.86,14.86,0,0,0-3.76-4.4q1.79,19.64,1.76,40"/><path d="M747,288c4.16,9.49,10.86,15.8,12.93,9.39,2.53-7.82-4.27-29.77-12.48-35.73-3.52-1.83-4.74.58-5.13,2.92Q744.95,276.11,747,288"/><path d="M587.81,768.79c-9.9,5.54-15.54,9.1-16.77,10.58h0l-.07.23c2.79,1.35,29.81-13.48,33.62-18.45h0l.09-.25c-.4-.23-1.35-.77-16.86,7.89"/><path d="M698.62,589.88c-6.25,12.36-5.32,22.49,1.81,19.72,9.8-3.8,22.45-28.19,15.68-34.52-5.79-2.94-13.8,7.52-17.49,14.8"/><path d="M566.74,785c-14.48,6.86-16.63,8.14-17.81,9h0l-.19.2.16.16c4.61-.41,27.27-11.22,33.22-15.84l.26-.25-.06-.18c-1,.17-3.75,1.28-15.57,6.89"/><path d="M705.39,562.54c2.11,11.12,10.83,5.64,16.06-2.39,6.27-9.64,8.95-23.75,3.16-28.19h0c-1.82-.83-3-1-5.87.45q-6.16,15.32-13.32,30.15"/><path d="M665.66,666.54c-7,8.58-11.24,17.59-6.26,17.32,9-.5,28.82-24.76,24.37-29.84-3.57-2.67-12.79,6-18.11,12.52"/><path d="M749.84,410.34a36.7,36.7,0,0,0,1-9.42q-.45,4.72-1,9.42"/><path d="M734.48,222.61c5.45,13.51,14.24,24.86,15.94,20.58,1.93-4.89-8-27.84-16-34.13h0c-3.89-2.37-3.27,2.48-2.56,5.59a58.81,58.81,0,0,0,2.63,8"/><path d="M603.67,750.79c-3.24,2.14-13.87,9.31-14.59,11.77h0c.9,3.28,28.39-13.57,32.32-19.8a3.64,3.64,0,0,0,.37-.89c-.66-2.52-16.32,7.74-18.1,8.92"/><path d="M542.41,798.9c-18.42,7.37-18.42,7.37-18.53,7.75,3.18-.12,22.76-8,31.76-12.81h0l.53-.32c-.49.07-.49.07-13.78,5.39"/><path d="M510.61,812.68c-3.62,1.26-5.38,1.82-5.7,1.92l6-2-.28.1"/><path d="M642.4,700c-7.89,7.7-13.55,16.05-9.07,15.72,7.13-.51,29.72-20.91,27.2-26.63h0c-2.63-2.4-12.28,5.22-18.12,10.92"/><path d="M716,164.22c3.52,5.16,9.89,14.38,13.08,18.24h0c.57.64.57.64.76.64-.31-.92-2.15-3.9-5.47-8.85l-11.32-16.05c-2.72-3.67-3.72-4.9-4.51-5.85h0c-.15-.18-.37-.41-.53-.57,0,.27,0,.74,8,12.44"/><path d="M722.23,523.36c6.78-5.32,11.07-17.79,9.58-27.79q-4.37,14.06-9.58,27.79"/><path d="M715.86,173.22c6.85,11.4,15,21.32,15.58,18.95.74-3.08-12.38-24.49-19.67-30.83-.67-.48-1.92-1.39-1.52.54.16.72,1,3.69,5.61,11.34"/><path d="M614.11,730.58c-7.89,6.17-14.67,13-11.69,13.5,5.13.85,31.46-17.43,30.14-23.16-2-2.19-12.95,5.36-18.45,9.66"/><path d="M550.66,789c-15.49,6.56-16.7,7.69-17.22,8.17h0l-.08.18c2.89,1.17,30-10.08,34.09-14.17l.12-.22c-.42-.22-1.19-.63-16.9,6"/><path d="M739.62,253.79c4.72-2.69-.93-21.11-9.46-30.78q5.33,15,9.46,30.78"/><path d="M515.4,810.62c-3.87,1.28-7.8,2.52-10.15,3.27-5.22,1.65-7.12,2.26-7.84,2.63.43.07,5.48-.87,20.9-6.59l9-3.44c-4,1.37-7.93,2.81-11.93,4.13"/><path d="M568.93,774c-5.94,3-15.88,8.36-15.71,9.75,2.92,1.79,31.54-12.51,33.64-16.81v-.23c-1.45-1-13,4.77-17.92,7.29"/><path d="M528.57,801.89c-14.29,4.93-16.9,6-17.62,6.66,1.36,1.35,27-7.36,33.06-11.24l.22-.18-.08-.16c-1.09.07-3.7.83-15.58,4.92"/><path d="M654.82,645.35c-4.22,8.84-2.83,14,3.24,11.94,10.22-3.43,24.84-24.78,18.44-30.18h0c-3.9-1.8-9.39,2.63-12.32,5.43q-4.57,6.48-9.35,12.81"/><path d="M672.84,619.84c10-1.52,22.16-21.45,18.56-30.46q-8.74,15.58-18.56,30.46"/><path d="M640.29,675.91c-.43.49-10.31,12.19-6.9,15.79h0c7.77,3.84,28.24-20.14,26.12-26.35a3.36,3.36,0,0,0-.71-1h0c-4.34-2.35-13.45,5.66-18.51,11.61"/><path d="M582.52,756.93c-1.41.87-13.79,8.6-13.9,10.92,1.36,1.47,11.09-3.1,17.25-6.65,9-5.19,14.88-10.29,15.15-12a1.37,1.37,0,0,0,0-.35c-1.34-1.79-12.26,4.25-18.49,8.11"/><path d="M719.67,196.67c7.33,7.76,7.69,3.61,7.69,2.7,0-6.13-10.62-24-18.35-29.24-1.77-1-2.31-.6-2.63-.34q7.15,13.05,13.29,26.88"/><path d="M504.15,812.55c-15.16,4.1-16.4,4.43-17.37,5,1.77,1.08,24.89-5.36,31-8.27a3,3,0,0,0,.45-.27c-.48-.13-1,0-14.08,3.55"/><path d="M687.92,129.29c5.05,6,13.91,16.23,15.09,16.64-.51-2.24-17.39-21.57-22.87-26.81a4.25,4.25,0,0,0-.67-.57c0,.26,0,.7,8.45,10.74"/><path d="M617,709.13c-6.91,6.52-11.79,13.57-8,14.07,7.54,1,30.67-20.19,26.9-24.63l0,0c-3.42-2.1-13.17,5.18-18.89,10.59"/><path d="M487.12,820c-5.29,1.39-10.65,2.52-15.92,4h0l-.63.2c.6.11,5-.77,14.85-3.65l11.82-3.46c-.92.39-4.94,1.6-10.09,3"/><path d="M530.78,793.09c-15,5.71-16,6.79-16.29,7.15h0c1.78,2,31.55-8.79,34.25-12.48h0v-.18c-.35-.22-1.28-.82-18,5.52"/><path d="M511.29,804.65c-15.33,4.54-16.83,5.32-17.14,5.81,3.06,1.1,29.69-6.59,33.92-9.8h0l.11-.16c-.59-.3-2.21-.19-16.9,4.16"/><path d="M687.59,136.8c3.3,4.43,10.15,12.84,14.83,16.25h0c.68.41,2.09,1.26,1.62-.51-1.31-4.91-15.06-21.88-21-25.94-.71-.44-2-1.27-1.61.33s2.74,5.29,6.14,9.84"/><path d="M478.79,820.84c-16.17,3.17-16.17,3.17-16.33,3.49,2.38.55,18.87-2.55,27.83-5.51l.56-.22c-.31-.07-.31-.07-12.06,2.24"/><path d="M589.79,738.34c-7.54,5.67-13.62,11.82-10,12,6,.38,31.55-16.35,29-21.27h0c-2.76-1.88-13.22,4.93-19,9.25"/><path d="M547.21,779.21c-5.38,2.54-14.49,7-15,8.6,1.56,2.58,32.8-11.46,33.42-15v-.07c-.92-1.64-14.35,4.54-18.45,6.48"/><path d="M489.19,814.1c-13.72,3-16.61,3.7-17.16,4.2,2.74,1.28,28.75-4.69,32.39-6.86l.18-.15-.11-.15c-1.37,0-5.5.82-15.3,3"/><path d="M558.36,763.55c-2.16,1.26-12.92,7.66-12.62,9.68h0c3.06,2.46,31.33-12.76,31.51-17a.64.64,0,0,0-.08-.36c-1.92-1.56-13.16,4.29-18.83,7.61"/><path d="M466.05,821.26c-12.7,1.8-15,2.12-15.7,2.55,1.36,1.29,23.53-1.73,29.66-4l.22-.11c-.5-.29-1.07-.25-14.18,1.61"/><path d="M700.29,159.13c-.93-3.59-5-10-9.82-15.54q5.1,7.6,9.82,15.54"/><path d="M459.42,826.93c-4.62.89-9.29,1.53-13.91,2.45h0a7.17,7.17,0,0,0-.86.21c1,.24,7.78-1.21,9.13-1.51L467,825.21c-2,.61-6,1.4-7.6,1.72"/><path d="M606.34,700.39c3.39,1.35,10.38-2.35,17.41-9.21,5-4.88,9.28-12.18,7.68-15.27a3.17,3.17,0,0,0-.87-.92q-11.67,13.17-24.22,25.4"/><path d="M491.42,807.22c-15.5,4-16.15,4.51-16.54,4.83,2.19,1.54,31.29-5.56,34.22-8.34l-.12-.23c-1.24-.15-4.61.42-17.56,3.74"/><path d="M471.11,815.38c-12.57,2.21-15.49,2.78-16.44,3.25l.07.17c4.43.71,29.06-3.18,33.2-5.66v-.2c-1.26-.22-6,.54-16.83,2.44"/><path d="M509.32,796.88c-14.66,5-15.26,5.94-15.47,6.24h0c2.85,1.71,32.41-7.94,34-11.1h0c-.43-.29-1.43-1-18.55,4.87"/><path d="M656.32,97.22c2.34,2.26,14.06,13.55,15.7,14.17-.18-1.53-17-17.35-23.72-22.64a3.9,3.9,0,0,0-.79-.52c.09.24.27.73,8.81,9"/><path d="M590.12,717.92c-6.48,6-10.87,12.63-6.66,12.85,8.31.43,29.36-17.84,25.89-22.46A2.58,2.58,0,0,0,609,708h0c-4-1.74-13.67,5.21-18.83,10"/><path d="M453.27,826.89c-13.95,1.61-13.95,1.61-14.4,1.87.78.83,13.85-.35,23.7-2.73h0c.59-.16.59-.16.7-.25-.18,0-.18,0-10,1.12"/><path d="M449.59,821.3c-13.21,1.24-14.6,1.38-15.53,1.69h0c2.19,1.56,28.07-1.15,31.06-2.65l.13-.09c-.64-.35-3.15-.14-15.65,1"/><path d="M523.54,784.49c-5.06,2.24-13.58,6.19-13.63,7.48h0c2.58,2.25,32.93-10.38,32.47-13.52v0c-1.56-1.44-16,4.8-18.83,6.07"/><path d="M443.1,826.16c-13,.73-13,.73-14.09,1h0l-.15.06c.76,1.2,19.21.54,26-1.3a1.69,1.69,0,0,0,.36-.17c-.45-.24-.88-.22-12.09.41"/><path d="M671,117.31c.31.22.75.5,1.08.7h0c.72.38,2.22,1.17,1.7-.31C672.5,114,659.22,100.14,652,95.61h0c-.24-.12-.54-.29-.79-.39q10.38,10.56,19.85,22.11"/><path d="M563.38,746.25c-6.33,4.59-11.91,9.88-9.21,10.67,5.75,1.68,30.37-14.9,28.34-19.08a1.73,1.73,0,0,0-.25-.3c-3.25-1.57-13.4,4.74-18.88,8.71"/><path d="M450.6,816.43c-12.36,1.71-15.3,2.12-16.06,2.48,2.1,1.24,31.85-2.55,33.51-4.27-.42-.48-4.31,0-17.45,1.79"/><path d="M468.91,809.76c-15,3.28-15.41,3.66-15.74,3.94C455.9,815,485,809,487,806.69h0c-.54-.38-2.29-.4-18.11,3.08"/><path d="M533.26,770c-7,3.91-13.23,8.14-11.28,8.8,4.82,1.62,31.75-12.69,29.71-15.79l0,0c-2.78-1.59-16.81,6.13-18.4,7"/><path d="M428.63,824.93c-13.67.1-13.67.1-14.31.24h0c2,1.5,24.63,1.2,27.83.08l.14-.08c-.37-.34-1.62-.33-13.65-.24"/><path d="M485.8,800.73c-14.5,4.46-14.89,5.17-15,5.43,4.51,1.67,33.26-8.23,33-9.64-.41-.45-2.73-.49-18,4.21"/><path d="M432.35,831.7c-2.19.23-4.38.42-6.15.57A41.6,41.6,0,0,0,420,833l.08.12a30.19,30.19,0,0,0,5.49-.37l2.18-.29,9.83-1.45c-1.48.28-3.92.56-5.24.7"/><path d="M430.79,821c-15.35.85-15.35.85-15.76,1h0c2.36,1.21,29.6,0,32-1.46-.65-.39-1.23-.35-16.27.48"/><path d="M429.26,830.68c-11.35.21-11.35.21-12.06.49l0,.14c1.47.91,11.21.87,18.79-.43h0a5.27,5.27,0,0,0,.77-.18c-.22-.15-.22-.15-7.48,0"/><path d="M622.89,69.39c11.29,8.87,13.84,10.56,14.92,11.29h0a3.67,3.67,0,0,0,.86.46c-.39-1.37-17.2-14.13-23.82-18.49a6.28,6.28,0,0,0-.8-.46c.1.2.2.41,8.83,7.19"/><path d="M421.48,828.87c-10.9-.48-11.55-.51-12.17-.29l0,.13c2.72,1.36,16.69,2,21.36,1a1.82,1.82,0,0,0,.37-.13c-.23-.32-1.87-.4-9.59-.74"/><path d="M410.32,823.24c-4.51-.15-9-.63-13.54-.48,2.74,1.23,26,2.24,29.22,1.27l-.08-.13c-.86-.17-.86-.17-15.6-.66"/><path d="M498.09,790c-4.72,1.95-12.61,5.38-12.44,6.4h0c3.36,1.67,31.7-9.33,30.93-12-1.89-1.12-14.64,4-18.5,5.6"/><path d="M527.86,762c-1.3,3.26,5.15.78,7.16-.06,10.81-4.51,22.44-14,19.44-15.86a3.81,3.81,0,0,0-2.64,0q-11.73,8.37-24,15.94"/><path d="M427.06,817.5c-14.37,1.47-14.37,1.47-15,1.6,2,1.11,31.06-1.57,33.13-3.05h0c-.81-.32-2.78-.12-18.17,1.46"/><path d="M408.75,826.34c-11.74-1.11-11.74-1.11-12.06-1.07,1.57,1.24,19.32,3.39,23.74,2.55h0l.13-.06c-.24-.33-.24-.33-11.82-1.42"/><path d="M408,820.51c-4.93.09-9.86-.11-14.79.19,2.82,1,30,.72,32.31-.3-.41-.21-.41-.21-17.52.11"/><path d="M444.88,812.25c-12.68,2.38-13.73,2.67-14.5,3l-.09.08h0c3.78.84,31.81-4.09,33-5.8-1-.37-4.62.17-18.37,2.75"/><path d="M460.79,804.73c-12.27,3.44-13.09,4-13.44,4.28l0,.1h0c4.27.82,31.38-6.35,31.53-8.34-.36-.21-1.32-.75-18.07,4"/><path d="M506.65,776.82c-1.92,1-11.42,6.22-10.49,7.6h0c4,1.58,29.32-10.81,28.19-13.81a.58.58,0,0,0-.18-.23c-2.45-1-12.17,3.56-17.53,6.43"/><path d="M392.66,823.33c-4.09-.54-8.15-1.3-12.25-1.78,1.83,1.18,23.58,4.36,25.58,3.73-.31-.21-.31-.21-13.33-1.95"/><path d="M389.46,821.25c-3-.2-3-.2-13.77-1.17,4.07.84,27.25,3.08,30.14,2.36-.13-.06-.13-.06-16.37-1.19"/><path d="M408,834.27c-7-.15-7-.15-8.21-.06h0c-.69.07-1,.13-1.13.29.17,1,7.1.34,9.38.14l1.8-.16c1.09-.1,1.2-.11,1.36-.14l-3.18-.07"/><path d="M407.37,832.35c-6.8-.81-7.83-.83-8.73-.75h0c-.26,0-.66.12-.27.43,1.44,1.14,7.85,2,13.29,1.43a2.46,2.46,0,0,0,.91-.21l0-.11c-.43-.18-1.2-.32-5.14-.79"/><path d="M402.16,829.49c-8-1.45-9-1.6-9.45-1.45.2,1.09,11.3,3.84,16.18,3.27h0a2.12,2.12,0,0,0,.36-.1v-.14c-.5-.33-1.89-.64-7.11-1.58"/><path d="M400.22,835.25l-6.37.39,6.62-.4h-.25"/><path d="M602.79,54.74c-.16-.22-.53-.72-7.77-5.26L581.09,41.2l-.1-.06q11.18,6.36,21.8,13.6"/><path d="M372.43,819.78l-2.15-.37c13.08,2.65,17.17,2.79,17.19,2.79a35.28,35.28,0,0,0-4.92-.83c-3-.46-6.44-1-10.12-1.59"/><path d="M384.55,819.84c-7.25-.09-12.05-.31-14.27-.43,27.4,1.61,31.88.65,31.92.64-.54-.1-.77-.14-7.14-.15-2.7,0-6.78,0-10.51-.06"/><path d="M391.52,825.67c-2.5-.57-4.29-1-6.2-1.45a24.57,24.57,0,0,0-3.28-.72c1.07,1.12,15.27,5.08,18.93,4.68l.12-.06c-.32-.35-.32-.35-9.57-2.45"/><path d="M403.31,818.32c-4.88.35-9.78.5-14.65.95,2.39.74,30.34-1,32.16-2-.62-.14-.62-.14-17.51,1.06"/><path d="M473.36,795c-3.36,1.29-11.24,4.43-11.94,5.52,1.07.89,11.15-2.12,16.06-3.85,8.88-3.14,13-5.67,12.91-6.38,0-.06-.06-.11-.08-.16h0c-1.9-.82-13.46,3.52-16.95,4.87"/><path d="M420.27,814.62c-13.33,2.09-13.33,2.09-13.9,2.24,2.31.77,30.35-3.3,31.26-4.53-1.15-.25-5.24.39-17.36,2.29"/><path d="M370.28,819.41c10,1.11,13.22,1.13,13.24,1.13h0c-.4-.07-.52-.09-4.38-.39-4-.32-5.69-.46-8.86-.74"/><path d="M377,821.28c-2.51-.66-4.78-1.29-6.73-1.87,15.07,5,18.15,4.9,18.18,4.9s0-.06-11.45-3"/><path d="M435.49,808.68c-11.63,2.93-12.19,3.25-12.56,3.47,1.2,1.13,27.53-5,29.34-6.81v-.1c-.88-.34-5.74.65-16.77,3.44"/><path d="M476.64,789.06c4.9-1.59,12.47-4.73,17.67-8.35q-8.74,4.38-17.67,8.35"/><path d="M370.28,819.41c.61.16,1,.26,1.15.29h0c-.39-.11-.77-.2-1.16-.29h0"/><path d="M370.28,819.41c4.18.15,5.9.14,6.06.14h0c-2-.2-4-.1-6.06-.14"/><path d="M377.86,819.17c-2.6.11-5.15.19-7.58.24,19-.11,24.5-1,24.53-1-.62,0-1.44,0-6.78.27-2.36.12-6.3.33-10.17.48"/><path d="M389.64,832.07c-6.51-2.43-6.17-1.52-6-1.13.54,1.43,4.45,3.1,8.09,2.94h0c.38,0,1.27-.13.6-.63a16.1,16.1,0,0,0-2.67-1.18"/><path d="M386.53,828.19c-6-2.43-6.1-2.39-6.32-2.3-.22.86,7.6,5.18,10.81,4.89.2,0,.61-.11-.1-.58a36.59,36.59,0,0,0-4.39-2"/><path d="M378.11,823.09c-3.05-1.31-3.94-1.74-6.59-3,.89.7,11,6.39,13.65,6.35l.08,0c-.26-.36-.26-.36-7.14-3.3"/><path d="M388.06,834.81c-5.7-1.66-6.8-.72-6.43,0,.6,1.1,5.06,1,5.94.92,1.42-.07,1.73-.16,1.82-.3s-.06-.21-1.33-.59"/><path d="M443,802.23c-5.79,2.22-6.18,2.72-6.31,2.89,2.18,1.22,25.6-6.58,26.38-8.79l-.08-.12h0c-.32-.1-1.3-.4-8.47,1.92q-5.73,2.14-11.51,4.12"/><path d="M381.62,836.09c-2.54-.2-6.38-.49-7.56.11.09,0,.09,0,.27,0l7.69-.13-.4,0"/><path d="M370.28,819.41a36.33,36.33,0,0,0,4.39,1.84,42.86,42.86,0,0,0-4.39-1.84"/><path d="M395.46,817c-4.27.54-8.57.91-12.84,1.53,3.29.23,28.37-2.5,29.13-3.46C411,815,411,815,395.46,817"/><path d="M410.56,812.65c-10.44,2.36-10.44,2.36-11,2.58,2.07.54,24.92-4.26,26.57-5.58v-.07c-1.1-.17-5.6.8-15.59,3.07"/><path d="M375.85,825.22c-3.09-2.81-3.11-2.82-3.26-2.86a16.22,16.22,0,0,0,2.7,4c1.8,1.9,2.8,1.93,2.9,1.92.81-.15-.71-1.6-2.34-3.08"/><path d="M370.28,819.41c3.09,3,3.9,3.33,4,3.36h0l0,0c-.09-.2-.09-.2-4.05-3.34"/><path d="M371.7,819.27l-1.42.14h0c12.23-1,15.7-1.65,15.72-1.65h0c-.26,0-1.24.08-4.77.48s-6.15.7-9.53,1"/><path d="M376.94,830.1c-.74-.82-3.14-3.34-3.22-1.4a3.54,3.54,0,0,0,3.33,3.68c1.17-.09,1.13-.9-.11-2.28"/><path d="M373.19,833.67a3.11,3.11,0,0,0-2.32-1.47,2.39,2.39,0,0,0-2.06,1.47c-.44,1.27,1.66,1.37,2.31,1.37,2.42,0,2.34-.88,2.07-1.37"/><path d="M364.78,835.59c.31-.64-2.19-1.31-5.46-.19-.73.25-.7.37-.61.43a8.37,8.37,0,0,0,2.05.21h0c2.56.06,3.83-.09,4-.45"/><path d="M377.61,818.35a196.58,196.58,0,0,0,21.8-4q-10.82,2.32-21.8,4"/><path d="M351.83,835.82H352a27.17,27.17,0,0,0-4.3-.28c-.87,0-2,0-2.72-.08l4.38.24,2.44.12h.08"/><path d="M370.7,820.89c-.22-.77-.29-1-.42-1.48h0c.4,4,.47,4.73,1,4.85.43-.16-.1-1.94-.53-3.37"/><path d="M369.69,826.71c0-.44,0-2.59-.45-2.16s-2.56,4.6-.94,4.79c.13,0,1.25-.07,1.39-2.63"/><path d="M363.8,831.25c.51-.75.71-1.79-.08-1.69-1,.11-4.51,2.57-3.61,3.18a1,1,0,0,0,.53.13,3.91,3.91,0,0,0,3.16-1.62"/><path d="M353.4,833.84c.86-.39,1.19-.85.73-1-.89-.33-6.27,1-6.12,1.54,0,.08.17.18.75.22a11,11,0,0,0,4.64-.74"/><path d="M338.57,834.55c.55,0,1.25-.14,1.36-.31-.39-.56-7.87,0-7.94,0s.05.08.8.15a37.36,37.36,0,0,0,5.78.14"/><path d="M320,833.17a12.82,12.82,0,0,0,1.54.12,18.25,18.25,0,0,0-3.33-.42c-1.57-.16-3.22-.33-4.6-.52l5.84.75.55.07"/><path d="M368.16,822.54c.51-.73,1.34-2,1.42-2.17-.06,0-4.14,4.41-3.83,4.66l0,0h0c.11,0,.76-.22,2.36-2.51"/><path d="M360.1,827.91c1-.69,2-1.6,1.65-1.63a22.6,22.6,0,0,0-3.76,1.88c-1.2.72-1.73,1.16-1.58,1.31s.09,0,.13,0a8.16,8.16,0,0,0,3.56-1.6"/><path d="M347.73,831.14c1.23-.42,2.09-.88,1.86-1-.47-.28-6.45,1.31-6.53,1.74,0,0,0,.07.22.09a14.36,14.36,0,0,0,4.45-.81"/><path d="M331.15,832.34a6.49,6.49,0,0,0,1.93-.44c-.28-.38-6.69.2-7.06.42v0a.74.74,0,0,0,.24.06,24.15,24.15,0,0,0,4.88-.09"/><path d="M370.28,819.41l-.33.24-.1.08a0,0,0,0,0,0,0c.16-.1.3-.23.45-.34h0"/><path d="M311.1,831.27a9.75,9.75,0,0,0,1.76,0v0a52.43,52.43,0,0,0-6.92-.48s0,0,.24.09a48.48,48.48,0,0,0,4.91.46"/><path d="M362,823.92a15.22,15.22,0,0,0,1.82-1,40.8,40.8,0,0,0-4.72,2.2v0a14.57,14.57,0,0,0,2.89-1.22"/><path d="M287.68,827.86c.44.07,1.22.19,1.44.19-.19-.15-5.92-1-6-1.06s.05,0,.22.07c.67.15,2.69.54,4.31.8"/><path d="M347.66,827.83a8.84,8.84,0,0,0,1.55-.55l0,0h0a20.19,20.19,0,0,0-4.27,1.09l0,0a13.37,13.37,0,0,0,2.71-.54"/><path d="M329.45,829.49a6.74,6.74,0,0,0,1.27-.26c-3.37.24-3.37.24-3.51.34l.05,0a11.32,11.32,0,0,0,2.19-.1"/><path d="M261.61,821.94c.93.24,1.05.26,1.1.27-1.28-.33-2.56-.68-3.84-1l.12,0c1.1.3,1.86.51,2.62.7"/></g><g class="cls-1"><path d="M765.89,290l.1.12,0,0-.08-.09m0,0h0m-2.15-24.42c-4.92-12.32-10.54-19.94-12.26-16.64-.06.12-.11.29-.16.41-1.85,7.46,10.91,43.63,16.79,41.19,2.27-.95.89-11.82-4.37-25"/><polyline points="585.41 540.16 585.44 540.17 585.51 540.26 585.41 540.16"/><polyline points="585.51 540.27 585.51 540.26 585.52 540.27 585.51 540.27"/><path d="M594.75,560c-2.38,20.33-26.54,31.9-38,18.21-9.59-11.45-1.13-34.54,18.6-38.58,2.92-.39,2.92-.39,10.25.73l0,0-.05-.05c4.93,4.12,10.51,8.79,9.23,19.71"/><path d="M611.3,722.56c-9.41,13.33-27.86,21.84-29,13.39-1-7.28,12-22.23,25-26,1.73-.41,1.73-.41,6-.34v0l0-.09h.08l0,.08c1.63,2.47,3.48,5.27-2,13"/><path d="M596.27,599.5l-.12-.15h.05l.1.13h0"/><path d="M699.59,678.07c-1.61.35-7.49,6.64-10.64,10,7.22-9.05,9.82-13.74,10.73-16.09a2.89,2.89,0,0,1,.31-.77,5.29,5.29,0,0,1,1.21-.86c3.22-2.28,3.84-2.94,9.58-9.44-11,17.11-11,17.11-11.19,17.14M665.81,695c-4.66.24-10.7,5.33-16,10.27,7.67-10.44,7.85-11.29,9.25-17.92a9.87,9.87,0,0,0,2.79-.66c3.45-1.4,6.87-3.9,11.81-8.65-6.41,11-6.66,11.46-7.47,17h-.39m56-43.56c-.61.89-3.24,4.56-7.94,10.85,3.42-4.79,7-9.87,9.82-14.53,3-4.9,3-4.9,3.93-6a111.25,111.25,0,0,0,7.53-11.16c-1.52,2.52-5.56,9.22-9.72,15.5l-3.62,5.34m-22.43,17.33c-4.15,2.81-4.15,2.81-11.59,9.71,4.8-6.54,7.2-11,8.85-16.46a12,12,0,0,0,1.49-.67c2.77-1.54,5.37-3.85,9.26-8.23-2.49,4.43-6.26,11.14-7.15,14.54a2.29,2.29,0,0,1-.86,1.11m-43.68,16.46c-6.55,1.3-12.28,6-17,10.49,5.7-8.38,7.34-13.47,5.87-18.14,1.69-.49,3.41-.9,5.1-1.41,3.09-1,3.09-1,11.61-7.12-4,7.09-5.44,11.46-5.2,16.12l-.36.06m71.13-44.1c-2.07,1.16-6.93,7.55-10.14,11.79A127.29,127.29,0,0,0,725.23,638c.57-1.24.8-2.62,1.49-3.82.27-.47.81-.54,1.2-.84,2.19-1.84,4.35-4.5,7.69-9.49-2.48,4.65-4.26,8-5.87,11.2-.29.58-.67,1.36-1,1.94-.65,1.34-1.22,2.72-1.87,4.07,0,0-.1.05-.14.07M693.89,659c-4.67,1.76-9.19,6.2-13.06,10.21,4.56-7.39,6.38-12,6.71-17a13.05,13.05,0,0,0,2.08-.7c3.2-1.44,6-3.62,10-7.77-3.16,6.35-4.63,10.33-5.6,15.2l-.17.07m-52.84,16.24c-8.1.25-16,7.48-19.37,10.57,5.68-8.91,6.78-14.44,3.91-19.69a23.37,23.37,0,0,0,5.41-.7c4.79-1.32,8.52-3.58,13.33-8.07-3.8,8.37-4.57,13.38-2.75,17.88h-.53m103.07-60.13c-1.86,3.38-3.76,6.62-5.37,9.35,8.07-14.1,16.52-31.15,16.59-31.31-1,2.13-1.35,2.85-2.46,5.11l-8.76,16.85M726,630.73c-2.84,1.55-6.22,5.35-9.45,9.22,1.17-2.17,4.75-8.78,6-14a2.51,2.51,0,0,1,.17-.73,3.15,3.15,0,0,1,.57-.52c2.54-2.34,5.23-5,8-7.75a90.44,90.44,0,0,0-5.11,13.69l-.15.08m-42.67,18.11c-5.56,1.67-9.7,5.11-13.35,8.58,3.2-6.7,4.29-11,3.92-15.51a30.39,30.39,0,0,0,13-8.78c-2.74,7.27-3.62,11.36-3.37,15.63l-.24.08M750.1,601c-1.81,1.73-4.33,5.65-6.79,9.62,2.45-5.24,3.65-7.92,4.77-10.88,2.28-6.05,2.28-6.05,2.48-6.24,1.86-1.9,3.84-5,6.85-10.63-1.8,4.31-3.29,7.89-4.68,11.42-.13.31-.29.72-.41,1-.72,1.84-1.39,3.72-2.11,5.57,0,0-.08.07-.11.1M719,620.19c-4,3.48-7.17,6.11-8.38,7.1,1.34-4.07,2.55-8,3.6-11.72a2.86,2.86,0,0,1,.23-.82,1.68,1.68,0,0,1,.48-.39c3.49-2.87,6.49-5.5,7.48-6.36-2.53,11.42-3,11.8-3.41,12.19m-52.53,17.4c-6.57,1.88-12,7-14.31,9.2,3.09-7.55,3.55-12.33,1.73-17.63a19.83,19.83,0,0,0,3.81-.71,26.9,26.9,0,0,0,10.71-6.35c-.52,5.5-1.07,10-1.87,15.47l-.07,0m82-47.68c-2.91,3.53-5.22,6.09-6.21,7.17,1.37-4.12,2.61-8.12,3.69-11.9a5.67,5.67,0,0,1,.24-.83,2.67,2.67,0,0,1,.38-.44c1.77-2,3.67-4.36,5.65-6.85-3.52,12.58-3.52,12.58-3.75,12.85m12.11-8-.21.47c3.2-7.31,5.66-14.92,9-22.18.48-1.11.89-2.14,1.65-4.24l-10.4,25.95m-53.81,27c-4.29,3.53-7.51,6-8.72,7,.89-4.51,1.55-8.29,2.27-13,3.14-2.05,5.74-3.8,8.69-5.85-1.42,11.22-1.54,11.32-2.24,11.9m-59.37,16.81c-8,.74-14.15,6-19.17,11,4.11-9.31,4.36-15,.92-21a24.4,24.4,0,0,0,4.78-.62c5.12-1.3,9-3.71,13.93-8.6-2.54,9-2.53,14,0,19.19l-.47,0M769,558.6c-1.09,2-1.09,2-5.22,9.79a109.23,109.23,0,0,0,4.74-15.4,5,5,0,0,1,.16-.77c1.36-3.56,3.58-6.68,5.2-10.11-4.58,15.95-4.58,15.95-4.88,16.49m-27.9,19.66c-3,3.15-5.24,5.36-6.08,6.2.73-3.34,1.4-6.66,2-9.87a3.39,3.39,0,0,1,.13-.72c.07-.14.27-.25.38-.36,1.73-1.67,3.6-3.55,5.57-5.56-1.37,9.65-1.54,9.83-2,10.31m-50.89,18.67c-3.89,2.79-7.45,5.22-10.12,7,.46-4.94.75-9,1-14,3.8-2.31,6.79-4.18,10.32-6.47-.11,4.52-.27,8.28-.56,13l-.65.47m77-50.5c-2.16,3.17-3.95,5.57-4.72,6.6.84-3.91,1.58-7.66,2.2-11.16a4.91,4.91,0,0,1,.13-.75,2.7,2.7,0,0,1,.33-.5c1.51-2.28,3.08-4.78,4.68-7.43-2,12.27-2.46,13-2.62,13.24M782,520.55c.26-1,1.14-4.37,1.15-4.4l-1.15,4.4m-53.8,45.78c-2.58,2.34-5,4.47-6.09,5.37.43-3.73.71-6.55,1-10.05,2-1.6,3.72-3.07,6-5-.41,9.21-.41,9.21-1,9.72m-59.55,18c-6.1,2.09-10.95,7-13.27,9.41,2-7.86,1.82-13.05-.58-17.92,5.5-2.73,9.62-4.84,14.23-7.3.24,5.62.36,10.13.41,15.56l-.79.25M759.43,534c-1.82,2.22-3.53,4.18-4.17,4.92.13-1.19.54-4.82.87-8.89a3.39,3.39,0,0,1,0-.64c.05-.13.21-.25.3-.36,2.09-2.58,3.49-4.42,3.95-5-.57,9.49-.74,9.69-1,10m24-20.49c-1,2-2.43,6.24-4,10.79a145.47,145.47,0,0,0,3.38-16.93,5.76,5.76,0,0,1,.1-.94,3.21,3.21,0,0,1,.24-.45c1.81-3.38,3.22-9,3.9-11.78-.53,2.94-3.55,19.11-3.64,19.31m-72.9,40c-3.47,3-5.55,4.76-7.27,6.2,0-4.27-.08-7.89-.22-12.11,2.67-1.74,4.91-3.24,7.73-5.18.15,3.93.22,7,.24,10.67-.15.12-.34.29-.48.42m70.61-52.13c-1.72,3.42-3.22,6-3.86,7.15.52-4.63.93-9,1.22-13a6.25,6.25,0,0,1,.07-.87,2.49,2.49,0,0,1,.27-.51c1.25-2.4,2.54-5.06,3.85-7.9,0,.14-1,14-1.55,15.16M645.71,570.18c-9.28,1.6-14.41,6-18.58,10.43,2.37-8.71,1.56-14.56-3-21.58a32.08,32.08,0,0,0,4.73-.61c6.11-1.43,10.16-4.1,15-9.87-1.84,9.62-1.26,15.27,2.19,21.57l-.33.06m100.38-50c-2,2.21-3.55,3.92-4.15,4.56,0-2.8-.08-5.22-.16-8.08,1.05-1,2.33-2.32,4.51-4.57.16,7.69.15,7.7-.2,8.09m-56.54,19.72c-4.89,3.59-8.52,6.12-9.88,7.07-.46-5.17-.92-9.54-1.61-15.07,3.84-2.36,7.05-4.39,11.1-7,.43,5.18.73,9.4,1,14.57l-.62.46m84-51.94c-1.86,2.57-3.29,4.39-3.9,5.17,0-1.35.09-5.45,0-10.53a2.89,2.89,0,0,1,0-.72,1.59,1.59,0,0,1,.26-.43c1.28-2.07,2.57-4.23,3.83-6.43.26,12.29,0,12.68-.2,12.94m18.93-20.18c-.68,2.76-1.26,5.57-2.42,11.33.74-5.53,1.26-9.75,1.53-13.69.52-7.35.52-7.35.73-7.84.81-2.2,1.48-6,2.23-12.83-1,13.18-2,22.73-2.07,23m-64.15,38.9c-2.83,2.79-4.92,4.75-5.7,5.49-.49-4-.9-7.09-1.41-10.61,3-2.52,4.72-4,6.74-5.73.3,3.68.5,6.72.72,10.5l-.35.35m-64.47,18.89c-7.38,2.51-11.91,8-14.08,10.67,1.22-9.89.15-15.49-4.11-21.39,1.89-.42,3.8-.73,5.69-1.16,3.36-.85,3.36-.85,10.64-6.53,1.08,6.5,1.87,11.75,2.73,18.13l-.87.28m126.84-71c-1.52,1.82-2.67,5.64-3.63,9.08a114.15,114.15,0,0,0,.06-15.61,6.35,6.35,0,0,1,0-.87,4.6,4.6,0,0,1,.25-.74c1.13-3.31,2.23-7,3.28-10.85-.1,3.78-.17,7.5-.13,11.32,0,.69,0,1.61,0,2.29.05,1.76.21,3.51.27,5.27,0,0-.07.08-.1.11m-30.44,18.31c-2.06,2.49-3.59,4.24-4.24,5-.13-1.34-.43-4.49-1-9.23a2.05,2.05,0,0,1-.07-.6c0-.15.22-.28.31-.41,2.17-2.89,3.92-5.4,4.5-6.22.91,11,.82,11.1.5,11.48m-53.2,20.8c-3.77,2.64-3.77,2.64-8.68,7.39-.92-5.57-1.74-10.13-2.76-15.27,3.9-2.63,6.67-4.55,9.86-6.84.76,4.74,1.38,9,2.08,14.37l-.5.35m75.29-53.2c-1.61,3.22-3,5.72-3.63,6.79-.39-4.76-.85-9.24-1.36-13.3a4.81,4.81,0,0,1-.11-.92,1.92,1.92,0,0,1,.26-.54c1.26-2.64,2.52-5.45,3.73-8.37,1.06,10.2,1.43,15.7,1.11,16.34M635.65,510c-8.78,2.62-8.78,2.62-18.8,11.15,2.06-11.32-.14-18.69-7.59-25.46a20.72,20.72,0,0,0,8.21.13c6.08-1.37,10.46-4.74,15.13-11.61-1.05,14-.77,15.68,4.33,25.39l-1.28.4m106.62-50.82c-2.94,3.23-4.87,5.22-5.8,6.17-.74-4.05-1.41-7.41-2.31-11.6,2.34-2.31,4.28-4.3,6.71-6.87.7,4.28,1.21,7.73,1.77,11.9l-.37.4M682,478c-5.73,4.19-10.52,7.46-12.57,8.86-.15-8.16-1.84-13.45-6-18.88a20.55,20.55,0,0,0,3.88-.64c4.9-1.45,8.24-4.07,11.92-9.36.2,10,1.12,14.87,3.67,19.39L682,478m112.16-71.36c-1.12,1.64-1.83,6.76-2.43,12-.16-10.2-.81-16.29-2.31-21.72a3.17,3.17,0,0,0,.83-1c1.11-2.24,1.6-6,1.7-12.84.16,2,.33,4,.49,6,.3,3.84.48,6.16.82,9.22.93,8.31.93,8.31.9,8.36M769.33,426.4c-2.1,3.25-3.91,5.8-4.69,6.89-.74-4.45-1.54-8.74-2.37-12.76a3.22,3.22,0,0,1-.18-.86c0-.18.23-.35.33-.5,1.53-2.39,3.12-5,4.73-7.85,2.71,14.28,2.43,14.7,2.18,15.08m-48.61,19.11c-3.77,3.46-6.81,6.09-8.11,7.21-1.42-5.28-2.68-9.67-4.2-14.68,3.45-2.88,6.25-5.3,9.67-8.38,1.23,8.3,1.23,8.3,3.19,15.34l-.55.51m-67.39,17.91c-8.45,3.12-8.45,3.12-17.61,12.15,1.52-11.67-1-18.95-8.86-26a22.43,22.43,0,0,0,8.95,0c5-1.25,8.43-3.78,12.15-9,.19,10.3,2,16.35,6.69,22.32l-1.32.51M786.7,393.3c-2,1.46-3,5.23-4,10.44-.62-8.48-1.6-13.68-3.6-19.17l.1-.11c2.27-2.62,3.19-6.22,3.52-13.73,1.21,10.31,2.22,15.76,4.17,22.46l-.15.11m-35.32,19.06c-2.51,3.12-4.84,5.78-5.84,6.92-1.37-4.94-2.55-8.92-4.06-13.74,2.52-3.22,4.5-5.87,6.83-9.14,1.31,5.53,2.3,10,3.42,15.52l-.35.44m-54.47,19.15h-.11c-6,2.14-9.34,5-13.1,11.33-.46-9.73-2.3-15.39-7-21.61a18.86,18.86,0,0,0,4-.72c4.51-1.49,7.39-4.15,10.31-9.49.88,9.7,2.39,14.87,6,20.45h0m76.14-52.18c-2,4.13-3.87,7.34-4.65,8.71-1.18-7.29-2.72-12.2-5.33-16.93a8.64,8.64,0,0,0,1-.66c2.38-2,3.62-4.85,4.42-10.19a90,90,0,0,0,4.85,18.48l-.29.59m-43.31,20.25c-3.62,2.61-3.62,2.61-7.8,8.21-2-6.18-3.78-11.26-6.09-17.53a11.13,11.13,0,0,0,1.27-.45c3.61-1.61,5.79-4.15,7.52-8.77,2.06,6.26,3.68,11.53,5.58,18.18l-.48.36m-61.81,17.65c-8.46.36-12.9,5.83-16.45,11.69-.12-12.37-3.14-19.5-10.78-25.42a16.7,16.7,0,0,0,7.79.07c5.35-1.54,8.89-5.09,12.25-12.27-.43,10.34,1.68,17.37,7.78,25.92h-.59m116.64-70.74c-1.85,1.41-2.25,7.06-2.4,12.41-2.66-12.83-2.74-13-6.63-22.17a5.66,5.66,0,0,0,1.58-1.46c1-1.72,1.37-4,.71-13.85,2.34,11.53,4.13,18.07,6.86,25l-.12.08m-28.73,20.23c-3.08,3.16-3.08,3.16-6.41,10.07-1.54-8.64-3.48-13.77-7.15-18.93a9.08,9.08,0,0,0,2.13-.92c2.86-1.84,4.35-4.64,5.32-10,1.82,8.42,3.67,13.81,6.61,19.22l-.5.53m-50.13,18.73c-6.54,1.41-9.63,6.23-12,11.23-1.28-10.47-3.72-16.41-9-21.92a11.46,11.46,0,0,0,3.94-.57c4.36-1.68,7.06-5.14,9.63-12.33.87,10.12,3,16.5,7.73,23.53l-.32.06m66.69-51c-3.11.74-4,6.33-4.52,12.26-1.84-9.79-4-15.61-8.24-22.22a4.36,4.36,0,0,0,2-1.09c1.93-2,2.61-5.43,2.33-11.72,3,11.23,5.38,17.39,8.69,22.72l-.26.05m-37.84,19.21c-4.85,1.65-6.86,6.31-8.31,11.11-1.87-9.68-4.46-15.43-9.55-21.21a11.24,11.24,0,0,0,3.33-.94c3.7-1.92,5.47-5.21,6.3-11.73,3.61,12.35,3.61,12.35,8.44,22.7l-.21.07m-56.5,18.1c-9.51.17-13.4,7-16.18,14.3-.38-7.5-.58-11.27-3.24-17.3a24.68,24.68,0,0,0-3.14-5c-1.85-2.21-4.21-3.92-6.14-6.06,2.86-.53,5.68.85,8.55.17a11.38,11.38,0,0,0,6.49-5c1.38-2.06,1.57-4.75,3.45-6.55,1.06,11.78,4,18.7,10.91,25.52h-.7M755.38,322c-4.26.31-5.5,6.18-6.34,11.67-2.33-10.16-5.13-16.26-10-21.76a6.12,6.12,0,0,0,2.39-1c3.06-2.39,4-6.72,3.28-14.94,3,12,5.94,19,11,26h-.38M710,340.33c-6.74,1.44-9.3,7.5-11.06,13.84-1.56-12.21-5-19.3-12.26-25.29A17.59,17.59,0,0,0,693,328c3.6-1.58,4.76-4,6.89-11.57,2.21,11.12,5,17.57,10.39,23.81l-.33.06m24.35-30.71c-5.67.35-7.19,6.79-7.93,13-1.65-4.7-2.55-9.66-4.89-14.12-1.14-2.18-1.14-2.18-7.84-10.19,2.65-.15,3.2-.18,4.52-.85,4.11-2.49,4-7.66,3.91-14.21,3.72,14.69,6.35,18.09,12.69,26.32h-.46m62,102L795.16,379l.09,1.35c.29,4.62.33,5.21.56,10.56l0-.72c-.89-17.81-2-24.09-2.88-28.67-1.49,2.71-1.49,2.71-1.35,12.18-.9-8.62-4.75-42.23-4.76-42.34-3.34-17.43-5.47-22.53-8.1-27.83l-2.43,1c-.06,4.5-.07,4.77.78,12.14-4.08-14.83-5.6-20.39-11.41-26.73-2.92,2-3.45,2.4-3.24,12.55-6.32-20.65-11.11-23-15.48-23.68-2.27,2.9-3,3.88-2.49,15C734.64,260.32,724,268,723.89,268.07c-2.33,2.25-2.19,8.69-2.1,12.53-4.76-11.75-11.94-29.52-23-24.14-4.45,7-3.77,24.07,11.68,40.21-6,.71-7.55.9-10.37,10.52C686.6,287.45,674.93,270.4,671,294.72c-.28,1.71-2.34,17.09,10.92,30.71-4.24,4.72-10.23,7.58-13.82,13-5.59-29.21-23.11-28.35-29-20.17-3.65,5.08-8.61,24.35,8.71,38.25-35,5.81-16.37,39.31-10.93,44.49-40.26,14.93-18.11,41.64-13.26,46.84-28.72-.26-31.83,30.54-19.78,43.73.94,1,2.34,2.24,3.34,3.2-29-4.51-35.19,28.78-26.19,40.46,2.77,3.59,13.19,14,30.88-3.3-.12,13.19-.12,13.19,4.22,23.45-24.12,1.79-35.19,30.42-21.36,42.38,1.53,1.33,10,7.29,25.15-5.74-.34,15.43-.34,15.43,3,20.39C613,613,607,616.52,599,626.17c5.28-13,6.37-18.67-3.17-26.75-29.23-4.58-37.69,27.26-29.69,35.91,5,5.39,14.54,8.46,31.76-7.57-12.85,34.56,15.41,23.17,15.71,23,2-1,2.69-1.35,8.07-5.54-.3,5.21-2.19,18.79-2.21,18.82-27.3,7.14-31.13,32-22.76,35.15,7.26,2.71,17.54-6,21.92-9.66-6.14,9.36-8,13.19-5.27,19.48,6.7,2.34,11.2-.64,21.43-9.09-10,14.59-10.85,20.83-2.57,18.55,4-1.1,11.11-7.07,13.44-9-7.87,10.22-8.19,11-10,15.67l1.5,1.92c9.8-3.16,26.82-19.53,29.72-30.63,5.38-2.16,6-2.47,12.95-8.59-7.53,11.52-7.53,11.52-9.12,15.4-11.34,4.5-26.46,22.53-30.57,28.94l2.53.84c5.55-3.72,5.55-3.72,40.93-38.83-9.08,11-9.08,11-12.42,15.42,2.6-1,7-2.69,37.36-40.31-1.84,2.47-4.61,6.2-10.48,13.46l5.28-6.44c24.63-33.27,26.11-35.26,38.83-57.59,19.52-38.15,20.29-39.64,28.93-63.18,13.21-41.56,13.72-43.19,18.33-67.86,2.8-19.79,5.56-46.32,6.8-66.26v.38c-.16,3-.31,5.91-.79,12,.66-14.7.48-41.24.47-41.43.42,10.47.44,15.44.45,21.2,0-.57,0-1.32,0-1.89"/><polyline points="792.62 360.28 792.6 360.17 792.61 360.17 792.63 360.28 792.62 360.28"/><path d="M786.92,332.07l0-.21V332l0,.07m3.51,7.84-2.79-15-.08-.36c-1.8-8.59-2.42-10.26-2.82-10.78-.16.29-.16.3-.1,1.66.09,1.08.09,1.08,2.25,16.4v-.05c3.3,16.92,3.3,16.92,5.73,28.36h.25c.8-1.23-2.4-20.07-2.43-20.26"/><path d="M602.15,668.94c-6.83,16.73-29.41,25.82-35,14.09-4.49-9.37,6.68-26.74,23.05-30.52,14.39-2,15,9,12,16.43"/><path d="M749.34,254.19c2.7,6.05,7,18.79,4,23.7h0c-6.07,5.35-20.52-24.13-20.15-36.71.08-2.52.73-3.34,1-3.65,3.45-3,10.56,6.28,15.16,16.62"/><path d="M615.24,407.12c1.16,19.6-17.59,31.62-30.86,19.79-11.73-10.46-11.27-36.41,8.63-41.15,15.18-1.75,21.69,12.17,22.23,21.36"/><path d="M622.05,731.2c-3.47,4.1-12.38,12.7-21.3,15.82h-.1c-7.94,2-4.46-4.86-3.21-7,4.4-7.55,15.72-18,24.28-20.58,9.46-2.39,4.06,6.56,3.41,7.59a41.2,41.2,0,0,1-3.08,4.15"/><path d="M600,452.81c-.12,20.74-22.49,32.4-35.2,18.35C554.6,459.91,557.38,435.37,578,431c16.09-1.58,22,12.52,22,21.79"/><path d="M666.13,717.07c8.33-8.12,21.35-22.4,27.6-29.26l.6-.65c-8.36,9.07-19.42,21.25-28.2,29.91"/><path d="M626.66,362.54c.26,2,2.08,19.31-13.43,23.45h-.1c-19.5,2.5-28.86-24.62-17.64-38.77a15.08,15.08,0,0,1,8.81-5.66c14-1.83,21.17,11.88,22.36,21"/><path d="M628,738.66c-4.43,4.46-13.6,12.16-20.71,15.11h-.08c-1.28.41-4.68,1.5-2.62-2.57,2.66-5.28,16.08-19.18,26.72-23.59h.06c3.6-1.15,4.66-.2,3.15,2.84-.48,1-2.08,3.74-6.52,8.2"/><path d="M580.1,498.59c-1.48,20.46-25.31,31.42-37.5,17.25-10.72-12.46-4.06-36,15.91-39.77,17-1.37,22.27,13.09,21.59,22.52"/><path d="M569.5,602.76c-4.44,19.12-30.08,28.25-39.19,14-6.54-10.25.42-30.35,20.67-33.92h.2c16.11-1.21,20.41,11,18.32,20"/><path d="M658.07,724.15c-8.14,7.69-18.4,16.2-20,16.55.14-1.8,23-23.52,29.42-28h0a3.66,3.66,0,0,1,1.32-.65c.42,1.4-8.92,10.33-10.79,12.11"/><path d="M574.65,656.21c-6.09,17.76-31.91,25.68-37.85,11.62-3.85-9.11,4.92-25.84,23-29.26,11.91-1.68,18.72,6.4,14.87,17.64"/><path d="M667.49,289.6c2.18,6.84,3.35,19.45-6.09,23.33h0c-15.51,3.47-28.27-24.75-20.77-37.55a9.69,9.69,0,0,1,5.24-4.4h0c10.65-2.45,18.9,10.12,21.61,18.62"/><path d="M692.47,260.5c2.79,6.59,5.53,18.86-1.82,23h-.08c-13.25,4.26-27.73-24.85-22-37.17a6.28,6.28,0,0,1,3.25-3.39c8-2.57,16.91,8.68,20.62,17.49"/><path d="M730.94,243.36c6.52,13.49,6.3,25.44-.42,23.25-9-2.93-23.65-32.85-17.16-39.93,5.12-3,13.37,7.95,17.58,16.68"/><path d="M594.48,713.63c-.79,1.31-8,13-21.8,16.39h-.1c-12.25,1.92-11.75-8.06-6-16,5-6.9,13.39-12.73,20.49-14.18,11.85-1.83,11.46,7,7.41,13.82"/><path d="M773.27,276.16c2.19,6.26,6.26,19.47,6,24.69h0a2.59,2.59,0,0,1-.31.75c-3,.47-15.07-34.05-14.64-42h0c.14-.59.43-1.84,2.15.83,1.37,2.13,3.89,7.38,6.81,15.71"/><path d="M784.65,311.49l.19.84h0l.14.78c-1.33-2.29-11.8-38.92-12.54-42.28a6.37,6.37,0,0,1-.13-.74,7.67,7.67,0,0,1,.86,2.05c3.55,11.77,8.55,27.39,11.47,39.33"/><path d="M708.14,231.42c3.07,5.89,7.48,18.15,2.19,22.43h-.05c-10.5,4.62-27-26.48-23.11-36.38a4.9,4.9,0,0,1,1.71-2.21h0c6.05-2.7,14.89,7.82,19.22,16.14"/><path d="M573,702.94c-7.66,15.59-30.8,22.92-34.38,10.88-2.32-7.78,7.28-22.36,23.49-25.65h.09c13.19-1.48,14.25,7.75,10.8,14.78"/><path d="M557.52,543.17c-2.55,20.2-28.6,30-39.27,14.72-9.35-13.36,1.31-34.59,18.4-36.63,16.43-1,22.09,12.18,20.87,21.91"/><path d="M628.51,745.71c-9.33,8.15-21.7,16.31-22,14.55-.42-2.09,19-20,28.88-24.81h0c.95-.38,2.92-1.19,2.19.57-.58,1.37-3.25,4.65-9,9.7"/><path d="M633,318c1.51,6.87,1.07,19.43-10.18,22.92h-.06C605,343.69,594,317.79,603,304a12.37,12.37,0,0,1,7.66-5.59c12-1.79,20.23,10.39,22.27,19.61"/><path d="M663.35,247.69c2.58,6,5.31,18.26-2.8,22h-.08c-14.39,3.41-28.71-25.23-22.05-36.1a6.87,6.87,0,0,1,3.62-3c9.16-2.3,17.93,9.27,21.31,17.11"/><path d="M655.05,727.37l-20.47,17.24c7.16-5.73,11.62-9.69,28.22-24.42l.68-.6h0l-8.43,7.77"/><path d="M541.87,641.86c-1.56,5.83-8.08,16.29-22.68,18.54h-.14c-19.61,1.18-21.35-17.3-11.19-28.3a27.58,27.58,0,0,1,16.58-8.59c12.24-1.28,20.38,7.28,17.43,18.33"/><path d="M747.23,223.12c6.78,12.76,10,24.54,6.35,22.93-4.84-2.13-20.11-30.77-19.06-37.91,1.37-3,7.67,5.47,12.71,15"/><path d="M733.17,213.05c7.25,12.5,9.67,24,4.71,22.42-6.63-2.15-23.09-30.31-20.11-37.25h0c2.6-2.71,10,5.61,15.38,14.87"/><path d="M531.88,586.32c-1.16,6.37-7.1,17.72-22.07,19.87h-.12c-20.31.92-25.48-20.06-12.76-33.15a25.2,25.2,0,0,1,15.43-7.69c16.22-.76,21.18,11.8,19.52,21"/><path d="M545.58,691.16c-6.13,15.87-31,22.91-36.4,10.32-3.9-9,6.24-23.24,22.36-26h0c13-1,17.3,7.13,14,15.65"/><path d="M682.67,220.05c3.26,6,7.15,17.23,1.08,21.09h0c-12,4.35-28.71-25.09-23.68-35.18a4.83,4.83,0,0,1,2-2c7-2.35,16.28,8,20.66,16.13"/><path d="M579,751.49c-9.64,11.25-27.35,18.09-27.47,10.61-.09-6.29,12.22-18.28,24.48-21.46h.05c9.42-1.68,7.51,4.45,4.89,8.33a29.38,29.38,0,0,1-2,2.53"/><path d="M589.22,758.75c-9.1,8.77-24.48,16.73-24.91,11.71-.39-4.5,13.66-18.16,25.79-21.89,6.93-1.54,5,2.7,3.85,4.59a32.22,32.22,0,0,1-4.73,5.59"/><path d="M635,275.53c4.8,15.25-4.39,26.55-16.39,20.15-13.88-7.4-20.21-33.79-5.81-38.74,8.24-2,18.41,6.52,22.2,18.59"/><path d="M576.83,389.71c.41,7-2.65,19.66-16.73,22.52H560c-20.23,1.73-29-23.09-17.61-37A18.73,18.73,0,0,1,554,368.54c14.8-1.15,22.25,11.69,22.81,21.17"/><path d="M624.65,751.92c-8.53,6.56-19.08,13.67-20.43,14,.44-1.23,23.87-19.66,30.37-23.52a4.1,4.1,0,0,1,1.29-.56l.06.26c-1.48,2.23-9.67,8.58-11.29,9.83"/><path d="M559.83,434.37c0,7.13-4.06,19.92-18.85,22.65h-.14c-21.07,1.33-28.78-24.39-16-37.93a21,21,0,0,1,12.52-6.42h.11c16.38-1,22.41,12.77,22.35,21.7"/><path d="M757.22,234c4.07,8.65,9.23,21.52,8.35,23.18-2.41.23-17.15-31.09-18.12-38.52a1.77,1.77,0,0,1,.13-.72c1.34-.2,5.94,8.19,9.64,16.06"/><path d="M540,479.87c-1.3,19.73-24.8,29.49-37,15.37-10.61-12.31-4.33-34.68,15.14-37.7h.08c16.07-.71,22.4,12.64,21.75,22.34"/><path d="M714.59,202.61c3.39,5.44,9,16.86,5.89,21.14h0c-7.54,5.27-26.1-27.22-24.07-34.53a4.31,4.31,0,0,1,.67-1.25c4-2.77,12.81,7.09,17.52,14.62"/><path d="M593.93,765.23c-3.81,3.11-12.93,9.7-20.17,12.3h0c-1.17.33-3.89,1.11-2.4-1.5,2.61-4.55,17.42-16.63,26.83-20,3-1,4.12-.33,3,1.78-1,1.77-3.58,4.48-7.19,7.45"/><path d="M588.89,345.28c2.22,17.47-13.37,28.44-26.91,18.94-15.24-10.7-12.48-36,4.27-39.28h.07c13.6-1.36,21.38,11.08,22.57,20.35"/><path d="M563.88,743c-8.88,12.68-29.16,19.17-30.15,9.64-.66-6.34,9.62-18.49,23.52-21.5,9-1.55,12.14,4,6.63,11.86"/><path d="M771.42,267.17c0-.09-4.4-11.18-16.12-38.65l-.33-.76c5.07,11.76,12,27.4,16.45,39.41"/><path d="M542.45,733.88C534.94,747,513.1,753,510,742.89c-2.06-6.7,7.24-19.19,22.58-21.91h.09c13.28-1.28,13.05,7.24,9.78,12.91"/><path d="M692.75,192.23c3.47,5.25,9,16.24,4.89,20.19h0c-8.46,4.54-27.22-23.5-25.28-32.69a3.6,3.6,0,0,1,1.14-2h0c4.45-2.31,13.46,5.73,19.25,14.5"/><path d="M593.91,770.84c-7.84,5.5-19.76,12.37-21.21,11.86-.37-1.62,20.4-16.71,28.91-20.38h0c1-.35,2.39-.86,2.08.07s-3.53,4-9.83,8.47"/><path d="M516.87,524.18c-.69,7-5.89,19.3-21,21.35h0c-20.44.63-27-22.35-14.87-35.89a23,23,0,0,1,14.93-7.59c16.94-.59,21.87,13.26,21,22.12"/><path d="M597,301.93c1.47,6.59.84,18.54-10.86,21.59H586c-19.21,2.35-27.84-23.76-19.24-35.49a12.67,12.67,0,0,1,7.82-5.11h.14c12.11-1.43,20.31,10.26,22.26,19"/><path d="M631.54,234.19c5.67,13.61-.12,24.13-10.87,19.75-14.2-5.79-22.69-31.24-12.12-36.31.33-.16.8-.31,1.14-.44h.07c9.28-1.77,18.48,9.11,21.78,17"/><path d="M654,207.76c6.74,12.3,4.24,22.55-4.86,19.94-12.87-3.7-25.73-29.82-17.42-35.37.24-.16.6-.31.86-.45h0c6.84-1.82,16.43,6.83,21.39,15.89"/><path d="M513.91,677.6c-4.9,15.85-29.89,22.2-36.63,9.31-4.84-9.27,4.5-23.87,20.7-26.1,14.8-.72,18.22,9.39,15.93,16.79"/><path d="M603.26,767.15c3.08-2,10.29-6.77,25.57-18.07h0l.41-.31c-7.78,5.55-18,13.15-26,18.4"/><path d="M505.93,625.17c-1.05,5.5-6.92,16.43-21.65,18.37h-.11c-20.07.71-23-18.12-13.2-29a25.2,25.2,0,0,1,16.27-8.19h.11c15.37-.42,20.12,10.78,18.58,18.87"/><path d="M667.49,181.46c7.35,10.8,7.86,20.47,1,19.54-10.62-1.47-28-27.79-22.14-33.54A7.11,7.11,0,0,1,647,167c5.75-2.23,15.63,7.31,20.49,14.46"/><path d="M599.77,260.05c1.91,6.22,2.4,17.53-7.88,20.44h0c-16.68,2.26-28.52-23.75-19.78-34.81a10.24,10.24,0,0,1,5.79-3.61c10.87-1.44,19.36,9.64,21.92,18"/><path d="M589,776c-9,5.47-19.07,10.88-20.06,11.2.53-.59,25.41-16.22,30.7-19a4.29,4.29,0,0,1,1.18-.46c-.16,1.08-11.34,7.92-11.82,8.21"/><path d="M516.51,722.61c-2,4.4-8.52,12.34-20.77,14.14h-.07c-13.88.92-17.07-9.79-9.42-18.75,2.92-3.43,8.33-7.8,17.47-9.16h.1c12.57-.83,15.92,6.48,12.69,13.78"/><path d="M492.65,566.94c-.8,6-6.25,17.8-21.16,19.59h-.07c-20.25.38-26.08-20.83-13.79-33.62a23.13,23.13,0,0,1,14.84-7h0c15.86-.28,21.32,12.14,20.14,21.05"/><path d="M518.45,415.47c-.48,19.14-22.47,28.08-34.61,14.06-9.38-10.83-6.49-33,12.87-35.72,11.89-1,22.05,9.12,21.74,21.66"/><path d="M547.16,775.92c-9.34,9.12-25.54,14.69-25.49,8.75.05-5.54,13.62-15.82,23.43-17.74,9.73-1.53,5.26,5.17,4.72,5.94a26.24,26.24,0,0,1-2.66,3"/><path d="M555.75,782.24c-3.39,2.66-11.82,8.25-19.46,10.31h-.09q-5.78,1.14-2.72-3.12c3.17-4.39,14.25-12.74,23.73-15.32C562.82,773,562,775.44,561,777a23,23,0,0,1-5.24,5.23"/><path d="M726.48,184c7.08,10.53,11.81,21,9.37,20.83-4-.37-22.57-28.62-22.27-34,.66-2.76,7.21,4.67,12.9,13.14"/><path d="M535.48,370.58c1.07,17.89-18.11,28.13-31.1,16.6-13.44-11.94-7.78-35.05,9-36.91,15.13-.81,21.56,12,22.06,20.31"/><path d="M712.1,174.36c7.61,10.38,11.58,20.4,8,20.22-5.75-.29-25.51-28.27-23.49-33.27,1.78-2.55,9.42,4.78,15.47,13.05"/><path d="M549.5,328c.73,6.44-1.51,18-14.5,20.36h-.07c-19.65,1.3-28.3-23.54-16.64-35.71a15.17,15.17,0,0,1,9.08-4.67c10.63-1.27,20.76,7.9,22.13,20"/><path d="M559.81,787.2c-5.26,3.45-13.56,7.9-19.24,9.72h-.06c-1.09.29-3.11.82-2.14-.65,1.74-2.66,16.39-13.16,26.3-16.33h.05c1.09-.28,3.65-.93,2.7.85-.74,1.36-3.58,3.76-7.61,6.4"/><path d="M532.46,769c-8.41,10.27-27.17,15.53-27.89,7.82C504,771,514.75,761.36,526.87,759c10.48-1.23,9.58,5.08,5.59,10"/><path d="M736.14,193.23c5.26,8.64,11,19.4,10.81,21-2.45-.63-19.09-28.82-20.92-34.41a2.54,2.54,0,0,1-.06-.67c1.65.19,8.76,11.74,10.17,14.06"/><path d="M694.26,165.35c7.83,10.05,11,19.56,6.49,19.2-6.59-.52-27.5-25.84-24.17-32.34,3.11-2.51,12.39,6.36,17.68,13.14"/><path d="M497.77,459c-.3,6.78-4.71,18.75-19.33,20.64h-.12c-20.8.41-27.39-24-14.44-36.62a20.65,20.65,0,0,1,12.71-5.88h.11C491,437,498.25,448.28,497.77,459"/><path d="M623.55,195.28c2.84,5.18,6.34,15.78-.8,18.87h-.07c-12.87,2.7-28.59-22.43-23.48-31.75a5.18,5.18,0,0,1,3-2.48h.06c7.87-1.68,17.38,8.17,21.33,15.35"/><path d="M478.77,662.18c-3.75,16.55-28.69,22.5-36.56,8.73-5.67-9.92,2.88-24.84,19.06-25.95,14.82-.28,19.15,9.91,17.5,17.22"/><path d="M598.19,220.06c2.27,5.39,4.19,16.33-4.76,19.19h-.07c-15.6,2.31-28.67-23.46-20.64-33.22a7.19,7.19,0,0,1,4-2.47c9.33-1.44,18.35,9,21.51,16.49"/><path d="M745,208.22l7,13.4C747.69,213,738.8,197.08,734.53,190L745,208.22"/><path d="M639.83,170.09c3.49,4.9,8.65,15,3.16,18.37h0c-10.71,3.42-29.21-22.6-25.63-30.58a3.59,3.59,0,0,1,1.62-1.67c6.21-1.83,16.13,7.18,20.88,13.86"/><path d="M558.3,791.76a170.89,170.89,0,0,1-18.91,9h0a6.38,6.38,0,0,1-1.28.36L538,801c1.34-1.56,21.94-13.38,28.51-15.74,1.18-.39,1.38-.43,1.75-.33-.17,1.3-6.29,4.86-9.92,6.86"/><path d="M672.4,155.63c7.94,9.69,10.6,19,5.28,18.39-7.72-.83-29.23-25.47-24.48-31.33h0c4-2.27,13.8,6.4,19.18,13"/><path d="M558.67,285.08c3.14,15.63-10.74,25.64-23.58,17-13.4-9-14.57-32.19,1.8-35.65,9.51-1.32,19.48,7.21,21.78,18.63"/><path d="M466.74,607.62c-2.81,17.48-26.95,24.2-36.89,10.28-7.79-10.9.12-28.24,17.84-30h.19c15.18.09,20.17,11.57,18.86,19.69"/><path d="M475.53,503.12c-1.84,19-24.44,27-36.1,12.84-10-12.13-3.41-33,15.52-35,15.67,0,21.47,13,20.58,22.2"/><path d="M512.9,760.39c-2.13,3.32-9,10-19.73,11.7h-.08c-11.62.92-12-6.83-7.24-12.8,1.49-1.86,7.22-8.06,18-9.73h.06c11.57-.92,12.21,5.77,9,10.83"/><path d="M485.85,710.27c-4.74,13.81-27.93,19.07-34,7.71-4-7.57,3-20.68,19.34-22.56,10.79-.78,17.64,6.16,14.66,14.85"/><path d="M563.68,244.65c4.35,15.14-7.2,23-18.3,16.83-14.84-8.18-15.62-30.56-4.23-34.12.4-.13.94-.23,1.35-.33,10.82-1.07,18.9,9.66,21.18,17.62"/><path d="M647.89,145.8c9,10.47,9.6,18.1,4.07,17.43-10.07-1.22-29.74-25.64-24.19-30h.05c4.09-1.84,13.6,5.13,20.07,12.64"/><path d="M534,803.78c10.07-4.29,19.64-9.63,29.63-14.1a6.4,6.4,0,0,1,1-.4c-.14.17-.38.45-5.07,2.83-7.67,3.54-17.83,8.39-25.61,11.67"/><path d="M451.11,546.48c-.66,6.38-5.66,17.51-20.21,18.77h-.12c-19.48-.33-25.46-21.47-13.86-33.68a21.11,21.11,0,0,1,14.28-6.7c16.1.29,20.76,13.4,19.91,21.6"/><path d="M487.57,751c-6,11.82-27.52,15.92-30.71,5.84-2.14-6.74,6.4-16.39,19.41-18h.06c12.31-.59,14,6.78,11.24,12.2"/><path d="M701.36,147.37c6.32,7.56,12.46,16.67,11.53,18.18-3.31.75-24.28-26.17-24.84-29.86.08-2.6,7.49,5.16,8.33,6.05,1.61,1.7,3.29,3.6,5,5.63"/><path d="M687.41,139.32c3.84,4.26,11.05,13.3,10.83,17h0c-2.18,4.46-24.81-21.55-26.47-27.54a4.19,4.19,0,0,1-.1-1.06c1.42-2.44,10.23,5.47,15.74,11.58"/><path d="M590.94,181.77c6.24,11.21,2.79,20.39-6.59,17.56-13.58-4.11-24.66-27.37-15.2-31.91.27-.13.67-.24,1-.35h0c7.93-1.41,17,7.75,20.82,14.7"/><path d="M610.12,158.6c3.27,4.62,7.92,14.11,2.09,17h0c-11.38,2.88-29.14-21.41-24.86-29.2a3.65,3.65,0,0,1,1.77-1.53c6.67-1.54,16.3,7.11,21,13.75"/><path d="M452.47,695.67c-3.74,14.29-26.94,18.86-34,6.69-4.58-7.89,1.61-21.13,17.87-22.54,10.93-.46,18.46,6.94,16.13,15.85"/><path d="M441.28,645c-3,15.55-26,21.09-35.12,8.47-7.31-10.09-.08-25.48,17.06-26.82,14.84.26,19.49,10.89,18.06,18.35"/><path d="M476.17,394.37c-.41,17.18-19.66,25.59-31.7,13.85-11.45-11.17-6.84-32.81,11.42-34.86,14.33,0,20.49,12.27,20.28,21"/><path d="M523,801.19c-8.1,5.09-21.64,10.13-21.12,7.27.44-2.36,13.07-10.93,23.17-13.37h.06c3.37-.61,4.5-.06,3.35,1.65-.37.54-1.64,2.06-5.46,4.46"/><path d="M494.37,351.51c.49,16.56-17.89,25.39-29.79,14.33-11.38-10.58-7.84-32.29,9.37-34.53,13.67-.25,20.17,11.66,20.42,20.2"/><path d="M515,796.7c-8,6.3-23.42,11.39-22.73,6.51.51-3.6,11.14-11.54,21.56-13.62H514c7.8-1,4.92,3.19,4.26,4a17.51,17.51,0,0,1-3.2,3.09"/><path d="M508.69,308.63c1.66,15.58-13.59,24.92-25.89,15.86-13-9.55-10.54-31.48,3.82-34.5.51-.11,1.19-.18,1.69-.26h.07c13.29-.45,19.51,11.35,20.31,18.9"/><path d="M668.94,130.41c4.06,4.18,11.43,13,10.25,16.5h0c-2.55,2.66-13.12-7.55-14.31-8.72-7.71-7.55-13.74-15.83-13.44-18.46a1.56,1.56,0,0,1,.14-.48c2-2.12,10.56,4.14,17.37,11.14"/><path d="M711.22,155.86c5.71,7.5,12.36,17.12,12.71,18.77-1.77-.11-21.61-27.34-23.08-30.34a3,3,0,0,1-.19-.58c1.32,0,9.62,10.91,10.56,12.15"/><path d="M456,438.19c-1.32,18.12-23.1,25.58-34.27,11.74-8.65-10.71-4.81-31.69,14.18-33.49,11.58-.46,21,9.7,20.09,21.75"/><path d="M525,805.18c-7.72,3.87-18.77,8-19.71,7.31.74-1.8,17.4-10.41,25.16-12.63h.07c.93-.21,2.86-.66,2.38.26-.39.73-2.66,2.45-7.9,5.08"/><path d="M502.37,790.62c-7.86,8.07-24.47,12.2-25,6.22-.44-4.65,10-12.77,20.22-14.18,9.31-.94,8.45,3.72,5.61,7.09-.23.27-.55.61-.8.87"/><path d="M620.79,135.51c3.72,4.23,9.67,13,5.55,16h-.05c-9.38,3.38-30.13-21.44-27-27.46a3.11,3.11,0,0,1,.88-.89h0c4.86-1.69,15.07,6.08,20.57,12.33"/><path d="M563.31,205.4c1.94,5,3.27,15.18-5.59,17.56h0c-14.68,1.74-26.86-21.08-19.79-30.6a8,8,0,0,1,4.78-3c9.43-1.11,17.87,8.9,20.62,16"/><path d="M426.61,587.47c-.8,5.76-5.85,15.77-19.68,16.78h-.08c-20.08-.47-23.7-21-13.47-31.25a20.81,20.81,0,0,1,13.95-6h.08c13.56.38,20.53,10.91,19.2,20.45"/><path d="M459.3,738.91c-4.39,12.65-26.69,16.51-31.39,5.43-3-7.18,4.64-17.05,17.95-18.35H446c11.62-.16,15.53,6.54,13.31,12.93"/><path d="M520,268c.94,5.81-.54,16.2-12,18.23h0c-18.19,1-25-22.44-16.27-32.3a12.29,12.29,0,0,1,7.91-4.13c11.82-.59,19.16,10.51,20.4,18.2"/><path d="M522.94,808c-5.26,2.15-10.2,3.89-12.05,4.55l-6,2c-.58.18-.65.2-.87.25.67-.47,22.25-9.64,27.19-11.29h0a4.13,4.13,0,0,1,1.52-.33c-.47.94-8.28,4.17-9.85,4.81"/><path d="M483.55,783.71c-2.1,2.83-8.13,8-17.41,9.2h-.05c-9.52.62-11.18-5-6.31-10.44,1.35-1.51,6.49-6.52,16.13-7.8,11-.72,10.52,5.15,7.64,9"/><path d="M648.08,122.23c4,4,11.08,12.3,9.1,15.47h0c-3.35,2.23-13-6.27-15.82-8.93-6.8-6.32-13.54-14.77-12.56-17.42a2.3,2.3,0,0,1,.23-.4c2.68-1.83,12.2,4.46,19.07,11.25"/><path d="M724.43,174.27c-4.54-6.75-8.66-12.46-11.32-16.05l11.32,16.05"/><path d="M433.74,480.82c-1.58,18.36-23.64,25.73-34.71,11.59-8.66-11.06-4.56-31.57,14.9-33.05h.12c14.82.46,20.43,12.83,19.69,21.47"/><path d="M579.62,146.84c3,4.35,7.2,13.24,1.22,15.74h-.05c-11.6,2.3-28.1-21.11-23.47-27.73a3.93,3.93,0,0,1,1.86-1.33h0c6.66-1.3,16.11,7.18,20.4,13.32"/><path d="M623.27,112.88c8.21,7.6,12,15.12,7.7,15.46-7.05.56-30.14-21-27.45-25.66a2.67,2.67,0,0,1,.32-.36c3.2-1.63,12.58,4.21,19.43,10.56"/><path d="M409.44,523.93c-2,17.46-23.44,24.06-34.17,10.55-8.53-10.74-4.26-31.14,15-32.3a19.14,19.14,0,0,1,19.21,21.75"/><path d="M460.84,775.07c-5.64,9.9-25,12.72-27.28,4-1.28-5,4.79-13,17.22-14.27,8.81-.58,13.51,4.24,10.06,10.3"/><path d="M526.28,228c3.36,13.19-7.22,21.89-18.57,15.26-13.21-7.72-14.95-28.46-2.66-31.7.39-.1.94-.18,1.34-.26,11.2-.74,18.15,9.85,19.89,16.7"/><path d="M518.31,809.93c2.62-1,4.7-1.77,8.26-3.15h0l.74-.28-9,3.44"/><path d="M415.87,679.25c-2.37,13.85-23.68,18.69-32.57,7.39-6.46-8.21-1.91-22.69,15.45-23.73h.08c14.38.37,18.08,10.22,17,16.34"/><path d="M558.27,168.42c2.46,4.63,5.15,14-2.32,16.42h-.08c-13.09,1.8-26.59-20.67-20.68-28.53a5.49,5.49,0,0,1,3.18-2h.06c7.92-1.08,16.37,7.61,19.84,14.12"/><path d="M592.4,125.1c3.65,4.08,9.35,12.48,4.77,15.08h0c-10.13,2.83-29.41-21.31-26-26.11a3.39,3.39,0,0,1,1-.77c5.29-1.46,15.19,6.17,20.21,11.79"/><path d="M427.13,725.65c-3,12.32-24.13,16.29-30.91,5.81-4.5-6.94.22-18.47,15.7-19.56H412c12.73.12,16.49,8.11,15.1,13.75"/><path d="M401.92,625.92c-.75,5.27-5.51,14.37-18.62,15.05h-.18c-17.88-.84-23.5-19.13-12.78-28.85a20.45,20.45,0,0,1,13.32-5h.16c15,.68,19.08,11.91,18.1,18.84"/><path d="M658.19,106.66c8.48,7.59,14.39,15.28,11.71,15.25-4.06,0-27.24-21.26-27.26-24.93.56-1.92,8.67,3.53,15.55,9.68"/><path d="M672.66,114.24c6.74,6.54,13.78,14.73,13.11,15.91-2.53.32-24.15-20.79-26.29-25.66a.85.85,0,0,1,0-.5c1.38-.32,7.66,4.92,13.15,10.25"/><path d="M484.89,812.67c-7.08,4.42-20.62,8.23-20,5,.5-2.54,10.3-8.48,19.45-10.08,6-.72,4.52,1.65,3.92,2.4a14.5,14.5,0,0,1-3.39,2.72"/><path d="M454,330.54c0,16.1-17.12,23.68-28.25,12.49-10.37-10.43-6.49-30.29,9.81-31.95,13.39.15,18.42,12,18.44,19.46"/><path d="M490.72,816.05c-7.33,3.4-18.79,6.68-18.59,5.31.17-1.2,12.14-7.58,21.25-9.48,2.58-.42,3.54-.16,2.84.77s-2.62,2.06-5.5,3.4"/><path d="M435.27,372.61c-.57,16.14-19.06,23.93-30,12.63-10.52-10.89-5.8-31.23,11.34-32.65h.07c13.28.33,18.85,11.91,18.56,20"/><path d="M528.56,190.5c3.9,11.41-3.23,19.33-13.39,14.87-12.4-5.45-17.85-25.25-8.21-29.85a11.77,11.77,0,0,1,2.19-.66h0c8.92-.71,17,8.62,19.39,15.64"/><path d="M597.56,104.18c4,3.65,10.81,11.25,7.73,13.86h0C598,120.93,575.62,99,577,94.41a1.87,1.87,0,0,1,.57-.74c4-1.4,14.18,5.2,20,10.51"/><path d="M414.46,414.94c-.44,5.67-4.77,16.63-18,17.53h0c-18.62-.69-23.86-23.11-11.95-33.89A17.54,17.54,0,0,1,395.83,394c10.61-.09,19.5,9.88,18.63,20.92"/><path d="M434,764.53c-3.86,10.44-23.76,13.23-28,3.92-2.76-6,3.67-14.07,15.79-15h.1c10.54,0,14.12,5.71,12.14,11.09"/><path d="M491.73,818.31c-6.87,2.41-16.51,5-17.57,5,.78-.62,17.33-6.89,23.46-8.39,1.25-.27,1.64-.31,1.89-.18-.47.85-4.49,2.41-7.78,3.56"/><path d="M640.25,99.32c8.25,6.85,13.72,13.93,11.25,14.56-4.41,1.14-28.8-19.45-28.36-23.94h0c1.37-1.75,10,3.45,17.11,9.4"/><path d="M473.07,808.46c-6.8,5.69-22.27,9.36-21.36,4,.53-3.14,8.16-8.77,17.6-10.13,5.37-.59,7.79,1.23,5.63,4.24a11.8,11.8,0,0,1-1.87,1.93"/><path d="M385.43,565.52c-1.81,16.29-23.06,22.31-33.44,9.48-8.22-10.16-4-29.18,14.66-30h.12c14.35.87,19.55,12.53,18.66,20.52"/><path d="M469.49,289.76c.84,15-15.16,22.71-25.93,12.55C433.27,292.6,435.88,272.9,451,271c9.25-.53,17.88,8.24,18.47,18.76"/><path d="M682.34,121.3c6.49,6.9,13.63,15.19,14.15,16.43-1.37-.38-22-22.63-24.63-26.2h0a3.81,3.81,0,0,1-.29-.52c1-.08,10.37,9.87,10.77,10.29"/><path d="M619.17,91.94c8.38,6.55,13.56,13.44,10.45,13.9-5.32.78-30.69-19.55-28.58-22.9,1.93-1.59,10.93,3.37,18.13,9"/><path d="M481.39,249.52c.6,5-1.07,15-11.68,16.57h-.09c-16,.35-23.12-21.18-13.74-30.62a11.59,11.59,0,0,1,7.3-3.4h0c11.08-.24,17.3,10,18.18,17.44"/><path d="M391.29,457.65c-1.55,17-22.24,23.59-32.55,10.31-9.75-12.55-1.26-31.23,14.19-31.22,14.69.77,19.06,13.23,18.36,20.91"/><path d="M485.39,820.52c3.56-1,7.11-2.16,10.68-3.19h0a8,8,0,0,1,1.15-.29l0,0-11.82,3.46"/><path d="M457,802.42c-5.78,7-21.7,9.75-22.71,3.86-.62-3.6,5.88-9.77,16.12-10.93,8.91-.45,9.22,3.87,6.59,7.07"/><path d="M562.45,114c6.9,7.64,8,14.56,2.29,14.25-9.38-.51-27-19.79-22.74-24.85a3.42,3.42,0,0,1,1-.67h0c5.32-1.17,14.55,5.89,19.41,11.28"/><path d="M548.11,134.59c6.33,9.47,3.41,15.44-3.23,14.07-12.08-2.5-23.28-22.11-17.63-26.54a5.2,5.2,0,0,1,1.37-.64c5-1.12,14.08,5,19.49,13.11"/><path d="M377.61,660.54c-1.61,14.17-21.86,18.56-31.41,6.81-8.31-10.23-.33-23.72,14-23.65,14.1.72,18.15,10.47,17.42,16.84"/><path d="M392.45,710.21c-.68,3.81-5,11.15-16.4,11.65H376c-15.82-.68-19.44-14.47-12.39-21.5,4.49-4.47,10.73-4.73,12.78-4.81,12.83.52,17.14,8.88,16.1,14.66"/><path d="M524.87,154.39c4.82,9.79.6,17.32-8,14.38-12.7-4.31-19.48-23.31-12.15-27.4a7.93,7.93,0,0,1,1.75-.62h.07c7.68-.77,15.37,7.52,18.38,13.65"/><path d="M367.74,499.65c-1.64,16.92-22.27,23-32.46,9.62-9.5-12.51-.89-30.81,14.39-30.61,13.62,1,18.83,13.09,18.07,21"/><path d="M489.68,210.86c1.16,5.18.55,14.4-9.12,16h-.09c-14.45.54-22.55-19.21-14.75-28.52A9.33,9.33,0,0,1,472,195h.07c9.64-.26,16.1,9.12,17.61,15.86"/><path d="M361,604.16c-.53,5-4.92,14.43-17.74,14.8h-.1c-17.92-1.29-23.24-21.08-11.91-30.07a18.44,18.44,0,0,1,11.42-3.76h.12c13.87.94,19,11.7,18.21,19"/><path d="M569.84,94.91c4,3.5,10.59,10.74,7.21,13.08h0c-7.44,2.24-29-17.78-27.27-22.31a1.2,1.2,0,0,1,.67-.7c4.15-1.27,14,5.17,19.42,9.92"/><path d="M404,752c-.77,3.43-4.83,9.36-15.12,9.89h0c-13.26-.33-17.77-11-10.59-17.53a18.38,18.38,0,0,1,11.8-4.28c12.06.28,15,7.46,13.94,11.92"/><path d="M595.44,84.22c9.25,6.9,12.59,12.54,9.3,12.79-6.41.47-31.15-18.47-28.47-21.79h0c2.39-1.34,12,3.68,19.15,9"/><path d="M436,795.16c-.15.26-3.71,6.45-14.33,7.36h0c-9.39.2-11.85-5.25-7.62-9.9,1.33-1.46,5.24-4.92,12.92-5.59,7.42-.36,11.65,3.44,9.05,8.13"/><path d="M640.81,84.65c5.54,4.36,12.05,10.14,13.75,12.75h0a1.1,1.1,0,0,1,.1.47c-1.93.8-25.88-19.25-27-21.31a.73.73,0,0,1,0-.41c1.23-.28,7.73,4.15,13.22,8.46"/><path d="M395.36,349.94c-1.11,14.91-18.47,21.39-28.14,10.5-9.85-11.1-2.47-30,11.79-30.14,12.24.63,16.93,11.87,16.35,19.64"/><path d="M343.25,541.17c-1.5,15.86-21.87,21.39-31.59,8.58-7.76-10.22-3.8-28.87,13.76-29.22,10.5.43,18.83,10.08,17.83,20.64"/><path d="M626,78.18c5.91,4.24,12.64,10,13.49,12.43h0c-.37,3.09-24.09-14.54-27.71-18.88a3.66,3.66,0,0,1-.78-1.27h0c.21-1.65,8.07,2.74,15,7.71"/><path d="M411.46,786c-3,8.5-20,10.57-24.22,3-2.74-5,2.79-11.55,13.16-12.18,7.84-.16,12.9,4.07,11.06,9.23"/><path d="M493.39,174.38c1.33,4.36,1.63,13.06-6.72,14.72h-.1c-14.09.74-21.44-20.06-15.2-26.93a7.74,7.74,0,0,1,4.64-2.35h.07c8.66-.44,15.45,8.42,17.31,14.56"/><path d="M569.82,76.35c6.07,4.34,11.56,10,9.8,11.83h0c-6.45,2.65-30.47-17.51-29-20a2,2,0,0,1,.25-.26c2.95-1.23,12.92,4.13,19,8.47"/><path d="M460.42,826.2c-5.83,1.71-14.32,3.37-15.51,3.33.3-.62,14-4.89,18.89-5.71,1.37-.2,2-.25,2.28,0,0,.68-4,1.91-5.66,2.41"/><path d="M456.14,824.52a58.4,58.4,0,0,1-13.67,3.8h-.08c-1.15.13-3.53.39-2.88-.58.86-1.28,8.9-5.29,16.65-6.43,2.75-.35,4.11,0,3.56.93-.17.29-.86,1.08-3.58,2.27"/><path d="M414.75,309.11c-.42,15-16.41,21.8-26.32,11.18s-3.77-29.31,10-29.63c12.23.41,16.48,11.54,16.29,18.45"/><path d="M608.22,72.12c5,3.35,12.57,9.22,12.82,11.69h0c-1,1.81-10.69-4.26-13.65-6.16C600.15,73,592,66.7,591.51,64.8a1.73,1.73,0,0,1,0-.32h0c.92-1.48,9.4,2.76,16.74,7.66"/><path d="M533,103.18c3.35,3.81,7.77,10.75,3.06,12.65h0c-10.11,1.73-25.34-17.93-22.8-22.66a2.19,2.19,0,0,1,1.3-1c5.26-.83,14.14,6.07,18.48,11"/><path d="M453.77,828.08c4-.88,8-1.89,12.08-2.74a8.49,8.49,0,0,1,1.36-.23.69.69,0,0,1-.19.1l-13.25,2.87"/><path d="M431.94,269c.14,14.06-14.8,21-24.23,11.19-9.69-10-4.58-28.33,8-28.8,11,.24,16.11,10.44,16.19,17.61"/><path d="M651.12,91c6.31,5.46,13.64,12.33,14.54,13.59-.72,0-23.17-19.59-25.45-22a3,3,0,0,1-.34-.46c1,.13,7.79,5.85,11.25,8.85"/><path d="M373.38,391.64c-1.76,15.83-20.83,21.6-30,9.08-8.55-11.65-.33-29.42,13.53-29.26,11.47.8,17.48,11.1,16.48,20.18"/><path d="M355.54,693c-.44,4.12-4.17,11.16-15.36,11.39h-.07c-15.49-1-21.16-15.34-12.47-23,4.17-3.68,9.14-3.78,11.26-3.82,9.55.27,17.48,7.62,16.64,15.44"/><path d="M446.85,821.59c-5.84,3.87-18.6,6.35-17.56,2.69.6-2.13,7.06-5.95,14.74-6.86h0c5.93-.41,5.55,1.61,4.39,2.87a10.26,10.26,0,0,1-1.61,1.31"/><path d="M541.59,85.31c3.68,3.23,9.7,9.88,6.19,11.84h0c-8,1.86-27.87-17.44-25.75-21a1.87,1.87,0,0,1,.69-.55c4.28-1,13.8,5.24,18.88,9.73"/><path d="M338,640.63c-1.27,13.87-21.08,17.54-30.29,5.6-7.3-9.47-1.85-23.11,12.93-23.28,10.07.42,18.18,8.68,17.36,17.68"/><path d="M370.91,738.12c-.49,3.47-4.05,9.41-14.26,9.66h-.06c-13.58-.78-18.81-11.87-12-18.52,4-3.9,9.47-4,11.26-4.1,9,.14,16,6.2,15,13"/><path d="M516.75,121.44c5.83,8.82,3.13,14.73-3.17,13.39-11.37-2.44-21.27-20.58-15.73-24.58a3.52,3.52,0,0,1,1.44-.6c6.2-.71,13.94,6.47,17.46,11.79"/><path d="M350.28,432.89c-1.78,15.34-19.72,21.31-29.53,9.83-9.25-10.84-3.33-29.75,13.09-30.15,10,.34,17.66,9.84,16.44,20.32"/><path d="M587,65.64c8,5,13.45,10.17,11.7,11.07C596.56,77.8,568.28,62.58,569,58.13h0c1.45-1.25,10.71,2.94,18,7.52"/><path d="M432.45,817.52c-1.53,1.48-5.86,4.14-12.34,4.72h0c-7.13.26-7.23-2.91-5-5.25.64-.68,4.24-4.11,12.06-4.83,5.6-.35,8.32,1.92,5.83,4.85a5.79,5.79,0,0,1-.48.51"/><path d="M445.17,230.73c.86,12.91-11.4,19.65-20.82,11.45s-7.9-26.68,5.16-28.11c9.93.12,15.21,10,15.66,16.66"/><path d="M542.74,68c7.53,5.19,11.66,10.47,8.67,11.08-5.19,1.05-29.63-15.71-27.52-18.88a1,1,0,0,1,.29-.25c3.05-1,12.74,4,18.56,8"/><path d="M492.63,140.12c4,9.14-.47,15.93-8.62,13-10.73-3.9-17.5-21.65-9.65-25.34a8.67,8.67,0,0,1,1.74-.5c7.28-.44,14,7.26,16.53,12.86"/><path d="M319.59,581.17c-.44,5.22-4.38,14.07-16.35,14.14h0c-17.3-1.69-22.47-21.31-11.54-29.9a16.36,16.36,0,0,1,10.84-3.35c13.62,1.3,17.68,12.14,17.09,19.11"/><path d="M382.94,775.33c-2.1,9-19.18,10.62-24.38,2.24-3-4.83.05-12.07,11.66-12.44,8,.06,14,4.82,12.72,10.2"/><path d="M563.45,59.14c8.11,4.75,13.47,9.64,11.47,10.47-3.47,1.44-31.27-14.93-29.75-17.51h0c1.94-1.25,11.85,3.3,18.27,7"/><path d="M455.07,193.26c1.73,12-8.68,18.59-17.68,11.24-9.22-7.53-9.32-24.83,2.41-26.37,8.92,0,14.38,9,15.27,15.13"/><path d="M414.18,811.54c-3.83,6-18.09,7.19-19.82,1.66-.92-3,3.23-7.44,12.08-8h.12c8.06,0,9.31,3.73,7.62,6.37"/><path d="M326,473.8c-1.42,14.06-18.45,22.12-29.05,9.94-8.71-10-5-29.66,12.57-29.79h.12c12.54,1.29,17.11,12.38,16.36,19.85"/><path d="M316.42,673.58c-.84,12.26-19,15.06-27.73,4.29-7-8.63-2.71-20.52,11.11-20.41,9.41.54,17.17,8.08,16.62,16.12"/><path d="M503.27,91.52c2.83,3.29,7,10,2.38,11.57h-.06c-9.46,1.23-22.9-16.77-20.37-20.9a2.3,2.3,0,0,1,1.28-.89h.05c4.91-.61,12.88,5.74,16.72,10.22"/><path d="M335,721.58c-.16,3.61-3.13,9.73-13.22,9.78h-.1c-14.09-1.13-19.93-13.67-12.43-20.18,3.58-3.11,8.08-3.13,10-3.14h.07c11.2.9,15.91,8.46,15.68,13.54"/><path d="M513.4,75.72c6.18,5.52,8.24,10.43,4.49,10.73-6.4.52-25.46-15.77-22.92-19.57a1.77,1.77,0,0,1,.67-.47c4.06-.64,12.92,5,17.76,9.31"/><path d="M460.4,158.27c1.11,4.37,1,12.09-6.75,13.28h0c-12.14.17-19-17.7-12.19-24.87a6.76,6.76,0,0,1,4.32-2.07c7.67-.16,13.19,7.89,14.67,13.66"/><path d="M301.89,515.52c-1.32,14.62-18.44,20.16-28.19,9.12-9.35-10.59-4-29.14,12-29.06h.19c12.85,1.56,16.65,13.05,16,19.93"/><path d="M538.35,52.47c7.92,4.43,12.78,8.84,10.4,9.42-4,1-29.9-13.33-29.15-16.13a.86.86,0,0,1,.13-.2c2.06-.91,11.47,2.91,18.62,6.91"/><path d="M427.76,832.45l-2.18.29c3.55-.48,7.08-1.11,10.63-1.62,1.29-.19,1.5-.19,1.64-.2-.07.05-.07.05-.26.08l-9.83,1.45"/><path d="M515.9,60.08c7.06,4.82,10.49,9.29,7.5,9.77-5.26.83-28.22-14.73-25.86-17.53a1.24,1.24,0,0,1,.26-.19c3.18-.7,12.56,4.17,18.1,7.95"/><path d="M591.4,53.86c6.48,3.7,13.3,8.42,13.51,9.94-1.26,1.4-26.63-13-28.59-16.18h0l0-.19c.9-.78,8.53,2.7,15.1,6.44"/><path d="M606,58.83c5.38,3.37,12.1,8.12,14,10.28h0a1,1,0,0,1,.16.39c-2.28.19-24.87-14.44-27.24-17.08h0l-.12-.21.19-.17c1.66.22,7,3,13,6.78"/><path d="M391.57,803.85c-.07.21-1.77,5.33-11.06,5.69h-.05c-9.85-.21-12-6.16-8.14-9.77,2-1.91,5.15-3,9.25-3.13,8.39.2,10.9,4.33,10,7.21"/><path d="M378.13,286.79c-.47,5-4,13.64-14.21,14.16h0c-15.51-1-17.09-20.45-8.32-28.44a13.14,13.14,0,0,1,8.75-3.49c9.48.65,14.55,9.73,13.82,17.77"/><path d="M296.89,618c-.31,4.64-3.78,12.46-14.83,12.37h-.13c-16.32-1.84-21.69-19.74-11.63-27.34a15.4,15.4,0,0,1,9.89-2.83h.07c13,1.41,17.05,11.42,16.63,17.8"/><path d="M351.7,762.25c-.26,2.67-3.06,7.75-11.85,7.87h-.08c-11.83-.78-17.26-10.34-11.73-15.76,3.17-3.1,8.16-3.13,9.8-3.14,7.92.26,14.4,5.41,13.86,11"/><path d="M486.32,108.63c4.85,8.2,1.62,13-4.29,11.43-10.29-2.66-18.1-19.18-12.72-22.47a3.48,3.48,0,0,1,1.29-.46c5.83-.44,12.82,6.6,15.72,11.5"/><path d="M616.73,64c5.48,3.82,12.09,8.77,14.73,11h0c.12.11.28.27.39.39-1.35-.47-23.51-16.08-25.59-17.82h0a3,3,0,0,1-.35-.36c.64-.12,6.81,4,10.8,6.76"/><path d="M357,326.59c-1.5,13.79-17.42,19.46-25.81,9.18s-.94-27.95,11.84-27.65c10.3.82,14.88,10.13,14,18.47"/><path d="M430.51,831.68a102.38,102.38,0,0,1-11.11,1.77h0c-1.77.19-1.83.16-2,.1a71.69,71.69,0,0,1,13.81-3.27c1.81-.17,2.53-.14,2.66.13-.15.35-1.29.78-3.37,1.27"/><path d="M572.77,48.66c6.15,3.21,12.66,7.39,13.19,9.17h0c-.54,1.44-10.12-3.31-12-4.27-9.11-4.6-16.8-9.27-17.5-10.63a2.17,2.17,0,0,1-.07-.24c.49-1.28,9,2.11,16.42,6"/><path d="M423.43,830.48a37.63,37.63,0,0,1-10.38,2.35h0c-1,.07-4.18.27-3.23-.91s5.59-3.28,11.67-3.87c2.91-.22,4.52.31,3.81,1.25a4.67,4.67,0,0,1-1.85,1.18"/><path d="M334.51,366.59c-.69,5.3-4.81,14.34-15.85,14.63h-.1c-15.65-1.54-18.72-21.66-7.93-30.23a14.94,14.94,0,0,1,9.73-3.26c12,1.16,15,12.19,14.15,18.87"/><path d="M396.14,248.24c-.51,12.35-13.44,18.58-21.62,10.4-8.53-8.53-5.1-26,8.14-26.89h.06c9.7.57,13.69,10,13.42,16.49"/><path d="M551.6,43.47c6.21,3,12.85,7,12.94,8.63h0c-1.73,1.85-29.95-11.5-30.2-14.29h0c1-1,10.08,2.2,17.26,5.65"/><path d="M411.77,827.92c-4.16,3.26-15.42,4-14.87,1,.29-1.56,4.38-4,10.41-4.43,5.71-.13,6.27,1.75,4.84,3.13a3.9,3.9,0,0,1-.38.33"/><path d="M310.33,407.46c-.7,5-5,14.44-16.29,14.47h-.14C278,420,275,400.37,285.78,391.6a15,15,0,0,1,10.11-3.35c11.63,1.28,15.44,12,14.44,19.21"/><path d="M411.32,210.47c.36,11.66-11,17.94-19,10.49-8.87-8.28-5-25.31,5.83-25.67h.1c9.17.33,12.87,9.48,13,15.18"/><path d="M278.12,555.85c-.45,5-4.17,13.42-15.28,13.23h-.11c-16.1-2.05-20.77-21.42-10.52-29.61a14.44,14.44,0,0,1,9.85-3h.11c12.07,1.55,16.59,12.28,15.95,19.41"/><path d="M365.44,794.52c-1.21,7.31-16.55,8-21.05.89-2.42-3.79,0-9.17,9.45-9.31,8.88.47,12.12,5.21,11.6,8.42"/><path d="M461.58,125.46c3.14,8.67-1.92,14.46-9.33,10.67-9.91-5.07-12.42-21.07-5.6-22.85.24-.06.56-.1.8-.14,6.53-.2,12.29,7.23,14.13,12.32"/><path d="M512.25,45.7c7.57,4,12.19,8,9.9,8.58-3.82.9-28.74-12.31-28.07-14.88a.43.43,0,0,1,.16-.2c2.06-.68,11.21,2.87,18,6.5"/><path d="M422.69,175.22c1,10.8-8.78,16.77-16.29,10-7.72-7-6.73-23.19,3.66-23.95h.05c7.83.18,12.07,8.28,12.58,14"/><path d="M297.69,703.61c.06,10.22-14.48,13-23.58,4.54-8.21-7.65-4.47-18.54,6.47-18.78.43,0,1,0,1.43,0,10.76,1.19,15.64,9,15.68,14.21"/><path d="M527.77,38c6.21,2.75,12.73,6.46,12.58,7.91-1,.77-5.85-.75-14.46-4.52-.16-.07-16.11-7.13-15.58-8.64h0c1.26-.86,10.26,2.07,17.46,5.26"/><path d="M485.55,65.51c5.62,5.08,7.38,9.47,3.84,9.59-6.3.22-23.11-14.47-20.44-17.86a1.71,1.71,0,0,1,.65-.39h0c3.81-.47,11.75,4.89,15.92,8.66"/><path d="M285.86,448c-1.89,14.14-17.82,19.12-26.64,8.33-8.5-10.41-3-27.81,12.22-27.63h0c12.24,1.51,15.3,12.37,14.38,19.3"/><path d="M488.6,51.39c5,3.37,9.43,7.51,7.28,8.66h0c-6,1.16-25.63-14.28-24.26-15.91a.69.69,0,0,1,.27-.17c2.64-.48,10.93,3.53,16.73,7.42"/><path d="M475.3,80.15c5.27,6.52,4.35,10.8,0,10.26-8.52-1.06-19.37-16.26-15.74-19.47a2,2,0,0,1,1-.44C465,70.13,472,76,475.3,80.15"/><path d="M395.57,823.74c-2.73,4.21-14.88,4.78-16.05.76-.56-2,2.31-4.82,9.16-5.13h0c6.6,0,8,2.63,6.85,4.37"/><path d="M317.89,747.5c0,8.93-14.34,10.86-22.28,3-6.47-6.42-3-14.62,6.27-14.86.39,0,.9,0,1.29,0,7.69.48,14.7,6.12,14.72,11.85"/><path d="M276.89,652.15c-.27,11.69-16,14.83-25.07,5-7.91-8.52-4.31-21.76,8.72-21.23l.3,0c10.11,1.3,16.21,9.42,16.05,16.19"/><path d="M485.61,38.55c5.76,3,10.95,6.5,9.72,7.6h0c-4.15,1.13-26.84-11.44-26.9-13.52,0,0,.1-.12.15-.15,2-.49,10.65,2.79,17.05,6.06"/><path d="M503.16,32.81c8.6,3.56,13.3,6.76,11.76,7.25-2.79.89-30.16-10.59-29.29-12.28h0c1.43-.66,10.59,2.17,17.52,5"/><path d="M261.13,488.32c-.6,5.16-4.5,13.82-15.25,13.47h-.11c-15.34-2.33-18.83-21.76-8.58-29.76a13.76,13.76,0,0,1,9.58-2.85c11.9,1.67,15.12,12.63,14.36,19.15"/><path d="M336.1,783.16c0,7.23-13.11,8.48-19.83,1.89-5.14-5-2.08-10.83,5.84-11,.36,0,.83,0,1.18,0h0c8.78.69,12.76,5.76,12.78,9.14"/><path d="M375.41,817.86c-1.49,5-14.53,5.12-17,.19-1.16-2.3,1-5.56,8.19-5.71,5.56,0,9.69,2.63,8.82,5.52"/><path d="M256.44,593.87c-.81,12.34-15.62,16-24.77,6.2-9-9.66-4.34-24.1,7.75-24.14.45,0,1.05.05,1.5.07a17.56,17.56,0,0,1,15.52,17.87"/><path d="M430.17,141.29c1.91,10.12-5.89,14.66-12.42,10-8-5.71-8.33-20.52-.56-22.32,0,0,.64-.12,1.05-.15,6.61.08,11,7.35,11.93,12.49"/><path d="M457.73,95.4c3.82,7.24.79,11.7-4.37,10.28-8.94-2.47-15.18-17.59-10.2-20.37a3.27,3.27,0,0,1,1.21-.38c5.23-.22,11.06,6.12,13.36,10.47"/><path d="M569.21,37.25c6,2.93,13.21,7,14.23,8.3l-.15.14c-2.57-.34-24.2-10.94-26.59-13l-.14-.19.16-.15c1.75.09,7.7,2.63,12.49,4.94"/><path d="M553.73,33.41c5.44,2.35,13.21,6.26,13.49,7.59-1.31.89-26-9.76-28.12-12.12h0l0-.15c.71-.57,7.56,1.61,14.67,4.69"/><path d="M321.87,302c-2.08,12.78-16.56,17.78-23.49,8.11-6.07-8.48-1.82-25.05,11.92-25.07,9.69,1.1,12.6,10.58,11.57,17"/><path d="M535.21,29.65c6.45,2.53,13.25,5.9,13,7-1.75.8-27.81-9.32-29.05-11.27h0c1-.84,10.14,2,16.05,4.33"/><path d="M408,834.64l1.5-.13.3,0-1.8.16"/><path d="M343.63,264.49c-2.08,12-15.8,16.59-22.24,7.49-6.07-8.57-.69-24.06,11-24.35,9.48,1,12.29,10.64,11.21,16.86"/><path d="M580.28,41c6.63,3.62,14.06,8.16,15,9-1.57-.31-24-12.93-25.11-13.71a2.5,2.5,0,0,1-.34-.31c.59-.21,6.59,2.86,10.47,5"/><path d="M297.6,341.57c-2.35,13-17.06,17.55-24.22,7.57-6.83-9.52-.86-25.47,12.45-25.34h.1c10.6,1.39,12.78,11.63,11.67,17.76"/><path d="M363.56,226.49c-.12,1.23-1.49,12-12,12.45h0c-12.82-1-14.46-18.27-5.13-25.52a10.11,10.11,0,0,1,6.35-2.31h.08c8.4.68,11.34,9.4,10.74,15.37"/><path d="M403.82,834.9c-1.19.18-2.71.29-3.35.34l-6.62.4h-.14a50.9,50.9,0,0,1,8.91-1.42c.65,0,2.65-.14,2.77.2-.05.08-.17.25-1.57.47"/><path d="M595,49.48c-4.15-2.58-9.22-5.6-13.93-8.28L595,49.48"/><path d="M273.09,380.38c-.77,5-4.79,13.43-15,13.31H258c-14.12-2-16.1-20.42-6-28.18a13.34,13.34,0,0,1,9.09-2.83c9.42,1.31,13.26,10.11,12.1,17.71"/><path d="M512.83,25.48c6.14,2.13,12.9,5.07,13.34,6.33-.87,1.24-28.7-8.35-29.48-10.15,1.46-.74,11.23,2.13,16.14,3.82"/><path d="M281.52,730.27c.72,8.71-11.82,10.85-20.34,3.47-7.42-6.43-5.77-15,3-15.84a20,20,0,0,1,2.45,0c7.42.66,14.36,6.45,14.85,12.38"/><path d="M477.73,27.39c5.13,2,10.78,4.74,11.07,6-.49.73-4.42-.28-11.69-3-2.47-.93-16-6.3-16.78-7.7l.06-.12c1.69-.42,10.71,2.26,17.34,4.85"/><path d="M380.2,191c-.63,10.64-10.88,15.75-17.41,8.68-7.13-7.72-2.44-22.92,7.07-22.9,7.68.51,10.67,8.63,10.34,14.22"/><path d="M394.63,834.11c-2.41,1.25-11.87,2-11.18.39.38-.83,3.73-1.91,7.49-2,3.92-.06,4.78.75,4.14,1.35a1.77,1.77,0,0,1-.45.3"/><path d="M462.61,42.92c6,4,8.23,7.23,6.59,7.72-3.43,1-22.61-11.46-21.82-14.2,0-.13.21-.24.33-.3,2.64-.3,10.49,3.82,14.9,6.78"/><path d="M433.14,110.32c2.39,7.87-2.3,13.18-8.5,9.64-8.36-4.78-9.74-18.73-3.69-20.46a6.27,6.27,0,0,1,.88-.15c5.51,0,9.93,6.42,11.31,11"/><path d="M459.1,55.28c4.92,4.52,6.5,8.56,3.39,8.65-6.07.16-19.56-13.75-17.69-16.1a1.42,1.42,0,0,1,.56-.32h0c3.15-.28,10,4.33,13.73,7.77"/><path d="M258.74,682.66c.76,9.8-11.74,13.08-20.91,5.48-8.84-7.33-7.31-18.51,2.68-19.62a14.07,14.07,0,0,1,2.93,0c9.91,1.4,14.91,9.12,15.3,14.15"/><path d="M351.49,810.33c-.47,5.44-12.95,5.48-17.35.06-2.28-2.82-.75-6.74,6.92-6.71,5.74.21,10.72,3.38,10.43,6.65"/><path d="M237.93,529c-1.24,13-15.82,17.06-24.37,6.78-8.94-10.73-2.79-26.61,10-25.73h.14c10.92,1.74,14.91,12.12,14.26,18.94"/><path d="M449.21,69c4.11,5.81,2.81,9.3-1.11,8.54-7.52-1.45-15.94-15-12.42-17.42a2.44,2.44,0,0,1,.79-.3c3-.37,9.06,4,12.74,9.18"/><path d="M460.2,31.79c6.83,3.42,9.81,6.05,8.66,6.52-2.38,1-24.72-10-24.64-12.14l.13-.11c1.9-.31,9.94,2.77,15.85,5.73"/><path d="M236.46,628.21c.1,11-13.09,14.49-22.05,5.81s-5.93-21.92,5.31-21.9c0,0,1.23,0,1.59.09,10.94,1.71,15.1,10.72,15.15,16"/><path d="M303.54,769.65c.77,6.93-10.1,8.55-17.89,2.66-6.5-4.91-5.89-11.35,1.2-12.52a16,16,0,0,1,3.24-.13c6.75.53,12.91,5.1,13.45,10"/><path d="M489.86,21.78c6,1.9,12.46,4.48,12.55,5.52h0c-1.24.92-29-7.79-29.39-9.23.85-.53,9.34,1.33,16.84,3.7"/><path d="M381.07,831.79c-1.6,2.49-12.24,2.41-12.51-.08-.14-1.35,2.95-2.55,6.62-2.57,4.85.07,6.56,1.62,5.89,2.65"/><path d="M393.7,157.06c-.08,10.26-9.49,13.68-15,7.72-6-6.45-3.78-20.36,5.21-21.1,5.26,0,9.82,6.24,9.77,13.38"/><path d="M247.36,421.11C245.1,433.88,230.72,438,223.3,428s-1.72-25.86,12-25.22c10.85,1.71,13.17,12.16,12.08,18.35"/><path d="M451.87,21.79c5.12,1.86,10.46,4.23,10.88,5.34-.86,1.55-25.65-8.2-26.84-9.56l0-.11c1.24-.26,9.28,1.92,15.93,4.33"/><path d="M216,566.86c-.51,11.91-13.88,15.57-22.35,6.11s-4.44-23.59,6.77-23.59c.45,0,1.06,0,1.51.09,10.15,1.78,14.34,11.24,14.07,17.39"/><path d="M431.58,81.74c2.73,6,.68,10.56-4.05,9.06-7.28-2.31-11.84-15.77-7.62-18.15a2.73,2.73,0,0,1,1.09-.33c4.28,0,8.85,5.6,10.58,9.42"/><path d="M323.85,800.32c.72,5.32-9.08,6.25-15.67,1.48-4.84-3.5-4.22-7.93,1.23-8.77a14.3,14.3,0,0,1,2.71-.1c5.66.35,11.25,3.87,11.73,7.39"/><path d="M363,827.72c-.27,3.15-10.64,3.07-13.36-.11-1.45-1.7.48-3.59,5.58-3.6,5.51.25,7.9,2.36,7.78,3.71"/><path d="M403.13,124.93c.31,3.5-.72,9.58-6.6,10.16h-.06c-9.66-.46-11.18-15.71-5.93-20.33a5.37,5.37,0,0,1,3.35-1.38c5.63.25,8.84,7,9.24,11.55"/><path d="M464.7,17.69c6.49,1.84,11.56,3.77,12.33,4.71v.13h0c-1.5.77-28.44-6.91-28.82-8.21.93-.38,9.26,1.32,16.5,3.37"/><path d="M222.88,460.33c-.62,4.49-4.36,12.84-14.11,12.3h0c-13.55-2.38-16.2-20.81-6.85-27.9a12.13,12.13,0,0,1,8.65-2.36c7.89.95,13.54,9.18,12.34,18"/><path d="M244.41,711.35c1.06,8.18-9.74,10.54-18.06,3.95-8.08-6.41-7.41-16.13,1.15-16.77a17.93,17.93,0,0,1,2.32.05c8.16,1.3,13.92,7.64,14.59,12.77"/><path d="M438.13,34.26c5.37,3.64,7.1,6.18,5.67,6.54-1.06.25-4.32-.82-10.06-4.68-4-2.7-9.55-7.27-8.79-8a.49.49,0,0,1,.18-.08h0c1.95-.16,8.47,3.17,13,6.24"/><path d="M435,45.14c3.13,3.07,5.43,6.69,3.1,7.37h0c-5.23.25-16.72-12-15.09-14.19a.72.72,0,0,1,.5-.27c2.66-.14,8.4,4,11.51,7.09"/><path d="M289.19,277.61c-1.08,4.74-5.56,11.74-13.47,11.62h-.06c-11.72-1.72-12.27-17.64-3.41-24.67a11.26,11.26,0,0,1,7.82-2.55c8.47,1.18,10.43,9.83,9.12,15.6"/><path d="M269.29,754c.16.72,1.3,7-7.65,6.49h-.05C250.67,759,244.21,749.05,249.33,745c.86-.68,2.82-1.76,6.3-1.42,7.34,1,12.71,6.11,13.66,10.43"/><path d="M530.72,20.13c6.35,2.23,12.64,5,13.47,5.91-1.09.89-24.13-8-25.51-8.93h0l-.11-.13c.67-.61,8.49,1.87,12.17,3.16"/><path d="M219.73,661c.5,9.6-11,12-19.54,4.07s-5.72-18.31,2.65-19a17.49,17.49,0,0,1,2.4,0h.12c9.47,1.75,14.11,9.75,14.37,14.88"/><path d="M514.7,17.66c6,1.82,12.67,4.41,13.15,5.34-1.94.72-25.74-7.19-26.88-8.19l.08-.17c1.49-.2,7.49,1.13,13.65,3"/><path d="M435.28,24.55c6.05,2.93,9,5.28,8,5.63-2,.69-21.92-8.92-22.19-10.72l.09-.07c1.54-.17,9,2.68,14.08,5.16"/><path d="M312.84,240.67c-2.42,11.11-14.39,15.16-19.7,6.65-5-8,.5-21.65,11.14-21.68,8.39,1,9.7,9.76,8.56,15"/><path d="M334.08,205c-.72,4-3.92,10.82-11.39,10.93h-.09c-10.86-1.3-10.9-16.77-2.36-23a9,9,0,0,1,5.68-1.91h.1c7.11.91,9,8.71,8.06,14"/><path d="M264.37,315c-2.53,11.66-16.21,15.81-21.85,6.62-5.3-8.64,1-23.26,12.44-22.82,8.6,1.41,10.68,10.32,9.41,16.2"/><path d="M546.61,24.24c4.42,1.92,9.79,4.48,10.42,5.1-.86.15-21.84-8.62-23.86-9.78l-.23-.16v-.12a30.57,30.57,0,0,1,5.17,1.56c2.85,1.09,5.68,2.23,8.49,3.4"/><path d="M494.76,15.08c5.53,1.46,11.94,3.57,12.95,4.62l-.15.2c-3.23.29-27.26-6.73-27.66-7.41.86-.58,9.24,1.12,14.86,2.59"/><path d="M341.28,821.89c.05.29.41,2.86-5.35,2.71h-.05c-6.76-.52-11.13-4.16-9-6.23,1.3-1.27,4.07-1.21,5-1.19,4.47.23,8.95,2.48,9.4,4.71"/><path d="M439.93,13.82c6.13,1.58,10.91,3.21,11.62,4v.1h0c-1.68.56-26.38-6.3-27.72-7.13v-.07c.94-.2,8.92,1.28,16.12,3.13"/><path d="M408.45,95.1c1.53,7.44-3.27,11.15-7.8,8.16-6.74-4.45-6.64-16.81-1.38-18a4.2,4.2,0,0,1,.62-.08c4.53.16,7.73,5.88,8.56,9.9"/><path d="M198.88,499.51c-.44,4.72-3.68,12.52-13,11.8h-.07c-13.73-2.76-16.24-21.51-6.51-27.75a10.62,10.62,0,0,1,7.3-1.59c8.88,1.72,13,10.32,12.29,17.55"/><path d="M352.9,170.74c-1.41,9.28-10.52,13.53-15.48,7.22-5.11-6.5-1.17-19.83,7.9-20.14h0c6.81.72,8.24,8.31,7.54,12.92"/><path d="M293.58,788.51c.58,2-.07,5.19-6.16,4.88h-.07c-9.34-1.14-15.59-8.84-11.44-11.84,1.68-1.21,4.18-1.09,5.24-1h.08c7.54.91,11.57,5.39,12.35,8"/><path d="M374.33,836.24c1.51,0,3-.17,4.55-.2a25.78,25.78,0,0,1,3.13.07h0l-7.69.13"/><path d="M472.87,12.65c6.64,1.5,12.31,3.28,12.9,4.06-1.56.9-26.7-5.52-28.1-6.27l-.09-.09h0c1.15-.46,9.68,1,15.29,2.31"/><path d="M425.17,56.81c2.12,3.29,3.11,7.12.27,7.76h-.05c-6.42.13-13.18-12.63-11-15.15a1.6,1.6,0,0,1,.93-.47h0c3.1,0,7.71,4.53,9.85,7.85"/><path d="M196.89,603.64c-.37,10.43-12.57,12.79-20.4,3.93S172,586.66,182.06,587c.37,0,.86.08,1.23.11,7.52,1.1,13.87,8.8,13.6,16.49"/><path d="M426.88,16.17c5.58,1.9,9.73,3.75,10.1,4.5l-.06.1h0c-2.33.43-23.82-7.74-24.59-8.43l0-.07c1-.12,8.2,1.75,14.54,3.9"/><path d="M238,353.9c-1,4.43-5,11.84-13.84,11.43h0c-12.35-2.13-13.15-19-3.88-25.79a11.57,11.57,0,0,1,8-2.28c8.95,1.54,11.06,10.66,9.71,16.65"/><path d="M212.24,392.5c-.93,4.35-4.82,11.57-13.47,11h-.07c-12.87-2.43-13.3-20.33-3.32-26.44a10.56,10.56,0,0,1,6.92-1.56c6.91.92,11.65,9,9.94,17"/><path d="M449.1,10.18c6.12,1.19,11.12,2.52,12.16,3.22l-.05.17c-2.48.33-27.64-5.05-28.11-5.55.74-.27,8.63.72,16,2.16"/><path d="M368.15,138.57c-.85,9-8.88,12-13.13,6.88-5.12-6.18-1.23-18.21,6-18.65,4.37.12,7.68,5.62,7.09,11.77"/><path d="M370.46,835.8c-.47.64-9.14.34-9.1-.32,0-.18.82-.72,4.25-.72,2.87,0,5.16.61,4.85,1"/><path d="M315.92,813.77c1.41,3.11-3.32,4.28-9,2.24s-8.31-5.68-5.31-7.18a8,8,0,0,1,3.9-.52c5.78.61,9.59,3.56,10.45,5.46"/><path d="M409.18,68.88c2,6-1,9.15-4.66,7.1-5.7-3.19-7.56-14.54-3.73-15.59a2.54,2.54,0,0,1,.47-.07c3.52.1,6.81,5.17,7.92,8.56"/><path d="M414.53,9.69c5.61,1.28,10.3,2.65,11.14,3.25-.78.64-25.9-5.85-26.05-6a138.85,138.85,0,0,1,14.91,2.74"/><path d="M177.35,538.79c-.54,10.86-11.4,14.53-19.07,6.45-8.41-8.86-4.81-23.67,5.66-23.31.37,0,.86.09,1.23.12,9.37,2,12.44,11.34,12.18,16.74"/><path d="M416.32,25.94c4.46,3.12,5.95,5.23,4.81,5.46s-4.68-1.69-7.4-3.6c-4.7-3.29-8.72-6.87-8.26-7.36a.52.52,0,0,1,.13-.06c1.56,0,7,3,10.72,5.56"/><path d="M205.9,689.76c1.25,7.5-6.78,10.26-14.57,5-8.71-5.88-10.08-16.46-2.29-17.69a11,11,0,0,1,3.18,0c8.7,1.66,13,8.65,13.68,12.67"/><path d="M412.73,17.65c3.72,1.76,7.41,3.87,7.29,4.61-1.41.81-18.87-8.18-19.34-9.14l.06,0c1.12,0,7.28,2.34,12,4.58"/><path d="M424.25,7.69c5.93,1,11.08,2.1,12.25,2.69l-.05.14c-2.59.15-27.51-4.61-27.57-4.67,1.29-.11,9.19.83,15.37,1.84"/><path d="M233,736.22c1.58,6.28-5.41,8.53-12.9,4.15-8.09-4.72-10.5-13.18-4.22-14.83a9.85,9.85,0,0,1,3.68-.15h.06c8.11,1.43,12.51,7.4,13.38,10.83"/><path d="M355.08,833.78c.7,1.44-6.15,1.05-9,0-1.55-.55-1.93-1.19-.95-1.64a8.88,8.88,0,0,1,3.26-.4h0c4,.22,6.34,1.33,6.67,2"/><path d="M403.65,10.73c5.06,1.61,8.9,3.14,9.33,3.71-1.21.5-22.15-7-22.23-7.18a125.18,125.18,0,0,1,12.9,3.47"/><path d="M380,108.17c-.18,7.18-5.93,11.07-10.09,6.82-4.6-4.68-3.1-16.59,3.63-17.1h0c4.85.41,6.52,6.52,6.43,10.28"/><path d="M186.52,430.89c-.73,4.31-4.22,11.43-12.65,10.78h-.14c-13.25-2.74-12.58-20.64-4-26a9.83,9.83,0,0,1,6.77-1.46c8.49,1.81,11,11,10.06,16.66"/><path d="M260.67,774.41c1.54,4.24-3.07,6.81-10.06,3.72-7.6-3.35-11.3-10.2-6.48-12a9.07,9.07,0,0,1,3.9-.31c5.32.65,11.22,4.66,12.64,8.59"/><path d="M414,35.38c3.15,3.43,4,6.35,1.83,6.13-4.18-.42-12.63-10.76-11.33-12.26a1,1,0,0,1,.38-.18c2.05,0,6.69,3.67,9.12,6.31"/><path d="M180.36,636.32c.4,8-8.19,11.68-16.43,4.39-8.4-7.42-7.73-18.71,1.14-19.17a16,16,0,0,1,2.19.13c6.76,1.1,12.76,7.81,13.1,14.65"/><path d="M473.79,6.64c6.27,1.13,12.11,2.65,12.49,3.27-2.17.69-25-4.49-25.1-4.58l.08-.12c1.39-.2,7,.45,12.53,1.43"/><path d="M491.9,7.89c5.22,1.18,11.32,3,12.09,3.71-1,.64-22.41-4.62-23.75-5.35l-.08-.11c1-.4,7.48.78,11.74,1.75"/><path d="M398.64,5.13a96.91,96.91,0,0,1,12,2.07c-1,.27-26.28-3.54-26.47-3.6h0c1.06,0,8,.67,14.49,1.53"/><path d="M515.14,13c-4.53-1.13-12.22-3.33-13.88-3.82q7,1.77,13.88,3.82"/><path d="M387.6,80.43c.51,6-3.39,9.77-7.07,6.83-4.67-3.74-3.95-15,1-15.47h.13c3.62.24,5.66,5.2,6,8.65"/><path d="M260.44,252.46c-1.07,3.54-5,10.16-12.16,9.84h-.05c-9.76-1.75-9.07-15.73-1.09-21.71a9.75,9.75,0,0,1,6.8-2.09c7,1.2,8,8.89,6.5,14"/><path d="M453.92,5.7c6,.86,11.22,2,11.95,2.56-1.17.83-25.6-3.57-25.81-3.64l-.1-.07h0c.78-.37,8.27.33,14,1.15"/><path d="M390.85,5.78a76.44,76.44,0,0,1,10.34,2.54c-.18.08-.18.08-24-4.94l-.06,0h0c.65.08,7.2,1.11,13.68,2.42"/><path d="M335.66,829.84c.9,1.13-.6,1.71-3.64,1.41-4.86-.49-9.33-2.7-7.84-3.88.75-.6,2.55-.53,3.22-.5h.05c4.32.37,7.4,2,8.21,3"/><path d="M285.39,217.16c-1,3.67-4.58,9.85-11.43,9.71h-.06c-10.31-1.57-7.7-16.2-.25-21.2a8.81,8.81,0,0,1,5.63-1.64c6.46,1,7.46,8.3,6.11,13.13"/><path d="M405.42,45.71c2.21,4.29,1.25,6.81-1.08,6.19-4.54-1.19-9.06-11.6-6.76-13.14a1.89,1.89,0,0,1,.52-.18c2.55.12,5.87,4.32,7.32,7.13"/><path d="M308.75,182.83c-2.53,9.77-12.3,12.12-15.66,5.79s2-18,10.11-18c6.11.89,6.64,7.94,5.55,12.18"/><path d="M287.54,804.09c1.49,3.18-2.83,4.28-8.4,2.15-5.91-2.26-9.38-6.73-6.41-8.24a6.91,6.91,0,0,1,3.48-.4c4.48.5,10,3.65,11.33,6.49"/><path d="M157.93,575.76c-.27,9.31-9.73,11.85-16.88,4.52-8-8.22-5.54-21.12,4-20.6.33,0,.76.09,1.09.13,6.62,1.23,12,8.54,11.82,16"/><path d="M162.36,470.51c-1.59,10.35-12,13.52-18.32,5.56-6.88-8.71-3-23.4,8.44-22.12,6.67,1.18,11.1,8.61,9.88,16.56"/><path d="M233.62,289c-1.13,3.95-5,10.52-12.39,10.07h-.08c-10.06-2-9.48-16.67-1.32-22.46a10,10,0,0,1,7-2c7.58,1.45,8.2,9.39,6.77,14.38"/><path d="M329.19,150.81c-2,8.12-10,11.65-13.53,6s1-17.22,8.49-17.28h.07c5.49.76,6,7.33,5,11.3"/><path d="M206.82,326c-3.14,11.19-14.58,12.84-18.9,5.12s1.81-21.07,11.76-20.32c7.82,1.7,8.53,10.23,7.14,15.2"/><path d="M430.85,4.7c5.47.6,10.58,1.43,11.88,1.93l.1.08h0c-1.48.52-26.23-2.85-26.37-2.92,1-.22,8.37.24,14.39.91"/><path d="M392.45,10.69c3.65,1.7,6.34,3.24,6.53,3.76-.69.69-16.1-7.51-16.23-7.61v0a87.36,87.36,0,0,1,9.71,3.89"/><path d="M196.45,716.58c1.61,5.92-3.89,8.17-10.7,4.37-8.16-4.55-11.43-13.6-5.56-15.38a7.72,7.72,0,0,1,3.46-.12c7.15,1.5,11.79,7.42,12.8,11.13"/><path d="M406.9,3.77a94.8,94.8,0,0,1,11.4,1.36l.07,0h0c-1.31.23-26-2.08-26.18-2.12,1-.07,8.06.19,14.72.71"/><path d="M397.38,17.6c3.45,2.51,4.89,4.34,4.08,4.48-1.48.24-12.39-7.82-12.42-9.18l.07-.05c1,.05,5.45,2.7,8.27,4.75"/><path d="M168,667c.43,3-.57,7.75-7.12,6.88h-.09c-10.62-2.59-16.07-15.6-10.13-19.13a7.31,7.31,0,0,1,4.87-.65c5.89,1.11,11.6,7,12.47,12.92"/><path d="M382.54,5.39a57.91,57.91,0,0,1,8.25,2.85c-.3.09-2.15-.49-7-2.07-2.93-1-7.83-2.56-12-3.7h0c5.55,1.45,7.41,1.94,10.74,2.92"/><path d="M179.54,363.63c-2.47,10.07-12.91,13.44-18,5.82-5.78-8.62,1.09-22.21,10.51-20.77,7.71,1.74,8.7,10.09,7.51,14.95"/><path d="M226.44,758.54c.23.58,2,5.65-4.74,4.89h0c-9.29-1.77-16-11-11.66-13.56a6.66,6.66,0,0,1,4-.47c5.07.79,10.75,5,12.4,9.14"/><path d="M347,119.83c-1.5,7.83-8.49,10.39-11.44,5.83-3.19-4.94.49-15.53,6.83-15.79h0c4.38.51,5.31,6.14,4.57,10"/><path d="M390.87,55.58c1.09,4.7-.9,8.07-3.8,6.45-3.94-2.19-5.31-12.54-1.76-13.33l.33,0c2.13,0,4.47,3.63,5.23,6.92"/><path d="M140.22,508.71c-.93,10-10.42,12.87-16.64,5.09-6.83-8.54-3.3-21.8,5.65-21.19.31,0,.73.1,1,.14h.1c8.12,2.13,10.34,10.71,9.85,15.94"/><path d="M312.43,824c1.11,1.24.3,2-2,1.92l-.51,0h0c-6-.7-11.5-4.1-9.71-5.35a5.65,5.65,0,0,1,3-.33h0c4.49.54,8.1,2.54,9.23,3.79"/><path d="M374.45,2.74c5.95.62,10.05,1.2,11.05,1.41a36.91,36.91,0,0,1-4.39-.51c-3.25-.43-6-.78-9.31-1.17h0l2.65.27"/><path d="M372.2,2.55c3.42.63,5.51,1.1,5.73,1.18h0L371.8,2.47h0l.4.08"/><path d="M396.24,25.54c2.54,3.11,2.81,5.12,1.47,5-3.37-.37-9.12-9.68-8.09-10.3l.14,0c1.23.09,4.56,3,6.48,5.37"/><path d="M142.58,609.42c.34,3.76-1.5,9-8,8.15h-.06c-10.36-2.73-14.87-16.76-8.71-20.9a6.82,6.82,0,0,1,5.16-.84c7.29,1.84,11.15,9.06,11.57,13.6"/><path d="M381.06,2.8c6.34.29,10.65.66,11.69.84-.39,0-.45,0-5.86-.31-6-.41-10-.65-15.09-.86,1.59,0,5.3.15,9.26.33"/><path d="M256.73,791.75c1.52,2.48.2,4.51-4.19,3.59-6.94-1.47-13.85-8-10.56-10a5.75,5.75,0,0,1,3.35-.37h0c5.58.94,10,4.52,11.38,6.75"/><path d="M360.88,92c-1,6-6,9.12-8.82,5.42-3.09-4-.55-14,4.82-14.32,3.17.12,4.65,4.79,4,8.9"/><path d="M153.47,401.65c-.88,3.75-4.22,9.88-11.2,9h-.09c-10.43-2.76-10.26-18.38-1.94-23.21a8.11,8.11,0,0,1,5.62-1.06c7.26,1.89,8.82,10.06,7.61,15.26"/><path d="M351.71,835.81h0l-2.44-.12-4.38-.24a4.31,4.31,0,0,1-.92-.12l0,0a13.2,13.2,0,0,1,2,0c1.9.1,3.79.4,5.69.52"/><path d="M286.14,815.88c1.36,1.47.73,2.44-1.5,2.29-5.11-.32-13-4.89-11.26-6.51.6-.56,2.14-.41,2.79-.35h.06c4.52.7,8.58,3.14,9.91,4.56"/><path d="M459.76,1.54c2.47.45,3,.66,3.14.8C461.38,3,441.65.27,441.54.21c.22-.18.24-.2,1.58-.21q8.38.57,16.64,1.54"/><path d="M389.41,34.36c1.39,3.61.53,5.61-1.17,5-3.41-1.27-5.6-10.21-3.73-10.9l.19,0c1.65.18,3.79,3.58,4.71,6"/><path d="M433.55.93c5.06.3,10,.89,10.86,1.28-.56.6-22.47-1.3-22.65-1.37.57-.31,6.95-.21,11.79.09"/><path d="M121.64,546.09c-.12,8.39-7.77,11.34-13.88,5.36-7-6.88-5.78-19.67,1.95-20.12a10.19,10.19,0,0,1,1.83.14h.12c6.62,1.87,10,9.68,10,14.6"/><path d="M371.14,65.81c-.12,2.23-1.14,6-4.16,6.3h0c-5.1-.5-4.18-10.42-.79-13.07a2.39,2.39,0,0,1,1.51-.58c2.62.28,3.61,4.56,3.45,7.35"/><path d="M411.28,1.44a77,77,0,0,1,11.08.76c-.8.37-23.35-.58-23.51-.63.84-.16,7-.26,12.43-.13"/><path d="M371.88,2.5h0l-.12,0h0l.08,0"/><path d="M334.64,834.11a2,2,0,0,1,.67.3l0,.07c-1.34.43-10-1.08-9.57-1.67.09-.13.64-.22,1.9-.12a36.77,36.77,0,0,1,7,1.42"/><path d="M262.28,193.9c-3.33,8.21-12,10.77-14.44,4.27-2.31-6.08,3.57-16.29,10.83-15.92h.05c5.29,1.06,5.27,7.45,3.56,11.64"/><path d="M128.58,439.45c-1.78,9.24-10.79,11.7-15.79,4.31-5.32-7.85-1.34-20.81,8.14-19.48H121c6.85,2,8.55,10.08,7.56,15.15"/><path d="M235.33,227.64c-3.19,8.17-12.13,11.17-15.19,5.08-3.46-6.91,3.72-18.2,11-17.26,5.71,1.2,5.9,7.84,4.2,12.18"/><path d="M375.85,4.25a37.09,37.09,0,0,1,5.71,3c-.2.09-1.36-.48-4.73-2.21-2.4-1.23-3.62-1.84-5-2.52h0c.73.31,2.43,1,4.05,1.78"/><path d="M190.55,739.7c2,4.35-1,6.4-6.2,4.29-7.42-3-12.78-11.09-8.7-13.15a5.65,5.65,0,0,1,3.2-.25h.05a18.28,18.28,0,0,1,11.65,9.1"/><path d="M159.12,694.4c1.36,5.31-2.92,7.41-8.64,4.23-7.64-4.23-11.38-13.87-6-15.38a6.44,6.44,0,0,1,2.93,0c5,1.06,10.42,6.27,11.68,11.16"/><path d="M287.16,161.75c-3,7.6-11.05,10.2-13.21,4.28-2.06-5.61,3.38-15.22,10-15,3.88.44,5.36,5.35,3.22,10.73"/><path d="M207.63,262.13c-3.18,8.75-12.79,11.47-15.82,4.49-2.95-6.8,3.07-17.82,11.26-17.11h0c6.14,1.4,6,8.49,4.54,12.62"/><path d="M388.21,2.05c5.21,0,9.46.09,10.57.23l.07,0h0c-.87.12-23.53.06-23.74,0h0c.05,0,6.41-.27,13.1-.31"/><path d="M382.54,9.89c2.19,1.71,3.57,3.11,3.44,3.49-.91.39-8.87-6.79-9.25-7.39l0,0a47.11,47.11,0,0,1,5.79,3.92"/><path d="M310.15,130.85c-1,2.67-3.86,7.17-8.25,7.11h0c-6.3-1.1-4.07-11.76,1.91-15.68a5.75,5.75,0,0,1,3.62-1.1h0c4.36.73,4,6.18,2.72,9.66"/><path d="M223.66,777.16c1.88,2.92.34,4.5-3.5,3.58-6.49-1.55-13.47-8.39-10.67-10.46a4.4,4.4,0,0,1,3-.34h.07a19.87,19.87,0,0,1,11.08,7.2"/><path d="M179,298.12c-3,8.36-12.07,11.2-15.49,4.82-3.69-6.87,2.31-19.19,10.54-17.76,6,1.49,6.53,8.46,5,12.94"/><path d="M130.2,640.83c1.25,7.11-4.63,8.47-10.15,4.56-7.41-5.25-9.28-15.8-3-16.85a7,7,0,0,1,2.33.1c4.9,1.13,9.85,6.72,10.81,12.19"/><path d="M329.86,102.3c-2.06,6-7.72,8.63-9.6,4.48-2.07-4.55,2.64-12.92,7.31-13,3.38.53,3.37,5.38,2.29,8.49"/><path d="M376.92,43.36c.16,4.1-1.91,6.06-3.63,4.59-2.54-2.17-2-10.39.68-10.72,1.78.24,2.86,3.71,2.95,6.13"/><path d="M151.15,334.34c-1,3.08-4.5,8.71-10.44,7.92h-.06c-8.69-2.46-7.13-16.18.44-20.4A7.07,7.07,0,0,1,146,321h0c5.93,1.66,6.55,9,5.11,13.37"/><path d="M106.56,477.56c-1.1,8.25-8.53,10.95-13.49,4.91-6.18-7.53-3-20.26,4.83-19.46.26,0,.6.1.86.15h.09c6.36,2,8.34,9.63,7.71,14.38"/><path d="M372.17,2.47h0"/><path d="M313.69,830.34c.52.24,1.32.68.9.85a4.6,4.6,0,0,1-1.44,0h0c-4.33-.52-9.73-2.27-9.18-3,.21-.27,1.28-.18,1.74-.14h0a31.52,31.52,0,0,1,8,2.25"/><path d="M257,805.65c1.47,1.53,1.3,2.57-.42,2.58-4.42,0-13.55-5.44-12.21-7.32.18-.26.76-.65,2.59-.36a21.28,21.28,0,0,1,10,5.1"/><path d="M105.78,580.87c.35,6.89-5.26,9.42-10.71,4.83-6.92-5.81-7.62-17.1-1.12-18a7,7,0,0,1,2.35.14c4.93,1.23,9.18,7.09,9.48,13.06"/><path d="M383.2,16.46c1.73,2.57,2,4.14,1.08,3.94-1.92-.44-5.69-7.78-5.15-8.21l.07,0c.74.13,2.9,2.68,4,4.3"/><path d="M123.85,371.42c-2.3,7.64-10.54,11.05-14.35,3.77-3.67-7,1.06-18.44,9-17.12,5.87,1.82,6.69,9,5.39,13.35"/><path d="M346.5,75.88c-1.55,5-5.68,7.44-7.37,4.32-2-3.79,1.65-11.51,5.57-11.64,2.84.4,2.61,4.7,1.8,7.32"/><path d="M155.07,719.43c.87,2.06,1.16,5.32-3.26,4.5h-.08c-7.61-2.13-13.72-11.76-10-13.56a4.6,4.6,0,0,1,2.73-.1h.05a18.14,18.14,0,0,1,10.54,9.16"/><path d="M87.07,514.45c0,.89-.48,8.61-7.1,7.29h0c-8.62-2.85-10.08-17-4-20.12a5.11,5.11,0,0,1,3.47-.35c4.33,1.2,7.82,7.24,7.62,13.19"/><path d="M122.68,670c1.45,4.89-1.45,7-6.2,4.55-6.93-3.59-11-13.19-6.37-14.89a4.69,4.69,0,0,1,2.61,0c4.91,1.48,8.79,6.44,10,10.36"/><path d="M189.83,760.59c1.82,2.81,1,4.31-2.11,3.66-6.16-1.31-13.82-9.15-10.65-10.91a3.76,3.76,0,0,1,2.39-.12,19.47,19.47,0,0,1,10.37,7.37"/><path d="M378.26,23.9c.41,1.9.35,3.89-.71,4.06h0c-2.39-.35-2.83-7.76-1.9-8.55a.43.43,0,0,1,.25-.09c1.07.14,2.08,3.2,2.38,4.58"/><path d="M289.37,824.47c1.18.66,1.57,1.1,1.1,1.25-1.86.58-11.52-2.87-11.24-4,0-.15.3-.38,1.68-.18a30.48,30.48,0,0,1,8.46,2.94"/><path d="M359.19,52.19c-.95,3.94-3.82,6.27-5.21,4.22-1.64-2.43.67-9.94,3.77-10.11h0c1.88.28,2,3.69,1.42,5.89"/><path d="M215,202.59c-3.33,6.63-10.47,8.85-12.32,3.83-1.94-5.24,4-14.69,10.24-14.08h0c4.41,1.12,3.86,6.67,2.06,10.25"/><path d="M225.88,792.93c1.67,1.76,1.62,2.89-.12,2.82-4.39-.17-13.66-6.63-11.67-8.14a3.2,3.2,0,0,1,2.1-.13,22.44,22.44,0,0,1,9.69,5.45"/><path d="M98.65,408c-1.79,7.81-9,9.92-12.68,3.7-4-6.73-.35-17.69,7.16-16.44h.06c5.68,1.85,6.36,8.79,5.46,12.73"/><path d="M372,2.63a13.88,13.88,0,0,1,2.63,2.52v0c-.25-.11-.49-.36-2.8-2.7h0l.18.16"/><path d="M392.58.51a85,85,0,0,1,8.89-.28c-.4.22-19.07,1.2-19.23,1.2.62-.12,5.58-.61,10.34-.92"/><path d="M94.7,613.68c.77,5.62-3.31,7.74-8.08,4.2-6.46-4.79-8.37-15.2-2.92-15.92a5.63,5.63,0,0,1,1.89.16h0c5.12,1.71,8.56,7.81,9.08,11.55"/><path d="M243.44,170.59c-1.15,2.39-4.5,6.83-8.86,6.53h0c-5.78-1.32-3.09-10.73,2.83-14.64a6.26,6.26,0,0,1,4.28-1.26c3.12.53,4,4.92,1.79,9.38"/><path d="M270.63,140.07c-3,5.93-9.4,8.2-10.66,3.78s4.21-12.67,9.34-12.36c2.89.4,3.49,4.33,1.32,8.58"/><path d="M372.59,2.4c3.73-.32,5.9-.44,6.13-.44-2.29.35-4.61.34-6.92.51h0l.79-.07"/><path d="M185.17,236c-3.24,6.75-10.64,8.75-12.58,3.39-2-5.55,3.75-15,10.19-14.23h.05c4.54,1.26,4.08,7.21,2.34,10.83"/><path d="M295.24,111.76c-3,5.59-8.36,6.9-9.22,3.33-.94-3.88,4-11.34,8.41-11.19,2.92.64,2.34,5,.81,7.86"/><path d="M155.87,269.68c-1.3,3-4.81,7.25-9.17,6.64h0c-6.5-2-3.84-13.44,2.35-16.71a5.81,5.81,0,0,1,4-.69c4.6,1.37,4.45,7.13,2.87,10.77"/><path d="M262.21,816.23c1.38.86,1.87,1.46,1.31,1.61-2,.54-12-3.9-11.28-5,.18-.28,1-.17,1.44-.1h0a30.35,30.35,0,0,1,8.48,3.47"/><path d="M367.77,31.75c-.46,2.86-2,4.69-3,3.48-1.38-1.71.18-8,2-8.23,1,.06,1.31,2.6,1,4.75"/><path d="M374.76,8c1,2.07,1.05,3,.71,2.84-.72-.27-2.8-5.9-2.61-6.17A27.85,27.85,0,0,1,374.76,8"/><path d="M75.75,444.84c-.47,2.69-2.6,7.51-7.21,6.54h-.06c-7.3-2.71-7.17-16-1.44-18.66a4.8,4.8,0,0,1,3.24-.25c4,1.19,6.46,6.87,5.47,12.39"/><path d="M72,550.53c.18,5.65-4.11,8.74-8.75,4.16-5.71-5.65-5.68-16.15,0-16.06a6.63,6.63,0,0,1,1.26.21h.08c4.89,1.85,7.26,7.94,7.37,11.67"/><path d="M313.56,832.35c-.62-.09-.94-.14-1-.17a3.36,3.36,0,0,1,.83.07c2,.27,4,.6,6,.85l-5.84-.75"/><path d="M126.45,304.63c-1,2.76-4,7.22-8.62,6.48h0c-6.85-2.21-3.86-13.52,1.58-16.59a5.41,5.41,0,0,1,4-.69c4.38,1.43,4.46,7.19,3.12,10.82"/><path d="M317.79,84.73c-.87,1.76-3.24,5.09-6,5.1h0c-3.89-.73-.64-8.26,3.06-10.76a4,4,0,0,1,2.44-.82c2.51.48,1.67,4.23.56,6.49"/><path d="M155,741.3c1.41,2.23,1.37,4.16-1.45,3.51h0c-5.51-1.67-12.24-9.07-9.6-10.56a3,3,0,0,1,2,0h0c4.16,1.24,7.8,5,9.12,7.11"/><path d="M119.2,696.07c1.42,3.35,0,5.21-3,4.06-5.5-2.07-11.21-10.78-8.16-12.43a3.33,3.33,0,0,1,2.22-.05h0c4.28,1.41,7.78,5.77,8.91,8.41"/><path d="M336.55,60.9c-.77,1.52-2.61,4.12-4.63,4.17h0c-3.09-.56-.27-6.88,2.79-9.11a2.75,2.75,0,0,1,1.76-.7h0c1.8.34,1.1,3.56.06,5.64"/><path d="M98.63,340.07c-2.3,6.65-8.55,8.33-11,2.95-2.55-5.67,1.74-15,7.77-13.83,3.37,1,4.87,6.06,3.2,10.88"/><path d="M87.31,643.48c1,4.21-1.41,5.94-5.11,3.63-5.5-3.44-8.85-12.37-5-13.46a3.46,3.46,0,0,1,1.92.1h0c4.42,1.62,7.45,6.66,8.2,9.72"/><path d="M193.3,778c1.66,1.76,1.77,2.9.28,2.82-3.8-.19-12.26-6.53-10.91-8.17.36-.42,1.26-.24,1.81-.14h0a22,22,0,0,1,8.8,5.48"/><path d="M371.9,14.32c-.06,2.09-.66,3.21-1.1,2.66-.84-1.05-.06-6.08.53-6.11.41.11.6,2.29.57,3.45"/><path d="M297.65,829.59a9.32,9.32,0,0,1,1.73.48c-.89,0-9.2-1.65-9.33-2.11a2.68,2.68,0,0,1,.75.06c1.67.27,5,1.1,6.85,1.57"/><path d="M56.37,481.53c-.32,5.78-4.48,9.05-8.28,4.46-4.77-5.73-3.25-16,2.26-15.31,0,0,.47.09.67.15,4.27,1.68,5.54,7.32,5.35,10.7"/><path d="M60.57,583.4c.33,2.3-.1,6-3.74,5.09h-.07c-6.31-2.49-9-13.48-5-15a3,3,0,0,1,2,0c4,1.58,6.36,6.72,6.8,9.86"/><path d="M233,805.85c1.34.94,1.81,1.58,1.27,1.7a2.72,2.72,0,0,1-1-.08h0c-4.38-1.05-10.57-4.83-9.56-5.48a2.31,2.31,0,0,1,1.19,0,30,30,0,0,1,8.1,3.84"/><path d="M72.5,375.14c-1.63,6.56-7,7.62-9.44,3.37-3-5.26.37-14.71,6.08-13.42,3,1,4.52,5.4,3.36,10.05"/><path d="M352.07,39.33c-1.4,3.12-3.53,4.4-4,3-.73-1.94,2.29-7.18,4.2-7.28h0c1.16.21.54,2.65-.17,4.23"/><path d="M167.89,209.37c-3,5-8.29,6.35-9.27,2.37-1.05-4.23,4-11.49,8.62-10.76,3.09,1,2.36,5.54.65,8.39"/><path d="M198.73,178c-3,4.9-8.33,6.51-9.12,2.72-.83-3.95,4.28-10.87,8.63-10.28,2.36.54,2.59,4.07.49,7.56"/><path d="M229.16,148c-3,4.59-7.84,6-8.43,2.44-.67-4,4.62-10.1,8.44-9.68h0c2.77.78,1.65,4.7,0,7.24"/><path d="M258,119.87c-.31.45-3.11,4.34-6.24,4h0c-3.44-.94-.36-7.44,3.88-10a4.28,4.28,0,0,1,2.82-.81h0c2.4.71,1.15,4.45-.45,6.75"/><path d="M40.75,517.53c0,2.12-.79,5.87-4.18,4.92h0c-5.5-2.41-6.56-13-2.63-14.41a2.57,2.57,0,0,1,1.74,0c3.24,1.47,5,6.44,5.09,9.46"/><path d="M272.39,823.71a10.27,10.27,0,0,1,1.84.74c-.45.31-8.49-2.13-9.06-2.74l0-.06a2.23,2.23,0,0,1,.63.07h0a68,68,0,0,1,6.52,2"/><path d="M285.34,93.05c-2.49,3.5-6,4.92-6.5,2.63-.7-3.26,4.47-8.65,7.13-8.31,2.13.51.74,3.75-.63,5.68"/><path d="M371.8,2.51v.05a.28.28,0,0,1,0-.09h0v0"/><path d="M120.9,720.15c1.27,2.15,1,3.29-.7,2.93l-.38-.1h0c-5.08-1.83-10-8.71-7.66-9.53a2.1,2.1,0,0,1,1.21.06h0c3.13,1.14,6.28,4.57,7.51,6.64"/><path d="M136.73,241.58c-1.12,2.18-4,5.43-7.06,4.89h0c-4.38-1.71-1.45-10.31,3.17-12.51a4,4,0,0,1,2.76-.36c2.49.71,3,4.37,1.17,8"/><path d="M363.46,20.9c-.9,2.13-2,3-2.26,2.23C360.85,22,363,17.78,364,17.65c.55.17-.05,2.2-.49,3.25"/><path d="M49.29,411.45c-.86,4.58-4.74,7.24-7.37,3.6-3.33-4.62-1-13.36,3.37-12.81a5,5,0,0,1,.61.14c3.25,1.41,3.94,6.15,3.39,9.07"/><path d="M84.94,671c1.19,2.88.23,4.38-2.14,3.33-4.33-1.91-8.79-9.7-6.11-10.69a2.14,2.14,0,0,1,1.41.09c3.14,1.25,5.93,5.07,6.84,7.27"/><path d="M160.47,761c1.26,1.49,1.35,2.42.21,2.32-3.18-.29-10.54-6.57-8.94-7.64.3-.2.87-.06,1.21,0a20.08,20.08,0,0,1,7.52,5.3"/><path d="M310,68.65c-2.08,2.9-5.07,4.33-5.43,2.59-.44-2.13,3.59-7.32,6.16-7.21,1.4.19.75,2.54-.73,4.62"/><path d="M106.52,274.75c-2.23,4.75-6.74,6.21-8.18,2.65-1.72-4.27,2.34-11.71,6.93-10.7h.08c3.27,1.35,2.19,5.85,1.17,8"/><path d="M54.12,614.5c.78,3-.4,5.24-3,3.6-4.06-2.52-7-10.34-4.13-11.16a2.39,2.39,0,0,1,1.4.14c2.5.95,5,4.68,5.76,7.42"/><path d="M201.79,792.67c1.35,1,1.85,1.71,1.26,1.78-1.86.2-9.82-4.62-9-5.43.15-.15.62,0,.9,0a26.76,26.76,0,0,1,6.8,3.63"/><path d="M77.23,309.08c-2,4.57-5.76,5-7.06,2-1.81-4.22,2-10.81,5.81-9.94,2.47,1.08,2.57,4.9,1.25,8"/><path d="M331.89,46.41c-.68,1-2.32,2.78-3.58,2.78h0c-1.69-.38,1.06-4.4,3.27-5.86a2,2,0,0,1,1.21-.47c.9.25.07,2.23-.88,3.56"/><path d="M29.08,447.52c-.55,3.93-3.23,5.35-5.3,2.8-3.29-4.05-1.65-11.28,1.6-11.21a2.73,2.73,0,0,1,.69.14c2.11.87,3.51,4.73,3,8.27"/><path d="M370.65,5.84a5,5,0,0,1-.82,1.81h0c-.2-.54,1.42-3.8,1.44-3.81,0,.15-.6,2-.6,2"/><path d="M244.87,815.46c1.29.58,1.37.71,1.41.76-.46.26-7.63-2.51-7.76-3,.1,0,.15-.05.55,0a45.25,45.25,0,0,1,5.8,2.2"/><path d="M29.67,551.76c.4,3.23-1.07,4.86-3.1,3.41-3.48-2.5-5-10.23-2.07-10.6a2.38,2.38,0,0,1,.95.14h.05c2.77,1.32,3.94,5.17,4.17,7"/><path d="M50.8,342.76c-.51,1.63-2,4.24-4.23,3.68h0c-3.46-1.66-1.85-9,1.33-10.08a2.18,2.18,0,0,1,1.49,0c2.39,1.12,2,4.67,1.46,6.4"/><path d="M349.86,27.46c-.5.67-1.65,2-2.34,2h0c-.93-.28,1.67-3.76,3-4.41a.75.75,0,0,1,.34-.1c.52.14-.27,1.55-1,2.52"/><path d="M126.76,740.86c.88,1.11,1,1.9.32,1.85-1.87-.16-7.33-5.31-6.34-6,.19-.13.59,0,.83.06a15.6,15.6,0,0,1,5.19,4.08"/><path d="M86.75,695.57c1,1.69,1,2.75-.11,2.47-2.51-.64-6.92-6.29-5.55-7.1A1.18,1.18,0,0,1,82,691a11.89,11.89,0,0,1,4.74,4.57"/><path d="M51.89,643c.82,2.15.12,2.78-1,2.28-3-1.37-5.53-7-4-7.54a1.18,1.18,0,0,1,.8.1c1.74.84,3.44,3.28,4.16,5.16"/><path d="M187.4,153.79c-2.17,2.8-4.78,3.15-5,1.27-.28-2.67,3.73-6.42,5.66-5.94,1.44.52.79,2.78-.67,4.67"/><path d="M219.45,125.89c-2,2.51-4.66,3.43-4.88,1.69-.28-2.09,3.17-6,5.55-5.74h0c1.48.48.4,2.68-.69,4"/><path d="M170.05,777.42c.83.71,1.15,1.18.84,1.24-1.07.19-6.76-3.64-6.49-4.36.06-.14.35-.08.59,0a20.2,20.2,0,0,1,5.06,3.12"/><path d="M251.06,99.38c-1.92,2.33-4.56,3.37-4.7,1.86-.19-2,3.59-5.74,5.39-5.39,1.21.37.33,2.29-.69,3.53"/><path d="M13.38,483.46c-.09,2.27-1.58,4.31-3.19,2.46-2.28-2.65-2.14-8.56.2-8.33a2.22,2.22,0,0,1,.49.13c1.74.94,2.57,3.94,2.5,5.74"/><path d="M154.63,183.12c-1.8,2.53-4.59,3.32-5,1.4-.43-2.19,2.88-6.47,5.25-6,1.19.38,1,2.75-.29,4.61"/><path d="M215.45,804.67a3.56,3.56,0,0,1,1.1.72c-.37.18-5.42-2.16-5.69-2.63,0,0,.06-.06.39,0a30.4,30.4,0,0,1,4.2,1.87"/><path d="M122.53,213.27c-1.67,2.75-4.11,3.15-4.56,1.35-.6-2.35,2.53-6.2,4.64-5.72h0c1.23.57.91,2.66-.12,4.36"/><path d="M364.23,11.51c-.83,1.08-1.19,1.29-1.23,1.16a7.41,7.41,0,0,1,2.21-2.74h0a5.93,5.93,0,0,1-1,1.57"/><path d="M23.16,583.25c.46,2-.13,3.07-1.33,2.33-2.27-1.4-4-6.59-2.43-7.11a1.07,1.07,0,0,1,.76.1c1.72.91,2.69,3.37,3,4.68"/><path d="M26.9,377.57c-.81,2.88-2.86,3.17-3.86,1.29-1.47-2.79.38-7.58,2.64-6.83l0,0c1.47.79,1.76,3.48,1.18,5.52"/><path d="M279.9,75.42c-1.44,1.56-3.37,2.52-3.44,1.4-.1-1.37,2.78-4.43,4.41-4.27.79.16.36,1.42-1,2.87"/><path d="M91.79,245.12c-.91.57-1.77,1.23-2.72,1.75a2.36,2.36,0,0,1-1.16.38c-.86-.05-1.06-1.26-.82-2.43.38-1.8,2.21-4.36,3.66-4a1.3,1.3,0,0,1,.73.93c.34,1,.39,2.11.65,3.15l-.34.2"/><path d="M307.64,52.89a8,8,0,0,1-1,.85c-.8.59-1.64,1.12-2.45,1.69,1.3-2.54,1.3-2.54,1.7-3a4.23,4.23,0,0,1,2.48-1.54c.49.1.34.87-.74,2"/><path d="M331.9,33.65a15.76,15.76,0,0,1-1.62,1c-.19.09-.3.12-.23-.13a2.15,2.15,0,0,1,.46-.78,7.89,7.89,0,0,1,1.87-1.33c.06,0,.07.09,0,.38s-.16.53-.26.79c0,.05-.13.07-.18.1"/><path d="M6.59,412.14c-.4,2.5-1.91,2-2.22,1.57a4,4,0,0,1-.46-2.52c.13-.74.27-1,1.37-2.86a5.08,5.08,0,0,1,1.31,3.81"/><path d="M62,276.82c-.68.46-1.3,1-2,1.44a1.81,1.81,0,0,1-.88.33c-.4,0-.7-1.44-.6-2.07s1.83-2.88,2.5-2.65c.09.05.21.12.37.47.34.74.55,1.54.89,2.29l-.28.19"/><path d="M2.33,517.9c0,.66-.5,2.25-1.42,1.36-.19-.19-.82-1-.91-3a17.64,17.64,0,0,1,.65-3.36c.45,1.26,1,2.49,1.41,3.76a4.71,4.71,0,0,1,.27,1.25"/><path d="M95,719.3l-.34,0-2.46-2.6.38-.11,2.46,2.69h0"/></g></g></g></g></svg>