<svg xmlns="http://www.w3.org/2000/svg" viewBox="0 0 689.61 954.68"><g id="Calque_2" data-name="Calque 2"><g id="Calque_4" data-name="Calque 4"><path d="M676.14,159.47a13.47,13.47,0,1,1,11.31-20.76,163.74,163.74,0,0,0-5.94-24.53,13.47,13.47,0,1,1-10.4-24.84A165.84,165.84,0,0,0,643.7,51.06a13.49,13.49,0,1,1-5.15-5.15,165.5,165.5,0,0,0-38.28-27.4A13.47,13.47,0,1,1,575.43,8.1a163.91,163.91,0,0,0-24.52-5.94A13.47,13.47,0,1,1,539.35.7Q531.85,0,524.19,0H499.43A13.47,13.47,0,1,1,486,13.47,13.47,13.47,0,0,1,499.43,0H455.25a13.47,13.47,0,1,1-13.47,13.47A13.47,13.47,0,0,1,455.25,0H411.07A13.47,13.47,0,1,1,397.6,13.47,13.47,13.47,0,0,1,411.07,0H366.89a13.47,13.47,0,1,1-13.46,13.47A13.47,13.47,0,0,1,366.89,0H322.72a13.47,13.47,0,1,1-13.47,13.47A13.47,13.47,0,0,1,322.72,0H278.54a13.47,13.47,0,1,1-13.47,13.47A13.47,13.47,0,0,1,278.54,0H234.36a13.47,13.47,0,1,1-13.47,13.47A13.47,13.47,0,0,1,234.36,0H190.18a13.47,13.47,0,1,1-13.47,13.47A13.47,13.47,0,0,1,190.18,0H165.42q-7.66,0-15.16.7a13.48,13.48,0,1,1-11.55,1.46A163.74,163.74,0,0,0,114.18,8.1,13.47,13.47,0,1,1,89.34,18.51a165.5,165.5,0,0,0-38.28,27.4,13.49,13.49,0,1,1-5.15,5.15,165.5,165.5,0,0,0-27.4,38.28A13.47,13.47,0,1,1,8.1,114.18a163.74,163.74,0,0,0-5.94,24.53A13.46,13.46,0,1,1,.7,150.26Q0,157.76,0,165.42v24.76a13.47,13.47,0,1,1,13.47,13.47A13.47,13.47,0,0,1,0,190.18v44.18a13.47,13.47,0,1,1,13.47,13.47A13.47,13.47,0,0,1,0,234.36v44.18A13.47,13.47,0,1,1,13.47,292,13.47,13.47,0,0,1,0,278.54v44.18a13.47,13.47,0,1,1,13.47,13.47A13.47,13.47,0,0,1,0,322.72v44.17a13.47,13.47,0,1,1,13.47,13.47A13.47,13.47,0,0,1,0,366.89v44.18a13.47,13.47,0,1,1,13.47,13.47A13.47,13.47,0,0,1,0,411.07v44.18a13.47,13.47,0,1,1,13.47,13.47A13.47,13.47,0,0,1,0,455.25v44.18A13.47,13.47,0,1,1,13.47,512.9,13.47,13.47,0,0,1,0,499.43v44.18a13.47,13.47,0,1,1,13.47,13.47A13.47,13.47,0,0,1,0,543.61v44.18a13.47,13.47,0,1,1,13.47,13.46A13.47,13.47,0,0,1,0,587.79V632a13.47,13.47,0,1,1,13.47,13.47A13.47,13.47,0,0,1,0,632v44.18a13.47,13.47,0,1,1,13.47,13.47A13.47,13.47,0,0,1,0,676.14v44.18a13.47,13.47,0,1,1,13.47,13.47A13.47,13.47,0,0,1,0,720.32V764.5A13.47,13.47,0,1,1,13.47,778,13.47,13.47,0,0,1,0,764.5v24.76q0,7.66.7,15.16A13.48,13.48,0,1,1,2.16,816,163.74,163.74,0,0,0,8.1,840.5a13.47,13.47,0,1,1,10.41,24.84,165.5,165.5,0,0,0,27.4,38.28,13.49,13.49,0,1,1,5.15,5.15,165.5,165.5,0,0,0,38.28,27.4,13.47,13.47,0,1,1,24.84,10.41,163.74,163.74,0,0,0,24.53,5.94A13.46,13.46,0,1,1,150.26,954q7.5.69,15.16.7h24.76a13.47,13.47,0,1,1,13.47-13.47,13.47,13.47,0,0,1-13.47,13.47h44.18a13.47,13.47,0,1,1,13.47-13.47,13.47,13.47,0,0,1-13.47,13.47h44.18A13.47,13.47,0,1,1,292,941.21a13.47,13.47,0,0,1-13.47,13.47h44.18a13.47,13.47,0,1,1,13.47-13.47,13.47,13.47,0,0,1-13.47,13.47h44.17a13.47,13.47,0,1,1,13.47-13.47,13.47,13.47,0,0,1-13.47,13.47h44.18a13.47,13.47,0,1,1,13.47-13.47,13.47,13.47,0,0,1-13.47,13.47h44.18a13.47,13.47,0,1,1,13.47-13.47,13.47,13.47,0,0,1-13.47,13.47h44.18a13.47,13.47,0,1,1,13.47-13.47,13.47,13.47,0,0,1-13.47,13.47h24.76q7.66,0,15.16-.7a13.47,13.47,0,1,1,11.56-1.46,163.91,163.91,0,0,0,24.52-5.94,13.47,13.47,0,1,1,24.84-10.41,165.5,165.5,0,0,0,38.28-27.4,13.49,13.49,0,1,1,5.15-5.15,165.84,165.84,0,0,0,27.41-38.28,13.47,13.47,0,1,1,10.4-24.84A163.74,163.74,0,0,0,687.45,816a13.46,13.46,0,1,1,1.46-11.55q.69-7.5.7-15.16V764.5A13.47,13.47,0,1,1,676.14,751a13.47,13.47,0,0,1,13.47,13.47V720.32a13.47,13.47,0,1,1-13.47-13.47,13.47,13.47,0,0,1,13.47,13.47V676.14a13.47,13.47,0,1,1-13.47-13.47,13.47,13.47,0,0,1,13.47,13.47V632a13.47,13.47,0,1,1-13.47-13.46A13.47,13.47,0,0,1,689.61,632V587.79a13.47,13.47,0,1,1-13.47-13.47,13.47,13.47,0,0,1,13.47,13.47V543.61a13.47,13.47,0,1,1-13.47-13.47,13.47,13.47,0,0,1,13.47,13.47V499.43A13.47,13.47,0,1,1,676.14,486a13.47,13.47,0,0,1,13.47,13.47V455.25a13.47,13.47,0,1,1-13.47-13.47,13.47,13.47,0,0,1,13.47,13.47V411.07a13.47,13.47,0,1,1-13.47-13.47,13.47,13.47,0,0,1,13.47,13.47V366.89a13.47,13.47,0,1,1-13.47-13.46,13.47,13.47,0,0,1,13.47,13.46V322.72a13.47,13.47,0,1,1-13.47-13.47,13.47,13.47,0,0,1,13.47,13.47V278.54a13.47,13.47,0,1,1-13.47-13.47,13.47,13.47,0,0,1,13.47,13.47V234.36a13.47,13.47,0,1,1-13.47-13.47,13.47,13.47,0,0,1,13.47,13.47V190.18a13.47,13.47,0,1,1-13.47-13.47,13.47,13.47,0,0,1,13.47,13.47V165.42q0-7.66-.7-15.16A13.46,13.46,0,0,1,676.14,159.47ZM57.65,866.32a13.47,13.47,0,1,1,13.47-13.46A13.47,13.47,0,0,1,57.65,866.32Zm0-44.17a13.47,13.47,0,1,1,13.47-13.47A13.47,13.47,0,0,1,57.65,822.15Zm0-44.18A13.47,13.47,0,1,1,71.12,764.5,13.47,13.47,0,0,1,57.65,778Zm0-44.18a13.47,13.47,0,1,1,13.47-13.47A13.47,13.47,0,0,1,57.65,733.79Zm0-44.18a13.47,13.47,0,1,1,13.47-13.47A13.47,13.47,0,0,1,57.65,689.61Zm0-44.18A13.47,13.47,0,1,1,71.12,632,13.47,13.47,0,0,1,57.65,645.43Zm0-44.18a13.47,13.47,0,1,1,13.47-13.46A13.47,13.47,0,0,1,57.65,601.25Zm0-44.17a13.47,13.47,0,1,1,13.47-13.47A13.47,13.47,0,0,1,57.65,557.08Zm0-44.18a13.47,13.47,0,1,1,13.47-13.47A13.47,13.47,0,0,1,57.65,512.9Zm0-44.18a13.47,13.47,0,1,1,13.47-13.47A13.47,13.47,0,0,1,57.65,468.72Zm0-44.18a13.47,13.47,0,1,1,13.47-13.47A13.47,13.47,0,0,1,57.65,424.54Zm0-44.18a13.47,13.47,0,1,1,13.47-13.47A13.47,13.47,0,0,1,57.65,380.36Zm0-44.17a13.47,13.47,0,1,1,13.47-13.47A13.47,13.47,0,0,1,57.65,336.19Zm0-44.18a13.47,13.47,0,1,1,13.47-13.47A13.47,13.47,0,0,1,57.65,292Zm0-44.18a13.47,13.47,0,1,1,13.47-13.47A13.47,13.47,0,0,1,57.65,247.83Zm0-44.18a13.47,13.47,0,1,1,13.47-13.47A13.47,13.47,0,0,1,57.65,203.65Zm0-44.18A13.47,13.47,0,1,1,71.12,146,13.47,13.47,0,0,1,57.65,159.47Zm0-44.18a13.47,13.47,0,1,1,13.47-13.46A13.47,13.47,0,0,1,57.65,115.29ZM101.83,910.5A13.47,13.47,0,1,1,115.29,897,13.47,13.47,0,0,1,101.83,910.5Zm0-44.18a13.47,13.47,0,1,1,13.46-13.46A13.47,13.47,0,0,1,101.83,866.32Zm0-44.17a13.47,13.47,0,1,1,13.46-13.47A13.47,13.47,0,0,1,101.83,822.15Zm0-44.18a13.47,13.47,0,1,1,13.46-13.47A13.47,13.47,0,0,1,101.83,778Zm0-44.18a13.47,13.47,0,1,1,13.46-13.47A13.47,13.47,0,0,1,101.83,733.79Zm0-44.18a13.47,13.47,0,1,1,13.46-13.47A13.47,13.47,0,0,1,101.83,689.61Zm0-44.18A13.47,13.47,0,1,1,115.29,632,13.47,13.47,0,0,1,101.83,645.43Zm0-44.18a13.47,13.47,0,1,1,13.46-13.46A13.47,13.47,0,0,1,101.83,601.25Zm0-44.17a13.47,13.47,0,1,1,13.46-13.47A13.47,13.47,0,0,1,101.83,557.08Zm0-44.18a13.47,13.47,0,1,1,13.46-13.47A13.47,13.47,0,0,1,101.83,512.9Zm0-44.18a13.47,13.47,0,1,1,13.46-13.47A13.47,13.47,0,0,1,101.83,468.72Zm0-44.18a13.47,13.47,0,1,1,13.46-13.47A13.47,13.47,0,0,1,101.83,424.54Zm0-44.18a13.47,13.47,0,1,1,13.46-13.47A13.47,13.47,0,0,1,101.83,380.36Zm0-44.17a13.47,13.47,0,1,1,13.46-13.47A13.47,13.47,0,0,1,101.83,336.19Zm0-44.18a13.47,13.47,0,1,1,13.46-13.47A13.47,13.47,0,0,1,101.83,292Zm0-44.18a13.47,13.47,0,1,1,13.46-13.47A13.47,13.47,0,0,1,101.83,247.83Zm0-44.18a13.47,13.47,0,1,1,13.46-13.47A13.47,13.47,0,0,1,101.83,203.65Zm0-44.18A13.47,13.47,0,1,1,115.29,146,13.47,13.47,0,0,1,101.83,159.47Zm0-44.18a13.47,13.47,0,1,1,13.46-13.46A13.47,13.47,0,0,1,101.83,115.29Zm0-44.17a13.47,13.47,0,1,1,13.46-13.47A13.47,13.47,0,0,1,101.83,71.12ZM146,910.5A13.47,13.47,0,1,1,159.47,897,13.47,13.47,0,0,1,146,910.5Zm0-44.18a13.47,13.47,0,1,1,13.47-13.46A13.47,13.47,0,0,1,146,866.32Zm0-44.17a13.47,13.47,0,1,1,13.47-13.47A13.47,13.47,0,0,1,146,822.15ZM146,778a13.47,13.47,0,1,1,13.47-13.47A13.47,13.47,0,0,1,146,778Zm0-44.18a13.47,13.47,0,1,1,13.47-13.47A13.47,13.47,0,0,1,146,733.79Zm0-44.18a13.47,13.47,0,1,1,13.47-13.47A13.47,13.47,0,0,1,146,689.61Zm0-44.18A13.47,13.47,0,1,1,159.47,632,13.47,13.47,0,0,1,146,645.43Zm0-44.18a13.47,13.47,0,1,1,13.47-13.46A13.47,13.47,0,0,1,146,601.25Zm0-44.17a13.47,13.47,0,1,1,13.47-13.47A13.47,13.47,0,0,1,146,557.08Zm0-44.18a13.47,13.47,0,1,1,13.47-13.47A13.47,13.47,0,0,1,146,512.9Zm0-44.18a13.47,13.47,0,1,1,13.47-13.47A13.47,13.47,0,0,1,146,468.72Zm0-44.18a13.47,13.47,0,1,1,13.47-13.47A13.47,13.47,0,0,1,146,424.54Zm0-44.18a13.47,13.47,0,1,1,13.47-13.47A13.47,13.47,0,0,1,146,380.36Zm0-44.17a13.47,13.47,0,1,1,13.47-13.47A13.47,13.47,0,0,1,146,336.19ZM146,292a13.47,13.47,0,1,1,13.47-13.47A13.47,13.47,0,0,1,146,292Zm0-44.18a13.47,13.47,0,1,1,13.47-13.47A13.47,13.47,0,0,1,146,247.83Zm0-44.18a13.47,13.47,0,1,1,13.47-13.47A13.47,13.47,0,0,1,146,203.65Zm0-44.18A13.47,13.47,0,1,1,159.47,146,13.47,13.47,0,0,1,146,159.47Zm0-44.18a13.47,13.47,0,1,1,13.47-13.46A13.47,13.47,0,0,1,146,115.29Zm0-44.17a13.47,13.47,0,1,1,13.47-13.47A13.47,13.47,0,0,1,146,71.12ZM190.18,910.5A13.47,13.47,0,1,1,203.65,897,13.47,13.47,0,0,1,190.18,910.5Zm0-44.18a13.47,13.47,0,1,1,13.47-13.46A13.47,13.47,0,0,1,190.18,866.32Zm0-44.17a13.47,13.47,0,1,1,13.47-13.47A13.47,13.47,0,0,1,190.18,822.15Zm0-44.18a13.47,13.47,0,1,1,13.47-13.47A13.47,13.47,0,0,1,190.18,778Zm0-44.18a13.47,13.47,0,1,1,13.47-13.47A13.47,13.47,0,0,1,190.18,733.79Zm0-44.18a13.47,13.47,0,1,1,13.47-13.47A13.47,13.47,0,0,1,190.18,689.61Zm0-44.18A13.47,13.47,0,1,1,203.65,632,13.47,13.47,0,0,1,190.18,645.43Zm0-44.18a13.47,13.47,0,1,1,13.47-13.46A13.47,13.47,0,0,1,190.18,601.25Zm0-44.17a13.47,13.47,0,1,1,13.47-13.47A13.47,13.47,0,0,1,190.18,557.08Zm0-44.18a13.47,13.47,0,1,1,13.47-13.47A13.47,13.47,0,0,1,190.18,512.9Zm0-44.18a13.47,13.47,0,1,1,13.47-13.47A13.47,13.47,0,0,1,190.18,468.72Zm0-44.18a13.47,13.47,0,1,1,13.47-13.47A13.47,13.47,0,0,1,190.18,424.54Zm0-44.18a13.47,13.47,0,1,1,13.47-13.47A13.47,13.47,0,0,1,190.18,380.36Zm0-44.17a13.47,13.47,0,1,1,13.47-13.47A13.47,13.47,0,0,1,190.18,336.19Zm0-44.18a13.47,13.47,0,1,1,13.47-13.47A13.47,13.47,0,0,1,190.18,292Zm0-44.18a13.47,13.47,0,1,1,13.47-13.47A13.47,13.47,0,0,1,190.18,247.83Zm0-44.18a13.47,13.47,0,1,1,13.47-13.47A13.47,13.47,0,0,1,190.18,203.65Zm0-44.18A13.47,13.47,0,1,1,203.65,146,13.47,13.47,0,0,1,190.18,159.47Zm0-44.18a13.47,13.47,0,1,1,13.47-13.46A13.47,13.47,0,0,1,190.18,115.29Zm0-44.17a13.47,13.47,0,1,1,13.47-13.47A13.47,13.47,0,0,1,190.18,71.12ZM234.36,910.5A13.47,13.47,0,1,1,247.83,897,13.47,13.47,0,0,1,234.36,910.5Zm0-44.18a13.47,13.47,0,1,1,13.47-13.46A13.47,13.47,0,0,1,234.36,866.32Zm0-44.17a13.47,13.47,0,1,1,13.47-13.47A13.47,13.47,0,0,1,234.36,822.15Zm0-44.18a13.47,13.47,0,1,1,13.47-13.47A13.47,13.47,0,0,1,234.36,778Zm0-44.18a13.47,13.47,0,1,1,13.47-13.47A13.47,13.47,0,0,1,234.36,733.79Zm0-44.18a13.47,13.47,0,1,1,13.47-13.47A13.47,13.47,0,0,1,234.36,689.61Zm0-44.18A13.47,13.47,0,1,1,247.83,632,13.47,13.47,0,0,1,234.36,645.43Zm0-44.18a13.47,13.47,0,1,1,13.47-13.46A13.47,13.47,0,0,1,234.36,601.25Zm0-44.17a13.47,13.47,0,1,1,13.47-13.47A13.47,13.47,0,0,1,234.36,557.08Zm0-44.18a13.47,13.47,0,1,1,13.47-13.47A13.47,13.47,0,0,1,234.36,512.9Zm0-44.18a13.47,13.47,0,1,1,13.47-13.47A13.47,13.47,0,0,1,234.36,468.72Zm0-44.18a13.47,13.47,0,1,1,13.47-13.47A13.47,13.47,0,0,1,234.36,424.54Zm0-44.18a13.47,13.47,0,1,1,13.47-13.47A13.47,13.47,0,0,1,234.36,380.36Zm0-44.17a13.47,13.47,0,1,1,13.47-13.47A13.47,13.47,0,0,1,234.36,336.19Zm0-44.18a13.47,13.47,0,1,1,13.47-13.47A13.47,13.47,0,0,1,234.36,292Zm0-44.18a13.47,13.47,0,1,1,13.47-13.47A13.47,13.47,0,0,1,234.36,247.83Zm0-44.18a13.47,13.47,0,1,1,13.47-13.47A13.47,13.47,0,0,1,234.36,203.65Zm0-44.18A13.47,13.47,0,1,1,247.83,146,13.47,13.47,0,0,1,234.36,159.47Zm0-44.18a13.47,13.47,0,1,1,13.47-13.46A13.47,13.47,0,0,1,234.36,115.29Zm0-44.17a13.47,13.47,0,1,1,13.47-13.47A13.47,13.47,0,0,1,234.36,71.12ZM278.54,910.5A13.47,13.47,0,1,1,292,897,13.47,13.47,0,0,1,278.54,910.5Zm0-44.18A13.47,13.47,0,1,1,292,852.86,13.47,13.47,0,0,1,278.54,866.32Zm0-44.17A13.47,13.47,0,1,1,292,808.68,13.47,13.47,0,0,1,278.54,822.15Zm0-44.18A13.47,13.47,0,1,1,292,764.5,13.47,13.47,0,0,1,278.54,778Zm0-44.18A13.47,13.47,0,1,1,292,720.32,13.47,13.47,0,0,1,278.54,733.79Zm0-44.18A13.47,13.47,0,1,1,292,676.14,13.47,13.47,0,0,1,278.54,689.61Zm0-44.18A13.47,13.47,0,1,1,292,632,13.47,13.47,0,0,1,278.54,645.43Zm0-44.18A13.47,13.47,0,1,1,292,587.79,13.47,13.47,0,0,1,278.54,601.25Zm0-44.17A13.47,13.47,0,1,1,292,543.61,13.47,13.47,0,0,1,278.54,557.08Zm0-44.18A13.47,13.47,0,1,1,292,499.43,13.47,13.47,0,0,1,278.54,512.9Zm0-44.18A13.47,13.47,0,1,1,292,455.25,13.47,13.47,0,0,1,278.54,468.72Zm0-44.18A13.47,13.47,0,1,1,292,411.07,13.47,13.47,0,0,1,278.54,424.54Zm0-44.18A13.47,13.47,0,1,1,292,366.89,13.47,13.47,0,0,1,278.54,380.36Zm0-44.17A13.47,13.47,0,1,1,292,322.72,13.47,13.47,0,0,1,278.54,336.19Zm0-44.18A13.47,13.47,0,1,1,292,278.54,13.47,13.47,0,0,1,278.54,292Zm0-44.18A13.47,13.47,0,1,1,292,234.36,13.47,13.47,0,0,1,278.54,247.83Zm0-44.18A13.47,13.47,0,1,1,292,190.18,13.47,13.47,0,0,1,278.54,203.65Zm0-44.18A13.47,13.47,0,1,1,292,146,13.47,13.47,0,0,1,278.54,159.47Zm0-44.18A13.47,13.47,0,1,1,292,101.83,13.47,13.47,0,0,1,278.54,115.29Zm0-44.17A13.47,13.47,0,1,1,292,57.65,13.47,13.47,0,0,1,278.54,71.12ZM322.72,910.5A13.47,13.47,0,1,1,336.19,897,13.47,13.47,0,0,1,322.72,910.5Zm0-44.18a13.47,13.47,0,1,1,13.47-13.46A13.47,13.47,0,0,1,322.72,866.32Zm0-44.17a13.47,13.47,0,1,1,13.47-13.47A13.47,13.47,0,0,1,322.72,822.15Zm0-44.18a13.47,13.47,0,1,1,13.47-13.47A13.47,13.47,0,0,1,322.72,778Zm0-44.18a13.47,13.47,0,1,1,13.47-13.47A13.47,13.47,0,0,1,322.72,733.79Zm0-44.18a13.47,13.47,0,1,1,13.47-13.47A13.47,13.47,0,0,1,322.72,689.61Zm0-44.18A13.47,13.47,0,1,1,336.19,632,13.47,13.47,0,0,1,322.72,645.43Zm0-44.18a13.47,13.47,0,1,1,13.47-13.46A13.47,13.47,0,0,1,322.72,601.25Zm0-44.17a13.47,13.47,0,1,1,13.47-13.47A13.47,13.47,0,0,1,322.72,557.08Zm0-44.18a13.47,13.47,0,1,1,13.47-13.47A13.47,13.47,0,0,1,322.72,512.9Zm0-44.18a13.47,13.47,0,1,1,13.47-13.47A13.47,13.47,0,0,1,322.72,468.72Zm0-44.18a13.47,13.47,0,1,1,13.47-13.47A13.47,13.47,0,0,1,322.72,424.54Zm0-44.18a13.47,13.47,0,1,1,13.47-13.47A13.47,13.47,0,0,1,322.72,380.36Zm0-44.17a13.47,13.47,0,1,1,13.47-13.47A13.47,13.47,0,0,1,322.72,336.19Zm0-44.18a13.47,13.47,0,1,1,13.47-13.47A13.47,13.47,0,0,1,322.72,292Zm0-44.18a13.47,13.47,0,1,1,13.47-13.47A13.47,13.47,0,0,1,322.72,247.83Zm0-44.18a13.47,13.47,0,1,1,13.47-13.47A13.47,13.47,0,0,1,322.72,203.65Zm0-44.18A13.47,13.47,0,1,1,336.19,146,13.47,13.47,0,0,1,322.72,159.47Zm0-44.18a13.47,13.47,0,1,1,13.47-13.46A13.47,13.47,0,0,1,322.72,115.29Zm0-44.17a13.47,13.47,0,1,1,13.47-13.47A13.47,13.47,0,0,1,322.72,71.12ZM366.89,910.5A13.47,13.47,0,1,1,380.36,897,13.47,13.47,0,0,1,366.89,910.5Zm0-44.18a13.47,13.47,0,1,1,13.47-13.46A13.46,13.46,0,0,1,366.89,866.32Zm0-44.17a13.47,13.47,0,1,1,13.47-13.47A13.47,13.47,0,0,1,366.89,822.15Zm0-44.18a13.47,13.47,0,1,1,13.47-13.47A13.47,13.47,0,0,1,366.89,778Zm0-44.18a13.47,13.47,0,1,1,13.47-13.47A13.47,13.47,0,0,1,366.89,733.79Zm0-44.18a13.47,13.47,0,1,1,13.47-13.47A13.47,13.47,0,0,1,366.89,689.61Zm0-44.18A13.47,13.47,0,1,1,380.36,632,13.47,13.47,0,0,1,366.89,645.43Zm0-44.18a13.47,13.47,0,1,1,13.47-13.46A13.46,13.46,0,0,1,366.89,601.25Zm0-44.17a13.47,13.47,0,1,1,13.47-13.47A13.47,13.47,0,0,1,366.89,557.08Zm0-44.18a13.47,13.47,0,1,1,13.47-13.47A13.47,13.47,0,0,1,366.89,512.9Zm0-44.18a13.47,13.47,0,1,1,13.47-13.47A13.47,13.47,0,0,1,366.89,468.72Zm0-44.18a13.47,13.47,0,1,1,13.47-13.47A13.47,13.47,0,0,1,366.89,424.54Zm0-44.18a13.47,13.47,0,1,1,13.47-13.47A13.47,13.47,0,0,1,366.89,380.36Zm0-44.17a13.47,13.47,0,1,1,13.47-13.47A13.47,13.47,0,0,1,366.89,336.19Zm0-44.18a13.47,13.47,0,1,1,13.47-13.47A13.47,13.47,0,0,1,366.89,292Zm0-44.18a13.47,13.47,0,1,1,13.47-13.47A13.47,13.47,0,0,1,366.89,247.83Zm0-44.18a13.47,13.47,0,1,1,13.47-13.47A13.47,13.47,0,0,1,366.89,203.65Zm0-44.18A13.47,13.47,0,1,1,380.36,146,13.47,13.47,0,0,1,366.89,159.47Zm0-44.18a13.47,13.47,0,1,1,13.47-13.46A13.46,13.46,0,0,1,366.89,115.29Zm0-44.17a13.47,13.47,0,1,1,13.47-13.47A13.47,13.47,0,0,1,366.89,71.12ZM411.07,910.5A13.47,13.47,0,1,1,424.54,897,13.47,13.47,0,0,1,411.07,910.5Zm0-44.18a13.47,13.47,0,1,1,13.47-13.46A13.47,13.47,0,0,1,411.07,866.32Zm0-44.17a13.47,13.47,0,1,1,13.47-13.47A13.47,13.47,0,0,1,411.07,822.15Zm0-44.18a13.47,13.47,0,1,1,13.47-13.47A13.47,13.47,0,0,1,411.07,778Zm0-44.18a13.47,13.47,0,1,1,13.47-13.47A13.47,13.47,0,0,1,411.07,733.79Zm0-44.18a13.47,13.47,0,1,1,13.47-13.47A13.47,13.47,0,0,1,411.07,689.61Zm0-44.18A13.47,13.47,0,1,1,424.54,632,13.47,13.47,0,0,1,411.07,645.43Zm0-44.18a13.47,13.47,0,1,1,13.47-13.46A13.47,13.47,0,0,1,411.07,601.25Zm0-44.17a13.47,13.47,0,1,1,13.47-13.47A13.47,13.47,0,0,1,411.07,557.08Zm0-44.18a13.47,13.47,0,1,1,13.47-13.47A13.47,13.47,0,0,1,411.07,512.9Zm0-44.18a13.47,13.47,0,1,1,13.47-13.47A13.47,13.47,0,0,1,411.07,468.72Zm0-44.18a13.47,13.47,0,1,1,13.47-13.47A13.47,13.47,0,0,1,411.07,424.54Zm0-44.18a13.47,13.47,0,1,1,13.47-13.47A13.47,13.47,0,0,1,411.07,380.36Zm0-44.17a13.47,13.47,0,1,1,13.47-13.47A13.47,13.47,0,0,1,411.07,336.19Zm0-44.18a13.47,13.47,0,1,1,13.47-13.47A13.47,13.47,0,0,1,411.07,292Zm0-44.18a13.47,13.47,0,1,1,13.47-13.47A13.47,13.47,0,0,1,411.07,247.83Zm0-44.18a13.47,13.47,0,1,1,13.47-13.47A13.47,13.47,0,0,1,411.07,203.65Zm0-44.18A13.47,13.47,0,1,1,424.54,146,13.47,13.47,0,0,1,411.07,159.47Zm0-44.18a13.47,13.47,0,1,1,13.47-13.46A13.47,13.47,0,0,1,411.07,115.29Zm0-44.17a13.47,13.47,0,1,1,13.47-13.47A13.47,13.47,0,0,1,411.07,71.12ZM455.25,910.5A13.47,13.47,0,1,1,468.72,897,13.47,13.47,0,0,1,455.25,910.5Zm0-44.18a13.47,13.47,0,1,1,13.47-13.46A13.47,13.47,0,0,1,455.25,866.32Zm0-44.17a13.47,13.47,0,1,1,13.47-13.47A13.47,13.47,0,0,1,455.25,822.15Zm0-44.18a13.47,13.47,0,1,1,13.47-13.47A13.47,13.47,0,0,1,455.25,778Zm0-44.18a13.47,13.47,0,1,1,13.47-13.47A13.47,13.47,0,0,1,455.25,733.79Zm0-44.18a13.47,13.47,0,1,1,13.47-13.47A13.47,13.47,0,0,1,455.25,689.61Zm0-44.18A13.47,13.47,0,1,1,468.72,632,13.47,13.47,0,0,1,455.25,645.43Zm0-44.18a13.47,13.47,0,1,1,13.47-13.46A13.47,13.47,0,0,1,455.25,601.25Zm0-44.17a13.47,13.47,0,1,1,13.47-13.47A13.47,13.47,0,0,1,455.25,557.08Zm0-44.18a13.47,13.47,0,1,1,13.47-13.47A13.47,13.47,0,0,1,455.25,512.9Zm0-44.18a13.47,13.47,0,1,1,13.47-13.47A13.47,13.47,0,0,1,455.25,468.72Zm0-44.18a13.47,13.47,0,1,1,13.47-13.47A13.47,13.47,0,0,1,455.25,424.54Zm0-44.18a13.47,13.47,0,1,1,13.47-13.47A13.47,13.47,0,0,1,455.25,380.36Zm0-44.17a13.47,13.47,0,1,1,13.47-13.47A13.47,13.47,0,0,1,455.25,336.19Zm0-44.18a13.47,13.47,0,1,1,13.47-13.47A13.47,13.47,0,0,1,455.25,292Zm0-44.18a13.47,13.47,0,1,1,13.47-13.47A13.47,13.47,0,0,1,455.25,247.83Zm0-44.18a13.47,13.47,0,1,1,13.47-13.47A13.47,13.47,0,0,1,455.25,203.65Zm0-44.18A13.47,13.47,0,1,1,468.72,146,13.47,13.47,0,0,1,455.25,159.47Zm0-44.18a13.47,13.47,0,1,1,13.47-13.46A13.47,13.47,0,0,1,455.25,115.29Zm0-44.17a13.47,13.47,0,1,1,13.47-13.47A13.47,13.47,0,0,1,455.25,71.12ZM499.43,910.5A13.47,13.47,0,1,1,512.9,897,13.47,13.47,0,0,1,499.43,910.5Zm0-44.18a13.47,13.47,0,1,1,13.47-13.46A13.47,13.47,0,0,1,499.43,866.32Zm0-44.17a13.47,13.47,0,1,1,13.47-13.47A13.47,13.47,0,0,1,499.43,822.15Zm0-44.18A13.47,13.47,0,1,1,512.9,764.5,13.47,13.47,0,0,1,499.43,778Zm0-44.18a13.47,13.47,0,1,1,13.47-13.47A13.47,13.47,0,0,1,499.43,733.79Zm0-44.18a13.47,13.47,0,1,1,13.47-13.47A13.47,13.47,0,0,1,499.43,689.61Zm0-44.18A13.47,13.47,0,1,1,512.9,632,13.47,13.47,0,0,1,499.43,645.43Zm0-44.18a13.47,13.47,0,1,1,13.47-13.46A13.47,13.47,0,0,1,499.43,601.25Zm0-44.17a13.47,13.47,0,1,1,13.47-13.47A13.47,13.47,0,0,1,499.43,557.08Zm0-44.18a13.47,13.47,0,1,1,13.47-13.47A13.47,13.47,0,0,1,499.43,512.9Zm0-44.18a13.47,13.47,0,1,1,13.47-13.47A13.47,13.47,0,0,1,499.43,468.72Zm0-44.18a13.47,13.47,0,1,1,13.47-13.47A13.47,13.47,0,0,1,499.43,424.54Zm0-44.18a13.47,13.47,0,1,1,13.47-13.47A13.47,13.47,0,0,1,499.43,380.36Zm0-44.17a13.47,13.47,0,1,1,13.47-13.47A13.47,13.47,0,0,1,499.43,336.19Zm0-44.18a13.47,13.47,0,1,1,13.47-13.47A13.47,13.47,0,0,1,499.43,292Zm0-44.18a13.47,13.47,0,1,1,13.47-13.47A13.47,13.47,0,0,1,499.43,247.83Zm0-44.18a13.47,13.47,0,1,1,13.47-13.47A13.47,13.47,0,0,1,499.43,203.65Zm0-44.18A13.47,13.47,0,1,1,512.9,146,13.47,13.47,0,0,1,499.43,159.47Zm0-44.18a13.47,13.47,0,1,1,13.47-13.46A13.47,13.47,0,0,1,499.43,115.29Zm0-44.17A13.47,13.47,0,1,1,512.9,57.65,13.47,13.47,0,0,1,499.43,71.12ZM543.61,910.5A13.47,13.47,0,1,1,557.08,897,13.47,13.47,0,0,1,543.61,910.5Zm0-44.18a13.47,13.47,0,1,1,13.47-13.46A13.47,13.47,0,0,1,543.61,866.32Zm0-44.17a13.47,13.47,0,1,1,13.47-13.47A13.47,13.47,0,0,1,543.61,822.15Zm0-44.18a13.47,13.47,0,1,1,13.47-13.47A13.47,13.47,0,0,1,543.61,778Zm0-44.18a13.47,13.47,0,1,1,13.47-13.47A13.47,13.47,0,0,1,543.61,733.79Zm0-44.18a13.47,13.47,0,1,1,13.47-13.47A13.47,13.47,0,0,1,543.61,689.61Zm0-44.18A13.47,13.47,0,1,1,557.08,632,13.47,13.47,0,0,1,543.61,645.43Zm0-44.18a13.47,13.47,0,1,1,13.47-13.46A13.47,13.47,0,0,1,543.61,601.25Zm0-44.17a13.47,13.47,0,1,1,13.47-13.47A13.47,13.47,0,0,1,543.61,557.08Zm0-44.18a13.47,13.47,0,1,1,13.47-13.47A13.47,13.47,0,0,1,543.61,512.9Zm0-44.18a13.47,13.47,0,1,1,13.47-13.47A13.47,13.47,0,0,1,543.61,468.72Zm0-44.18a13.47,13.47,0,1,1,13.47-13.47A13.47,13.47,0,0,1,543.61,424.54Zm0-44.18a13.47,13.47,0,1,1,13.47-13.47A13.47,13.47,0,0,1,543.61,380.36Zm0-44.17a13.47,13.47,0,1,1,13.47-13.47A13.47,13.47,0,0,1,543.61,336.19Zm0-44.18a13.47,13.47,0,1,1,13.47-13.47A13.47,13.47,0,0,1,543.61,292Zm0-44.18a13.47,13.47,0,1,1,13.47-13.47A13.47,13.47,0,0,1,543.61,247.83Zm0-44.18a13.47,13.47,0,1,1,13.47-13.47A13.47,13.47,0,0,1,543.61,203.65Zm0-44.18A13.47,13.47,0,1,1,557.08,146,13.47,13.47,0,0,1,543.61,159.47Zm0-44.18a13.47,13.47,0,1,1,13.47-13.46A13.47,13.47,0,0,1,543.61,115.29Zm0-44.17a13.47,13.47,0,1,1,13.47-13.47A13.47,13.47,0,0,1,543.61,71.12ZM587.79,910.5A13.47,13.47,0,1,1,601.25,897,13.47,13.47,0,0,1,587.79,910.5Zm0-44.18a13.47,13.47,0,1,1,13.46-13.46A13.47,13.47,0,0,1,587.79,866.32Zm0-44.17a13.47,13.47,0,1,1,13.46-13.47A13.47,13.47,0,0,1,587.79,822.15Zm0-44.18a13.47,13.47,0,1,1,13.46-13.47A13.47,13.47,0,0,1,587.79,778Zm0-44.18a13.47,13.47,0,1,1,13.46-13.47A13.47,13.47,0,0,1,587.79,733.79Zm0-44.18a13.47,13.47,0,1,1,13.46-13.47A13.47,13.47,0,0,1,587.79,689.61Zm0-44.18A13.47,13.47,0,1,1,601.25,632,13.47,13.47,0,0,1,587.79,645.43Zm0-44.18a13.47,13.47,0,1,1,13.46-13.46A13.47,13.47,0,0,1,587.79,601.25Zm0-44.17a13.47,13.47,0,1,1,13.46-13.47A13.47,13.47,0,0,1,587.79,557.08Zm0-44.18a13.47,13.47,0,1,1,13.46-13.47A13.47,13.47,0,0,1,587.79,512.9Zm0-44.18a13.47,13.47,0,1,1,13.46-13.47A13.47,13.47,0,0,1,587.79,468.72Zm0-44.18a13.47,13.47,0,1,1,13.46-13.47A13.47,13.47,0,0,1,587.79,424.54Zm0-44.18a13.47,13.47,0,1,1,13.46-13.47A13.47,13.47,0,0,1,587.79,380.36Zm0-44.17a13.47,13.47,0,1,1,13.46-13.47A13.47,13.47,0,0,1,587.79,336.19Zm0-44.18a13.47,13.47,0,1,1,13.46-13.47A13.47,13.47,0,0,1,587.79,292Zm0-44.18a13.47,13.47,0,1,1,13.46-13.47A13.47,13.47,0,0,1,587.79,247.83Zm0-44.18a13.47,13.47,0,1,1,13.46-13.47A13.47,13.47,0,0,1,587.79,203.65Zm0-44.18A13.47,13.47,0,1,1,601.25,146,13.47,13.47,0,0,1,587.79,159.47Zm0-44.18a13.47,13.47,0,1,1,13.46-13.46A13.47,13.47,0,0,1,587.79,115.29Zm0-44.17a13.47,13.47,0,1,1,13.46-13.47A13.47,13.47,0,0,1,587.79,71.12ZM632,866.32a13.47,13.47,0,1,1,13.47-13.46A13.46,13.46,0,0,1,632,866.32Zm0-44.17a13.47,13.47,0,1,1,13.47-13.47A13.47,13.47,0,0,1,632,822.15ZM632,778a13.47,13.47,0,1,1,13.47-13.47A13.47,13.47,0,0,1,632,778Zm0-44.18a13.47,13.47,0,1,1,13.47-13.47A13.47,13.47,0,0,1,632,733.79Zm0-44.18a13.47,13.47,0,1,1,13.47-13.47A13.47,13.47,0,0,1,632,689.61Zm0-44.18A13.47,13.47,0,1,1,645.43,632,13.47,13.47,0,0,1,632,645.43Zm0-44.18a13.47,13.47,0,1,1,13.47-13.46A13.46,13.46,0,0,1,632,601.25Zm0-44.17a13.47,13.47,0,1,1,13.47-13.47A13.47,13.47,0,0,1,632,557.08Zm0-44.18a13.47,13.47,0,1,1,13.47-13.47A13.47,13.47,0,0,1,632,512.9Zm0-44.18a13.47,13.47,0,1,1,13.47-13.47A13.47,13.47,0,0,1,632,468.72Zm0-44.18a13.47,13.47,0,1,1,13.47-13.47A13.47,13.47,0,0,1,632,424.54Zm0-44.18a13.47,13.47,0,1,1,13.47-13.47A13.47,13.47,0,0,1,632,380.36Zm0-44.17a13.47,13.47,0,1,1,13.47-13.47A13.47,13.47,0,0,1,632,336.19ZM632,292a13.47,13.47,0,1,1,13.47-13.47A13.47,13.47,0,0,1,632,292Zm0-44.18a13.47,13.47,0,1,1,13.47-13.47A13.47,13.47,0,0,1,632,247.83Zm0-44.18a13.47,13.47,0,1,1,13.47-13.47A13.47,13.47,0,0,1,632,203.65Zm0-44.18A13.47,13.47,0,1,1,645.43,146,13.47,13.47,0,0,1,632,159.47Zm0-44.18a13.47,13.47,0,1,1,13.47-13.46A13.46,13.46,0,0,1,632,115.29Z" fill="none"/><path d="M101.83,26.94A13.48,13.48,0,0,0,114.18,8.1,164.65,164.65,0,0,0,89.34,18.51,13.47,13.47,0,0,0,101.83,26.94Z"/><path d="M132.53,13.47A13.47,13.47,0,1,0,150.26.7q-5.83.53-11.55,1.46A13.45,13.45,0,0,0,132.53,13.47Z"/><circle cx="190.18" cy="13.47" r="13.47"/><circle cx="234.36" cy="13.47" r="13.47"/><circle cx="278.54" cy="13.47" r="13.47"/><circle cx="322.72" cy="13.47" r="13.47"/><circle cx="366.89" cy="13.47" r="13.47"/><circle cx="411.07" cy="13.47" r="13.47"/><circle cx="455.25" cy="13.47" r="13.47"/><circle cx="499.43" cy="13.47" r="13.47"/><path d="M530.14,13.47A13.47,13.47,0,1,0,550.91,2.16Q545.2,1.23,539.35.7A13.46,13.46,0,0,0,530.14,13.47Z"/><path d="M587.79,26.94a13.46,13.46,0,0,0,12.48-8.43A164.22,164.22,0,0,0,575.43,8.1a13.48,13.48,0,0,0,12.36,18.84Z"/><path d="M57.65,71.12a13.47,13.47,0,1,0-6.59-25.21c-1.76,1.68-3.47,3.39-5.15,5.15A13.46,13.46,0,0,0,57.65,71.12Z"/><circle cx="101.83" cy="57.65" r="13.47"/><circle cx="146" cy="57.65" r="13.47"/><circle cx="190.18" cy="57.65" r="13.47"/><circle cx="234.36" cy="57.65" r="13.47"/><circle cx="278.54" cy="57.65" r="13.47"/><circle cx="322.72" cy="57.65" r="13.47"/><circle cx="366.89" cy="57.65" r="13.47"/><circle cx="411.07" cy="57.65" r="13.47"/><circle cx="455.25" cy="57.65" r="13.47"/><circle cx="499.43" cy="57.65" r="13.47"/><circle cx="543.61" cy="57.65" r="13.47"/><circle cx="587.79" cy="57.65" r="13.47"/><path d="M618.5,57.65a13.47,13.47,0,1,0,25.2-6.59c-1.67-1.76-3.39-3.47-5.15-5.15a13.45,13.45,0,0,0-20,11.74Z"/><path d="M26.94,101.83a13.47,13.47,0,0,0-8.43-12.49A164.65,164.65,0,0,0,8.1,114.18a13.48,13.48,0,0,0,18.84-12.35Z"/><circle cx="57.65" cy="101.83" r="13.47"/><circle cx="101.83" cy="101.83" r="13.47"/><circle cx="146" cy="101.83" r="13.47"/><circle cx="190.18" cy="101.83" r="13.47"/><circle cx="234.36" cy="101.83" r="13.47"/><circle cx="278.54" cy="101.83" r="13.47"/><circle cx="322.72" cy="101.83" r="13.47"/><circle cx="366.89" cy="101.83" r="13.47"/><circle cx="411.07" cy="101.83" r="13.47"/><circle cx="455.25" cy="101.83" r="13.47"/><circle cx="499.43" cy="101.83" r="13.47"/><circle cx="543.61" cy="101.83" r="13.47"/><circle cx="587.79" cy="101.83" r="13.47"/><circle cx="631.96" cy="101.83" r="13.47"/><path d="M662.67,101.83a13.48,13.48,0,0,0,18.84,12.35,165.64,165.64,0,0,0-10.4-24.84A13.47,13.47,0,0,0,662.67,101.83Z"/><path d="M13.47,159.47A13.47,13.47,0,1,0,2.16,138.71Q1.23,144.43.7,150.26A13.46,13.46,0,0,0,13.47,159.47Z"/><circle cx="57.65" cy="146" r="13.47"/><circle cx="101.83" cy="146" r="13.47"/><circle cx="146" cy="146" r="13.47"/><circle cx="190.18" cy="146" r="13.47"/><circle cx="234.36" cy="146" r="13.47"/><circle cx="278.54" cy="146" r="13.47"/><circle cx="322.72" cy="146" r="13.47"/><circle cx="366.89" cy="146" r="13.47"/><circle cx="411.07" cy="146" r="13.47"/><circle cx="455.25" cy="146" r="13.47"/><circle cx="499.43" cy="146" r="13.47"/><circle cx="543.61" cy="146" r="13.47"/><circle cx="587.79" cy="146" r="13.47"/><circle cx="631.96" cy="146" r="13.47"/><path d="M676.14,132.53a13.47,13.47,0,1,0,12.77,17.73q-.52-5.83-1.46-11.55A13.45,13.45,0,0,0,676.14,132.53Z"/><circle cx="13.47" cy="190.18" r="13.47"/><circle cx="57.65" cy="190.18" r="13.47"/><circle cx="101.83" cy="190.18" r="13.47"/><circle cx="146" cy="190.18" r="13.47"/><circle cx="190.18" cy="190.18" r="13.47"/><circle cx="234.36" cy="190.18" r="13.47"/><circle cx="278.54" cy="190.18" r="13.47"/><circle cx="322.72" cy="190.18" r="13.47"/><circle cx="366.89" cy="190.18" r="13.47"/><circle cx="411.07" cy="190.18" r="13.47"/><circle cx="455.25" cy="190.18" r="13.47"/><circle cx="499.43" cy="190.18" r="13.47"/><circle cx="543.61" cy="190.18" r="13.47"/><circle cx="587.79" cy="190.18" r="13.47"/><circle cx="631.96" cy="190.18" r="13.47"/><circle cx="676.14" cy="190.18" r="13.47"/><circle cx="13.47" cy="234.36" r="13.47"/><circle cx="57.65" cy="234.36" r="13.47"/><circle cx="101.83" cy="234.36" r="13.47"/><circle cx="146" cy="234.36" r="13.47"/><circle cx="190.18" cy="234.36" r="13.47"/><circle cx="234.36" cy="234.36" r="13.47"/><circle cx="278.54" cy="234.36" r="13.47"/><circle cx="322.72" cy="234.36" r="13.47"/><circle cx="366.89" cy="234.36" r="13.47"/><circle cx="411.07" cy="234.36" r="13.47"/><circle cx="455.25" cy="234.36" r="13.47"/><circle cx="499.43" cy="234.36" r="13.47"/><circle cx="543.61" cy="234.36" r="13.47"/><circle cx="587.79" cy="234.36" r="13.47"/><circle cx="631.96" cy="234.36" r="13.47"/><circle cx="676.14" cy="234.36" r="13.47"/><circle cx="13.47" cy="278.54" r="13.47"/><circle cx="57.65" cy="278.54" r="13.47"/><circle cx="101.83" cy="278.54" r="13.47"/><circle cx="146" cy="278.54" r="13.47"/><circle cx="190.18" cy="278.54" r="13.47"/><circle cx="234.36" cy="278.54" r="13.47"/><circle cx="278.54" cy="278.54" r="13.47"/><circle cx="322.72" cy="278.54" r="13.47"/><circle cx="366.89" cy="278.54" r="13.47"/><circle cx="411.07" cy="278.54" r="13.47"/><circle cx="455.25" cy="278.54" r="13.47"/><circle cx="499.43" cy="278.54" r="13.47"/><circle cx="543.61" cy="278.54" r="13.47"/><circle cx="587.79" cy="278.54" r="13.47"/><circle cx="631.96" cy="278.54" r="13.47"/><circle cx="676.14" cy="278.54" r="13.47"/><circle cx="13.47" cy="322.72" r="13.47"/><circle cx="57.65" cy="322.72" r="13.47"/><circle cx="101.83" cy="322.72" r="13.47"/><circle cx="146" cy="322.72" r="13.47"/><circle cx="190.18" cy="322.72" r="13.47"/><circle cx="234.36" cy="322.72" r="13.47"/><circle cx="278.54" cy="322.72" r="13.47"/><circle cx="322.72" cy="322.72" r="13.47"/><circle cx="366.89" cy="322.72" r="13.47"/><circle cx="411.07" cy="322.72" r="13.47"/><circle cx="455.25" cy="322.72" r="13.47"/><circle cx="499.43" cy="322.72" r="13.47"/><circle cx="543.61" cy="322.72" r="13.47"/><circle cx="587.79" cy="322.72" r="13.47"/><circle cx="631.96" cy="322.72" r="13.47"/><circle cx="676.14" cy="322.72" r="13.47"/><circle cx="13.47" cy="366.89" r="13.47"/><circle cx="57.65" cy="366.89" r="13.47"/><circle cx="101.83" cy="366.89" r="13.47"/><circle cx="146" cy="366.89" r="13.47"/><circle cx="190.18" cy="366.89" r="13.47"/><circle cx="234.36" cy="366.89" r="13.47"/><circle cx="278.54" cy="366.89" r="13.47"/><circle cx="322.72" cy="366.89" r="13.47"/><circle cx="366.89" cy="366.89" r="13.47"/><circle cx="411.07" cy="366.89" r="13.47"/><circle cx="455.25" cy="366.89" r="13.47"/><circle cx="499.43" cy="366.89" r="13.47"/><circle cx="543.61" cy="366.89" r="13.47"/><circle cx="587.79" cy="366.89" r="13.47"/><circle cx="631.96" cy="366.89" r="13.47"/><circle cx="676.14" cy="366.89" r="13.47"/><circle cx="13.47" cy="411.07" r="13.47"/><circle cx="57.65" cy="411.07" r="13.47"/><circle cx="101.83" cy="411.07" r="13.47"/><circle cx="146" cy="411.07" r="13.47"/><circle cx="190.18" cy="411.07" r="13.47"/><circle cx="234.36" cy="411.07" r="13.47"/><circle cx="278.54" cy="411.07" r="13.47"/><circle cx="322.72" cy="411.07" r="13.47"/><circle cx="366.89" cy="411.07" r="13.47"/><circle cx="411.07" cy="411.07" r="13.47"/><circle cx="455.25" cy="411.07" r="13.47"/><circle cx="499.43" cy="411.07" r="13.47"/><circle cx="543.61" cy="411.07" r="13.47"/><circle cx="587.79" cy="411.07" r="13.47"/><circle cx="631.96" cy="411.07" r="13.47"/><circle cx="676.14" cy="411.07" r="13.47"/><circle cx="13.47" cy="455.25" r="13.47"/><circle cx="57.65" cy="455.25" r="13.47"/><circle cx="101.83" cy="455.25" r="13.47"/><circle cx="146" cy="455.25" r="13.47"/><circle cx="190.18" cy="455.25" r="13.47"/><circle cx="234.36" cy="455.25" r="13.47"/><circle cx="278.54" cy="455.25" r="13.47"/><circle cx="322.72" cy="455.25" r="13.47"/><circle cx="366.89" cy="455.25" r="13.47"/><circle cx="411.07" cy="455.25" r="13.47"/><circle cx="455.25" cy="455.25" r="13.47"/><circle cx="499.43" cy="455.25" r="13.47"/><circle cx="543.61" cy="455.25" r="13.47"/><circle cx="587.79" cy="455.25" r="13.47"/><circle cx="631.96" cy="455.25" r="13.47"/><circle cx="676.14" cy="455.25" r="13.47"/><circle cx="13.47" cy="499.43" r="13.47"/><circle cx="57.65" cy="499.43" r="13.47"/><circle cx="101.83" cy="499.43" r="13.47"/><circle cx="146" cy="499.43" r="13.47"/><circle cx="190.18" cy="499.43" r="13.47"/><circle cx="234.36" cy="499.43" r="13.47"/><circle cx="278.54" cy="499.43" r="13.47"/><circle cx="322.72" cy="499.43" r="13.47"/><circle cx="366.89" cy="499.43" r="13.47"/><circle cx="411.07" cy="499.43" r="13.47"/><circle cx="455.25" cy="499.43" r="13.47"/><circle cx="499.43" cy="499.43" r="13.47"/><circle cx="543.61" cy="499.43" r="13.47"/><circle cx="587.79" cy="499.43" r="13.47"/><circle cx="631.96" cy="499.43" r="13.47"/><circle cx="676.14" cy="499.43" r="13.47"/><circle cx="13.47" cy="543.61" r="13.47"/><circle cx="57.65" cy="543.61" r="13.47"/><circle cx="101.83" cy="543.61" r="13.47"/><circle cx="146" cy="543.61" r="13.47"/><circle cx="190.18" cy="543.61" r="13.47"/><circle cx="234.36" cy="543.61" r="13.47"/><circle cx="278.54" cy="543.61" r="13.47"/><circle cx="322.72" cy="543.61" r="13.47"/><circle cx="366.89" cy="543.61" r="13.47"/><circle cx="411.07" cy="543.61" r="13.47"/><circle cx="455.25" cy="543.61" r="13.47"/><circle cx="499.43" cy="543.61" r="13.47"/><circle cx="543.61" cy="543.61" r="13.47"/><circle cx="587.79" cy="543.61" r="13.47"/><circle cx="631.96" cy="543.61" r="13.47"/><circle cx="676.14" cy="543.61" r="13.47"/><circle cx="13.47" cy="587.79" r="13.47"/><circle cx="57.65" cy="587.79" r="13.47"/><circle cx="101.83" cy="587.79" r="13.47"/><circle cx="146" cy="587.79" r="13.47"/><circle cx="190.18" cy="587.79" r="13.47"/><circle cx="234.36" cy="587.79" r="13.47"/><circle cx="278.54" cy="587.79" r="13.47"/><circle cx="322.72" cy="587.79" r="13.47"/><circle cx="366.89" cy="587.79" r="13.47"/><circle cx="411.07" cy="587.79" r="13.47"/><circle cx="455.25" cy="587.79" r="13.47"/><circle cx="499.43" cy="587.79" r="13.47"/><circle cx="543.61" cy="587.79" r="13.47"/><circle cx="587.79" cy="587.79" r="13.47"/><circle cx="631.96" cy="587.79" r="13.47"/><circle cx="676.14" cy="587.79" r="13.47"/><circle cx="13.47" cy="631.96" r="13.47"/><circle cx="57.65" cy="631.96" r="13.47"/><circle cx="101.83" cy="631.96" r="13.47"/><circle cx="146" cy="631.96" r="13.47"/><circle cx="190.18" cy="631.96" r="13.47"/><circle cx="234.36" cy="631.96" r="13.47"/><circle cx="278.54" cy="631.96" r="13.47"/><circle cx="322.72" cy="631.96" r="13.47"/><circle cx="366.89" cy="631.96" r="13.47"/><circle cx="411.07" cy="631.96" r="13.47"/><circle cx="455.25" cy="631.96" r="13.47"/><circle cx="499.43" cy="631.96" r="13.47"/><circle cx="543.61" cy="631.96" r="13.47"/><circle cx="587.79" cy="631.96" r="13.47"/><circle cx="631.96" cy="631.96" r="13.47"/><circle cx="676.14" cy="631.96" r="13.47"/><circle cx="13.47" cy="676.14" r="13.47"/><circle cx="57.65" cy="676.14" r="13.47"/><circle cx="101.83" cy="676.14" r="13.47"/><circle cx="146" cy="676.14" r="13.47"/><circle cx="190.18" cy="676.14" r="13.47"/><circle cx="234.36" cy="676.14" r="13.47"/><circle cx="278.54" cy="676.14" r="13.47"/><circle cx="322.72" cy="676.14" r="13.47"/><circle cx="366.89" cy="676.14" r="13.47"/><circle cx="411.07" cy="676.14" r="13.47"/><circle cx="455.25" cy="676.14" r="13.47"/><circle cx="499.43" cy="676.14" r="13.47"/><circle cx="543.61" cy="676.14" r="13.47"/><circle cx="587.79" cy="676.14" r="13.47"/><circle cx="631.96" cy="676.14" r="13.47"/><circle cx="676.14" cy="676.14" r="13.47"/><circle cx="13.47" cy="720.32" r="13.47"/><circle cx="57.65" cy="720.32" r="13.47"/><circle cx="101.83" cy="720.32" r="13.47"/><circle cx="146" cy="720.32" r="13.47"/><circle cx="190.18" cy="720.32" r="13.47"/><circle cx="234.36" cy="720.32" r="13.47"/><circle cx="278.54" cy="720.32" r="13.47"/><circle cx="322.72" cy="720.32" r="13.47"/><circle cx="366.89" cy="720.32" r="13.47"/><circle cx="411.07" cy="720.32" r="13.47"/><circle cx="455.25" cy="720.32" r="13.47"/><circle cx="499.43" cy="720.32" r="13.47"/><circle cx="543.61" cy="720.32" r="13.47"/><circle cx="587.79" cy="720.32" r="13.47"/><circle cx="631.96" cy="720.32" r="13.47"/><circle cx="676.14" cy="720.32" r="13.47"/><circle cx="13.47" cy="764.5" r="13.47"/><circle cx="57.65" cy="764.5" r="13.47"/><circle cx="101.83" cy="764.5" r="13.47"/><circle cx="146" cy="764.5" r="13.47"/><circle cx="190.18" cy="764.5" r="13.47"/><circle cx="234.36" cy="764.5" r="13.47"/><circle cx="278.54" cy="764.5" r="13.47"/><circle cx="322.72" cy="764.5" r="13.47"/><circle cx="366.89" cy="764.5" r="13.47"/><circle cx="411.07" cy="764.5" r="13.47"/><circle cx="455.25" cy="764.5" r="13.47"/><circle cx="499.43" cy="764.5" r="13.47"/><circle cx="543.61" cy="764.5" r="13.47"/><circle cx="587.79" cy="764.5" r="13.47"/><circle cx="631.96" cy="764.5" r="13.47"/><circle cx="676.14" cy="764.5" r="13.47"/><path d="M13.47,822.15A13.47,13.47,0,1,0,.7,804.42q.53,5.83,1.46,11.55A13.45,13.45,0,0,0,13.47,822.15Z"/><circle cx="57.65" cy="808.68" r="13.47"/><circle cx="101.83" cy="808.68" r="13.47"/><circle cx="146" cy="808.68" r="13.47"/><circle cx="190.18" cy="808.68" r="13.47"/><circle cx="234.36" cy="808.68" r="13.47"/><circle cx="278.54" cy="808.68" r="13.47"/><circle cx="322.72" cy="808.68" r="13.47"/><circle cx="366.89" cy="808.68" r="13.47"/><circle cx="411.07" cy="808.68" r="13.47"/><circle cx="455.25" cy="808.68" r="13.47"/><circle cx="499.43" cy="808.68" r="13.47"/><circle cx="543.61" cy="808.68" r="13.47"/><circle cx="587.79" cy="808.68" r="13.47"/><circle cx="631.96" cy="808.68" r="13.47"/><path d="M676.14,795.21A13.47,13.47,0,1,0,687.45,816q.93-5.72,1.46-11.55A13.46,13.46,0,0,0,676.14,795.21Z"/><path d="M26.94,852.86A13.48,13.48,0,0,0,8.1,840.5a164.22,164.22,0,0,0,10.41,24.84A13.46,13.46,0,0,0,26.94,852.86Z"/><circle cx="57.65" cy="852.86" r="13.47"/><circle cx="101.83" cy="852.86" r="13.47"/><circle cx="146" cy="852.86" r="13.47"/><circle cx="190.18" cy="852.86" r="13.47"/><circle cx="234.36" cy="852.86" r="13.47"/><circle cx="278.54" cy="852.86" r="13.47"/><circle cx="322.72" cy="852.86" r="13.47"/><circle cx="366.89" cy="852.86" r="13.47"/><circle cx="411.07" cy="852.86" r="13.47"/><circle cx="455.25" cy="852.86" r="13.47"/><circle cx="499.43" cy="852.86" r="13.47"/><circle cx="543.61" cy="852.86" r="13.47"/><circle cx="587.79" cy="852.86" r="13.47"/><circle cx="631.96" cy="852.86" r="13.47"/><path d="M662.67,852.86a13.45,13.45,0,0,0,8.44,12.48,165.21,165.21,0,0,0,10.4-24.84,13.48,13.48,0,0,0-18.84,12.36Z"/><path d="M71.12,897a13.47,13.47,0,1,0-25.21,6.59c1.68,1.76,3.39,3.47,5.15,5.15A13.46,13.46,0,0,0,71.12,897Z"/><circle cx="101.83" cy="897.03" r="13.47"/><circle cx="146" cy="897.03" r="13.47"/><circle cx="190.18" cy="897.03" r="13.47"/><circle cx="234.36" cy="897.03" r="13.47"/><circle cx="278.54" cy="897.03" r="13.47"/><circle cx="322.72" cy="897.03" r="13.47"/><circle cx="366.89" cy="897.03" r="13.47"/><circle cx="411.07" cy="897.03" r="13.47"/><circle cx="455.25" cy="897.03" r="13.47"/><circle cx="499.43" cy="897.03" r="13.47"/><circle cx="543.61" cy="897.03" r="13.47"/><circle cx="587.79" cy="897.03" r="13.47"/><path d="M632,883.56a13.47,13.47,0,1,0,6.59,25.21c1.76-1.68,3.48-3.39,5.15-5.15A13.46,13.46,0,0,0,632,883.56Z"/><path d="M101.83,927.74a13.47,13.47,0,0,0-12.49,8.43,164.65,164.65,0,0,0,24.84,10.41,13.48,13.48,0,0,0-12.35-18.84Z"/><path d="M159.47,941.21a13.47,13.47,0,1,0-20.76,11.31q5.72.93,11.55,1.46A13.46,13.46,0,0,0,159.47,941.21Z"/><circle cx="190.18" cy="941.21" r="13.47"/><circle cx="234.36" cy="941.21" r="13.47"/><circle cx="278.54" cy="941.21" r="13.47"/><circle cx="322.72" cy="941.21" r="13.47"/><circle cx="366.89" cy="941.21" r="13.47"/><circle cx="411.07" cy="941.21" r="13.47"/><circle cx="455.25" cy="941.21" r="13.47"/><circle cx="499.43" cy="941.21" r="13.47"/><path d="M557.08,941.21A13.47,13.47,0,1,0,539.35,954q5.83-.53,11.56-1.46A13.44,13.44,0,0,0,557.08,941.21Z"/><path d="M587.79,927.74a13.48,13.48,0,0,0-12.36,18.84,164.22,164.22,0,0,0,24.84-10.41A13.46,13.46,0,0,0,587.79,927.74Z"/></g></g></svg>