<svg id="Calque_1" data-name="Calque 1" xmlns="http://www.w3.org/2000/svg" viewBox="0 0 431.85 181.57"><defs><style>.cls-1{fill:none;stroke:#fcd6b6;stroke-miterlimit:10;stroke-width:4px;}.cls-2{fill:#fcd6b6;}.cls-3{fill:#f6a96f;}.cls-4{font-size:17.05px;}.cls-10,.cls-11,.cls-4,.cls-5,.cls-6,.cls-7,.cls-8,.cls-9{fill:#888989;font-family:OpenSans-ExtraBold, Open Sans;font-weight:800;}.cls-5{font-size:16.47px;}.cls-6{font-size:18.28px;}.cls-7{font-size:24.24px;}.cls-8{font-size:16.45px;}.cls-9{font-size:12.46px;}.cls-10{font-size:23.26px;}.cls-11{font-size:11.34px;}</style></defs><path class="cls-1" d="M8.81,70V14.19A6.59,6.59,0,0,1,15.4,7.6H192.3a6.59,6.59,0,0,1,6.59,6.59V70a6.59,6.59,0,0,1-6.59,6.58" transform="translate(-6.81 -5.6)"/><rect class="cls-2" x="62.47" y="29.09" width="228.96" height="83.71" rx="6.59"/><rect class="cls-1" x="140.17" y="19.91" width="210.14" height="122.34" rx="6.59"/><path class="cls-3" d="M339.55,40.25a16.3,16.3,0,0,0-2.87.28c-.05,0-.72,4.77-1,6.94-.36,2.92-.36,2.88-.64,2.88a8.78,8.78,0,0,0-1.51.32,23.09,23.09,0,0,0-3.74,1.47c-2,1-2.5,1.13-2.64,1s-.84-.76-1.67-1.48c-1.16-1-4.48-3.9-5.4-4.64-.26-.2-4.16,3-5.87,4.77-1.55,1.62-2.48,2.74-2.39,2.88S313,56.27,314.4,58s2.66,3.46,2.89,3.76l.42.53-.78,1.36a25.61,25.61,0,0,0-2.51,6,2,2,0,0,1-.23.7s-2.2.18-4.78.34-4.75.33-4.83.38c-.32.18-.72,4.09-.7,6.79a31.87,31.87,0,0,0,.23,4.32l.06.3,2.74.34,4.84.58,2.09.26.27,1.19a28.53,28.53,0,0,0,2,5.41l.63,1.32-.26.3c-.14.16-1.59,1.8-3.23,3.63s-3,3.37-3,3.41a57.48,57.48,0,0,0,5.31,6.37,14.73,14.73,0,0,0,2.22,1.8,56.36,56.36,0,0,0,6.24-4.6c.8-.65,1.51-1.2,1.58-1.22a3.52,3.52,0,0,1,1.07.59,25.1,25.1,0,0,0,5.11,2.43c1.95.64,1.93.62,2,1.06,0,.2.17,2.37.33,4.8s.29,4.46.31,4.49a21.84,21.84,0,0,0,4.8.58c2.94.16,6.37.07,6.47-.16s.47-2.85.91-6.17a19.19,19.19,0,0,1,.57-3.42,14.71,14.71,0,0,1,1.46-.4,23.16,23.16,0,0,0,5.27-2c1.12-.59,1.34-.66,1.5-.53s.68.6,1.29,1.16,2.13,1.89,3.39,3,2.3,2,2.35,2.1,2.83-1.94,4.57-3.6a34,34,0,0,0,3.62-4c.09-.15-.83-1.39-3.72-5.07-1.06-1.32-1.93-2.48-2-2.56a1.86,1.86,0,0,1,.43-.81,21.28,21.28,0,0,0,2.25-4.41c.25-.72.54-1.53.66-1.81a5.88,5.88,0,0,0,.32-1l.08-.46.88-.06c5.21-.34,8.57-.57,8.62-.63a19.66,19.66,0,0,0,.63-3.67c.26-2.46.17-7-.17-7.39-.11-.13-4.36-.74-8.78-1.27-.6-.08-.81-.14-.81-.27a6.73,6.73,0,0,0-.25-1c-.13-.46-.39-1.34-.58-2a22.21,22.21,0,0,0-1.92-4.37c-.27-.46-.41-.8-.36-.89s1-1.17,2.11-2.42c1.64-1.87,3.57-4.11,4.08-4.74.14-.17-1.7-2.61-3.32-4.38s-4-3.9-4.24-3.8c-.06,0-1.83,1.37-3.9,3s-3.79,2.92-3.83,2.92a7.11,7.11,0,0,1-.61-.37c-.67-.44-3.27-1.78-4.45-2.3a17.71,17.71,0,0,0-2.08-.72l-1.24-.35,0-1.46c-.09-3.61-.48-8.09-.72-8.19a27.94,27.94,0,0,0-3-.41A43.79,43.79,0,0,0,339.55,40.25Zm4,23.77a13.12,13.12,0,0,1,8.88,5.61,12.8,12.8,0,0,1,2.53,8.29,12.65,12.65,0,0,1-1.69,6.45,13.73,13.73,0,0,1-6.38,5.89,12.68,12.68,0,0,1-6.62,1.14A13,13,0,0,1,333.31,89a13.81,13.81,0,0,1-5.49-14.67,13.11,13.11,0,0,1,4-6.72,12.94,12.94,0,0,1,7-3.58A26.93,26.93,0,0,1,343.52,64Z" transform="translate(-6.81 -5.6)"/><path class="cls-3" d="M338.27,66.16A12.12,12.12,0,0,0,333.1,69a10.83,10.83,0,0,0-3.62,6.92A11.71,11.71,0,0,0,334,87.07a11,11,0,0,0,4,2,14.05,14.05,0,0,0,5.57.16,12.24,12.24,0,0,0,3.65-1.52,13.55,13.55,0,0,0,4.68-5.41,8.94,8.94,0,0,0,.86-4.48,8.24,8.24,0,0,0-.21-3.18A12.05,12.05,0,0,0,344,66.17,15.18,15.18,0,0,0,338.27,66.16ZM343,69a10.65,10.65,0,0,1,2.92,1.21,9,9,0,0,1,2.59,12.34,11.63,11.63,0,0,1-1.35,1.52,9.29,9.29,0,0,1-4.32,2.34,12.21,12.21,0,0,1-4.07-.18,9.29,9.29,0,0,1-6-5.81,7,7,0,0,1-.31-2.69,8,8,0,0,1,.27-2.67,10.51,10.51,0,0,1,.64-1.65A9.08,9.08,0,0,1,339.54,69,12.8,12.8,0,0,1,343,69Z" transform="translate(-6.81 -5.6)"/><path class="cls-3" d="M385.75,90.12a51.3,51.3,0,0,0-6.24,1.09,5.33,5.33,0,0,1-.89.19,35.72,35.72,0,0,0-4.95,1.48l-1.81.65S372,95,373,103.11a29.82,29.82,0,0,1,.29,3c-.29.23-1.72,1.11-2.41,1.49a30.8,30.8,0,0,0-5,3.68l-1.57,1.39-1.94-1c-2.32-1.2-5.63-2.84-7.7-3.82l-1.49-.7-.91,1.07a43.94,43.94,0,0,0-5,7.44,20.2,20.2,0,0,0-1.74,3.75c.09.16,5.41,4.36,7.82,6.19,1.6,1.22,2.14,1.68,2.09,1.81-.23.69-.86,3.12-1.09,4.24a23.22,23.22,0,0,0-.61,5.07l-.06,1.78-2.61.86c-3.26,1.09-8.06,2.75-8.78,3.05l-.55.22.05.54c.1,1.06.71,5.18.8,5.42a7.06,7.06,0,0,1,.26,1,47.13,47.13,0,0,0,2.3,7.2c.13,0,3.83-.43,10.21-1.31,1.22-.17,2.26-.29,2.3-.27a6.76,6.76,0,0,1,.59,1.05,30.92,30.92,0,0,0,4.42,6.41l1.28,1.47-1.56,3.12c-.86,1.73-2.12,4.28-2.78,5.65-1.16,2.43-1.2,2.53-1,2.72a44.88,44.88,0,0,0,4.24,3.31,37.29,37.29,0,0,0,3.85,2.35,38.5,38.5,0,0,0,4,2.05s1.7-2.23,3.73-4.93,3.76-5,3.84-5.05.4-.07,1.78.36a26.15,26.15,0,0,0,8.05,1.39l1.73.05.4,1.3c1,3.1,3.53,10.43,3.73,10.67a33.11,33.11,0,0,0,5.51-.79,53.33,53.33,0,0,0,8.2-2.26c.2-.09.38-.21.38-.29,0-.28-.65-5.78-1.07-8.82-.23-1.72-.43-3.23-.44-3.34s.5-.51,2.09-1.42a28.09,28.09,0,0,0,5.6-3.94l1.57-1.38.34.17c.67.31,7,3.43,8.92,4.4l2,1,.36-.37c.48-.54,2.24-2.92,3.12-4.21a52.21,52.21,0,0,0,4.15-7.52c.06-.23-.2-.48-2.52-2.27-1.42-1.11-3.62-2.8-4.9-3.76a18.44,18.44,0,0,1-2.3-1.9,8.81,8.81,0,0,1,.31-1.12c.17-.53.39-1.36.5-1.84s.31-1.41.46-2.07a40.54,40.54,0,0,0,.66-5.54l.05-1.08,5.84-2.05,5.83-2-.05-.57a65.51,65.51,0,0,0-1.66-9.6c-.38-1.2-1.38-4-1.47-4.05s-5.11.6-8.87,1.15c-1.93.29-3.55.51-3.6.51a2,2,0,0,1-.4-.66,38.11,38.11,0,0,0-5.61-7.83l-.84-.9,1.34-2.67c.74-1.47,2-4,2.8-5.58l1.45-2.91-.51-.48a30.77,30.77,0,0,0-3.81-2.89c-.65-.42-1.69-1.08-2.31-1.46s-1.5-.89-1.95-1.12-1.05-.54-1.29-.68c-.43-.24-2.35-1.06-2.46-1.07s-5.14,6.56-6.79,8.79l-.91,1.21a9.94,9.94,0,0,1-1.48-.41,38.86,38.86,0,0,0-8.92-1.47l-1.39,0-1-3.19c-.93-2.89-1.84-5.61-2.63-7.8C386,90.31,385.93,90.13,385.75,90.12Zm8.88,31.12a18.77,18.77,0,0,1,4.83,2.13,17.55,17.55,0,0,1,8.28,13,19.48,19.48,0,0,1-.16,5.62,18.64,18.64,0,0,1-8.32,11.72,21.13,21.13,0,0,1-7.42,2.44,20.08,20.08,0,0,1-5.15-.15,17.6,17.6,0,0,1-14.4-15.34,17.48,17.48,0,0,1,6.3-16,19,19,0,0,1,8.89-3.87A18.78,18.78,0,0,1,394.63,121.24Z" transform="translate(-6.81 -5.6)"/><path class="cls-3" d="M387,123.49a14.43,14.43,0,0,0-9.95,6.79,15,15,0,0,0-2.29,11,15.58,15.58,0,0,0,4.07,7.88,15.24,15.24,0,0,0,16.24,3.65,14.55,14.55,0,0,0,7.08-5.35,7.18,7.18,0,0,1,.79-1,16.76,16.76,0,0,0,1.44-2.91,12.64,12.64,0,0,0,.74-4.19,13.58,13.58,0,0,0-.54-4.47,14.11,14.11,0,0,0-7.28-9.73,14.68,14.68,0,0,0-5.8-1.92A13.63,13.63,0,0,0,387,123.49Zm7.8,4.76a12.17,12.17,0,0,1,5.79,6.25,11.41,11.41,0,0,1-.64,9.26,11.39,11.39,0,0,1-18.48,2.5,10.74,10.74,0,0,1-2.13-3.23,8.76,8.76,0,0,1-.88-4.85,8.62,8.62,0,0,1,1.07-4.62,11.27,11.27,0,0,1,7.92-6.19A10.14,10.14,0,0,1,394.81,128.25Z" transform="translate(-6.81 -5.6)"/><text class="cls-4" transform="matrix(0, -1.03, 1, 0, 58.41, 172.6)">DESIGN CRÉATIF</text><text class="cls-5" transform="translate(24.69 174.27) rotate(-90)">GESTION DU TEMPS</text><text class="cls-6" transform="translate(29.85 26.27)">PRISE DE DÉCISIONS</text><text class="cls-7" transform="translate(65.92 85.72)">GESTION DE PROJETS</text><text class="cls-8" transform="translate(66.17 107.09)">TRAVAIL EN ÉQUIPE</text><text class="cls-6" transform="translate(67 46.5)">COLLABORATION</text><text class="cls-9" transform="matrix(0, -0.89, 1, 0, 40, 172.6)">CAPACITE D’ADAPTATION</text><text class="cls-10" transform="translate(62.47 133.69)">FORCE DE PROPOSITION</text><text class="cls-11" transform="translate(67.97 60.85)">AGILITÉ ORGANISATIONNEL</text></svg>