<?xml version="1.0" encoding="utf-8"?>
<!-- Generator: Adobe Illustrator 24.1.2, SVG Export Plug-In . SVG Version: 6.00 Build 0)  -->
<svg version="1.1" id="Calque_1" xmlns="http://www.w3.org/2000/svg" xmlns:xlink="http://www.w3.org/1999/xlink" x="0px" y="0px"
	 viewBox="0 0 461.5 209.5" style="enable-background:new 0 0 461.5 209.5;" xml:space="preserve">
<style type="text/css">
	.st0{fill:#FCD6B6;}
	.st1{fill:#F6A96F;}
	.st2{fill:#888989;}
</style>
<g>
	<g>
		<path class="st0" d="M192.3,97.1v-4c2.5,0,4.6-2.1,4.6-4.6V32.7c0-2.5-2.1-4.6-4.6-4.6H15.4c-2.5,0-4.6,2.1-4.6,4.6v55.8h-4V32.7
			c0-4.7,3.9-8.6,8.6-8.6h176.9c4.7,0,8.6,3.9,8.6,8.6v55.8C200.9,93.2,197,97.1,192.3,97.1z"/>
	</g>
	<g>
		<path class="st0" d="M291.6,136.9H75.9c-3.6,0-6.6-2.9-6.6-6.6V59.8c0-3.6,2.9-6.6,6.6-6.6h215.8c3.6,0,6.6,2.9,6.6,6.6v70.5
			C298.2,134,295.3,136.9,291.6,136.9z"/>
	</g>
	<g>
		<path class="st0" d="M350.5,168.4h-197c-4.7,0-8.6-3.9-8.6-8.6V50.6c0-4.7,3.9-8.6,8.6-8.6h197c4.7,0,8.6,3.9,8.6,8.6v109.2
			C359.1,164.5,355.3,168.4,350.5,168.4z M153.6,46c-2.5,0-4.6,2.1-4.6,4.6v109.2c0,2.5,2.1,4.6,4.6,4.6h197c2.5,0,4.6-2.1,4.6-4.6
			V50.6c0-2.5-2.1-4.6-4.6-4.6H153.6z"/>
	</g>
</g>
<g transform="translate(0.000000,1280.000000) scale(0.100000,-0.100000)">
	<g>
		<path class="st1" d="M3535.5,12712.4c-14.3-0.6-27.8-1.9-28.7-2.8c-0.5-0.4-7.2-47.7-9.7-69.3c-3.6-29.2-3.6-28.9-6.4-28.8
			c-1.4,0-8.2-1.4-15.1-3.2c-8.9-2.4-19.7-6.6-37.4-14.7c-20.2-9.5-25-11.3-26.3-10.2c-1,0.8-8.4,7.5-16.7,14.8
			c-11.6,10.5-44.8,38.9-54,46.4c-2.6,2-41.6-29.7-58.7-47.7c-15.5-16.3-24.8-27.5-23.9-28.9c0.4-0.8,11.9-15.8,25.5-33.5
			c13.7-17.7,26.6-34.5,28.9-37.6l4.2-5.4l-7.8-13.5c-10.9-18.9-21.6-44.4-25.1-59.9c-0.8-3.6-1.8-6.8-2.2-7
			c-0.5-0.2-22-1.8-47.9-3.4c-25.9-1.6-47.5-3.3-48.3-3.7c-3.1-1.8-7.2-41-7-67.9c0-18.3,1-36.1,2.3-43.3l0.6-3l27.4-3.4
			c15.1-1.8,36.8-4.5,48.4-5.8l21-2.5l2.6-11.9c3.3-14.5,11.5-36.7,19.9-54.1l6.3-13.1l-2.6-3c-1.4-1.7-16-18.1-32.3-36.4
			c-16.2-18.4-29.6-33.7-29.6-34.1c-0.1-3,38.8-49.7,53.1-63.7c6.9-6.7,19.2-16.7,22.2-18c1.7-0.6,35.4,24.1,62.4,46.1
			c8,6.5,15.1,12,15.8,12.2c0.7,0.3,5.5-2.3,10.7-5.9c13.1-8.7,34.7-19,51-24.3c19.5-6.4,19.3-6.2,19.8-10.6
			c0.3-2.1,1.7-23.7,3.3-48.1c1.5-24.4,2.9-44.5,3.1-44.9c1.8-1.8,24.5-4.6,47.9-5.8c29.4-1.5,63.8-0.7,64.7,1.7
			c0.9,2.4,4.7,28.5,9.1,61.7c2.8,21.9,4.8,33.6,5.8,34.2c0.7,0.4,7.3,2.3,14.6,4c18.3,4.4,37.3,11.5,52.8,19.7
			c11.2,5.9,13.4,6.7,14.9,5.4c1.1-0.8,6.9-6,13-11.6c6.1-5.5,21.3-18.9,33.8-29.9c12.5-10.9,23.1-20.3,23.5-21
			c1.2-1.9,28.3,19.4,45.7,36c13.2,12.6,32.1,33.5,36.2,40.2c1,1.5-8.2,13.9-37.2,50.6c-10.5,13.3-19.3,24.8-19.6,25.6
			c-0.3,0.9,1.6,4.5,4.2,8.2c7.9,11.1,17.7,30.4,22.5,44c2.5,7.2,5.4,15.3,6.7,18.1s2.6,7.2,3.1,9.8l0.8,4.6l8.8,0.5
			c52.2,3.4,85.8,5.7,86.3,6.3c1.3,1.1,4.4,19.7,6.3,36.8c2.6,24.6,1.7,70.3-1.7,73.8c-1.1,1.3-43.6,7.4-87.8,12.8
			c-6,0.7-8.1,1.4-8.1,2.6c0,0.9-1.1,5.4-2.4,9.8c-1.3,4.6-3.9,13.4-5.8,19.7c-3.6,12.4-11.9,31.4-19.2,43.6c-2.7,4.6-4.1,8.1-3.6,9
			c0.5,0.8,10,11.7,21,24.2c16.5,18.6,35.7,41,40.8,47.4c1.4,1.7-17,26.1-33.2,43.8c-16.9,18.6-39.6,39-42.3,37.9
			c-0.7-0.3-18.4-13.7-39.1-29.7c-20.7-16-37.9-29.2-38.2-29.1c-0.2,0-3,1.7-6.1,3.7c-6.7,4.4-32.7,17.8-44.5,23
			c-4.6,2.1-14.1,5.3-20.8,7.2l-12.4,3.4l-0.4,14.7c-0.9,36.1-4.8,80.9-7.2,81.8c-1.3,0.6-6.9,1.3-29.9,4.2
			C3577.8,12712.6,3550.3,12713.1,3535.5,12712.4z M3575.2,12474.8c33.4-3.8,65.6-24.2,88.8-56.1c18.3-25.1,26.2-51,25.4-82.9
			c-0.6-25.9-5.5-44-17-64.4c-15.2-27-36.2-46.4-63.8-58.9c-22-9.9-41-13.3-66.2-11.4c-27,1.9-47.9,9.2-69.3,24.3
			c-46.9,33-68.4,90.1-54.9,146.7c6,25.6,19.1,47.5,40,67.2c21.4,20.1,45.6,32.5,70.4,35.8
			C3537.8,12476.3,3562.6,12476.1,3575.2,12474.8z"/>
	</g>
	<g>
		<path class="st1" d="M3522.7,12453.3c-19.9-5.3-36.1-14.2-51.8-28.3c-20.7-18.6-32.3-40.8-36.2-69.1
			c-6.1-43.8,10.1-83.5,45.7-111.6c12.6-9.9,23.9-15.7,39.7-20.5c13.3-4,41-4.8,55.7-1.6c11.8,2.6,26.1,8.6,36.5,15.2
			c18.9,12,38.9,35.2,46.8,54.1c7.4,17.8,8.1,21.3,8.7,44.8c0.6,20.2,0.4,22.3-2.2,31.8c-11.8,42.2-44.7,74.9-85.9,85.1
			C3565,12457,3536.4,12456.9,3522.7,12453.3z M3569.8,12425c8.4-1.6,20.9-7,29.2-12.1c40.6-25.7,52.3-81.7,25.9-123.3
			c-2.3-3.5-8.3-10.3-13.5-15.2c-12.5-11.8-26.4-19.4-43.2-23.4c-7.8-1.9-32.1-0.9-40.7,1.7c-28,8.4-52.5,32.1-60.4,58.1
			c-2.7,8.6-3.1,11.9-3.1,26.9c0,14.8,0.4,18.4,2.7,26.6c1.4,5.2,4.3,12.6,6.4,16.5c11.7,22.2,36.3,39.8,62.3,44.5
			C3543.6,12426.9,3561.3,12426.7,3569.8,12425z"/>
	</g>
	<g>
		<path class="st1" d="M3997.5,12213.7c-6.6,0.1-53.2-7.9-62.4-10.8c-3.6-1-7.6-1.9-8.9-1.9c-3.6,0.1-28.8-7.5-49.4-14.8
			c-9.8-3.5-17.9-6.4-18.2-6.5c-0.4-0.3,1.4-14.3,11.8-95.7c2-16.3,3.3-29.9,2.9-30.3c-2.9-2.3-17.1-11.1-24.1-14.9
			c-13.3-7.4-33.3-22-49.8-36.8l-15.6-14l-19.4,10.1c-23.2,12-56.4,28.5-77,38.3l-14.9,7l-9.1-10.8c-18.6-22.1-36.4-48.3-50.3-74.4
			c-9.8-18.3-18.1-36.2-17.3-37.5c0.9-1.6,54-43.6,78.2-61.9c16-12.2,21.3-16.8,20.9-18.1c-2.2-6.9-8.5-31.1-10.9-42.3
			c-4.1-18.9-5.5-30.4-6.1-50.8l-0.5-17.7l-26.2-8.7c-32.6-10.9-80.6-27.5-87.7-30.5l-5.5-2.2l0.5-5.4c0.9-10.6,7-51.8,8-54.2
			c0.5-1.4,1.8-5.8,2.6-10c4.3-19.9,20.6-70.9,23.1-72c1.2-0.5,38.2,4.2,102,13.1c12.2,1.7,22.6,2.9,23,2.6c0.4-0.2,3.2-5,5.8-10.5
			c10.8-21.2,26.6-44.2,44.2-64l12.9-14.7l-15.7-31.3c-8.6-17.3-21.1-42.7-27.8-56.5c-11.6-24.2-12-25.2-10-27.1
			c5.5-5.6,26.2-21.8,42.4-33.2c11.4-7.9,26-16.9,38.6-23.5c30.2-16,40.1-20.9,40.5-20.5c0.2,0.1,17,22.4,37.3,49.3
			s37.6,49.6,38.4,50.5c1.3,1.2,4,0.7,17.7-3.6c29.9-9.5,50.8-13.1,80.6-13.9l17.3-0.5l3.9-13c9.8-31,35.3-104.4,37.3-106.7
			c1.1-1.3,33.1,3.3,55.1,7.9c33.1,6.8,56.1,13.2,82,22.7c2.1,0.9,3.8,2.1,3.8,2.8c0.1,2.8-6.5,57.8-10.7,88.2
			c-2.3,17.2-4.3,32.3-4.4,33.4c-0.2,1.6,4.9,5.1,20.9,14.2c26.5,15.2,36.2,22,55.9,39.4l15.7,13.8l3.4-1.7
			c6.7-3.1,70-34.3,89.2-44.1l19.6-9.8l3.5,3.8c4.8,5.3,22.4,29.1,31.2,42.1c15.4,23.2,38.7,65.3,41.5,75.2c0.6,2.3-2,4.7-25.2,22.7
			c-14.2,11.1-36.3,28-49.1,37.6c-12.7,9.6-23,18.2-23,19c0,0.9,1.4,6,3.2,11.3c1.6,5.3,3.9,13.5,5,18.4c1,4.7,3.1,14.1,4.6,20.7
			c2.7,12.2,5.6,36,6.6,55.4l0.5,10.8l58.4,20.5l58.4,20.5l-0.5,5.7c-3.1,32.2-11.3,79.2-16.6,96c-3.9,12-13.9,39.6-14.8,40.6
			c-0.4,0.6-51.1-6-88.7-11.6c-19.3-2.9-35.5-5.1-36-5.1c-0.6,0-2.3,2.9-4,6.6c-8.6,18.9-34.5,55-56.1,78.4l-8.4,9l13.4,26.7
			c7.4,14.7,19.9,39.8,28,55.8l14.5,29l-5.1,4.8c-10.2,9.3-26.3,21.6-38.1,29c-6.6,4.2-17,10.7-23.1,14.5c-6.1,3.9-15,9-19.6,11.3
			c-4.6,2.4-10.4,5.4-12.9,6.7c-4.3,2.4-23.5,10.7-24.6,10.7c-0.6,0-51.3-65.6-67.9-87.9c-4.8-6.5-9-11.9-9.1-12.1
			c-0.2-0.2-6.9,1.7-14.8,4.2c-23.1,7.4-62.9,13.9-89.2,14.6l-13.9,0.4l-10.2,31.9c-9.3,28.9-18.4,56.1-26.3,78.1
			C4000.4,12211.8,3999.3,12213.7,3997.5,12213.7z M4086.3,11902.6c15.5-4.2,35.6-13,48.3-21.3c48.2-31.4,74.2-72.3,82.8-130.4
			c2.3-15.6,1.5-41.9-1.6-56.2c-10.7-48.2-42-92.3-83.2-117.2c-18.5-11.2-48.1-20.9-74.2-24.4c-13.7-1.8-38.7-1-51.6,1.5
			c-44,8.9-88.6,37.6-113.9,73.2c-14.3,20.1-25.9,51.1-30.1,80.2c-2.3,16.1-1.8,41.1,1.1,55.5c7.7,38.1,33.3,81.4,61.9,104.6
			c24.2,19.7,57.4,34.1,88.9,38.7C4036.6,11910,4064.6,11908.4,4086.3,11902.6z"/>
	</g>
	<g>
		<path class="st1" d="M4010.1,11880.1c-45.7-9.9-75.8-30.6-99.5-68c-22-34.6-29.6-70.9-22.8-110.1c4.9-28.1,20.8-59,40.7-78.7
			c44.2-43.8,104.2-57.3,162.3-36.5c29.2,10.4,53.2,28.6,70.8,53.5c3.9,5.6,7.6,10.2,7.9,10.2c1.1,0,11.4,20.7,14.4,29
			c4.8,13.4,7,25.8,7.5,42c0.4,17-0.3,23.5-5.4,44.6c-10.8,45.1-33.6,75.7-72.8,97.4c-19.9,11-33.7,15.6-58,19.2
			C4043.4,11884.5,4025.4,11883.4,4010.1,11880.1z M4088.1,11832.5c26.5-13.4,46.7-35.3,57.9-62.5c11.2-28,8.8-64.2-6.4-92.6
			c-16-29.8-39.7-49.3-69.3-57c-45.5-11.9-83.5-1.4-115.5,32c-9.2,9.7-15.4,19.1-21.2,32.3c-8,17.7-9.5,25.9-8.8,48.5
			c0.6,22.2,2.6,30.4,10.8,46.2c17.9,34.1,43.5,54.1,79.2,62C4042.1,11847.3,4063.8,11844.8,4088.1,11832.5z"/>
	</g>
</g>
<g>
	<g>
		<path class="st2" d="M58.9,184.8c1.4,0,2.6,0.3,3.5,0.8c0.9,0.5,1.6,1.3,2.1,2.3c0.5,1,0.7,2.1,0.7,3.5v4H53.1V191
			c0-1.3,0.2-2.5,0.7-3.4c0.4-0.9,1.1-1.6,2-2.1C56.6,185,57.6,184.8,58.9,184.8z M59,188.3c-0.7,0-1.4,0.1-1.8,0.3
			s-0.8,0.5-1.1,0.9s-0.4,0.9-0.4,1.5v1h6.8v-0.8c0-1-0.3-1.8-0.9-2.3C61.1,188.5,60.2,188.3,59,188.3z"/>
		<path class="st2" d="M65.2,175.1v7.4H53.1v-7.4h2.6v4h1.9v-3.7h2.6v3.7h2.3v-4H65.2z"/>
		<path class="st2" d="M61.5,164.8c0.7,0,1.3,0.2,1.9,0.5c0.6,0.3,1.1,0.9,1.4,1.6s0.5,1.6,0.5,2.8c0,0.6,0,1.1-0.1,1.5
			c-0.1,0.4-0.1,0.8-0.2,1.2s-0.3,0.8-0.4,1.2h-2.9c0.3-0.7,0.6-1.4,0.8-2c0.2-0.7,0.3-1.3,0.3-1.9c0-0.3,0-0.6-0.1-0.8
			c-0.1-0.2-0.2-0.4-0.3-0.5c-0.1-0.1-0.3-0.2-0.5-0.2c-0.2,0-0.4,0.1-0.5,0.2c-0.1,0.2-0.3,0.4-0.5,0.7c-0.2,0.3-0.4,0.8-0.6,1.3
			c-0.2,0.5-0.4,0.9-0.6,1.3c-0.2,0.4-0.5,0.7-0.8,1s-0.6,0.5-1,0.6c-0.4,0.1-0.8,0.2-1.4,0.2c-0.8,0-1.4-0.2-2-0.6
			s-0.9-0.9-1.2-1.7c-0.3-0.7-0.4-1.5-0.4-2.5c0-0.8,0.1-1.5,0.3-2.2c0.2-0.7,0.4-1.2,0.6-1.8l2.5,1c-0.2,0.5-0.4,1.1-0.6,1.6
			s-0.2,1-0.2,1.4c0,0.3,0,0.5,0.1,0.7c0.1,0.2,0.2,0.3,0.3,0.4c0.1,0.1,0.3,0.1,0.4,0.1c0.2,0,0.4-0.1,0.5-0.2
			c0.1-0.2,0.3-0.4,0.5-0.8c0.2-0.4,0.4-0.8,0.7-1.5c0.3-0.6,0.6-1.1,0.9-1.6s0.7-0.8,1.1-1C60.4,164.9,60.9,164.8,61.5,164.8z"/>
		<path class="st2" d="M65.2,162.8H53.1v-3.4h12.2V162.8z"/>
		<path class="st2" d="M58.1,151.7v-5.4h6.6c0.2,0.6,0.4,1.4,0.5,2.2c0.1,0.8,0.2,1.7,0.2,2.6c0,1.2-0.2,2.3-0.7,3.2
			s-1.1,1.6-2.1,2.1c-0.9,0.5-2.1,0.8-3.5,0.8c-1.3,0-2.4-0.3-3.3-0.8c-0.9-0.5-1.6-1.2-2.2-2.2c-0.5-1-0.8-2.2-0.8-3.6
			c0-0.8,0.1-1.5,0.2-2.2c0.1-0.7,0.3-1.3,0.5-1.8l2.6,1.1c-0.2,0.4-0.4,0.9-0.5,1.4c-0.1,0.5-0.2,1-0.2,1.6c0,0.7,0.2,1.3,0.5,1.8
			c0.3,0.5,0.8,0.8,1.3,1c0.5,0.2,1.1,0.3,1.8,0.3c0.8,0,1.4-0.1,1.9-0.3c0.5-0.2,0.9-0.5,1.2-1c0.3-0.4,0.4-0.9,0.4-1.5
			c0-0.2,0-0.4,0-0.7s-0.1-0.5-0.1-0.7h-1.9v2.2H58.1z"/>
		<path class="st2" d="M65.2,131.9v4.4l-8.6,4.6v0.1c0.3,0,0.6-0.1,0.9-0.1s0.7,0,1.1-0.1c0.4,0,0.7,0,1,0h5.5v3H53.1v-4.4l8.5-4.5
			v-0.1c-0.3,0-0.6,0-0.9,0.1c-0.4,0-0.7,0-1.1,0c-0.4,0-0.7,0-1,0h-5.5v-3H65.2z"/>
		<path class="st2" d="M55.6,119.1c0,0.4,0.1,0.8,0.2,1.1c0.2,0.3,0.4,0.6,0.7,0.8c0.3,0.2,0.7,0.4,1.1,0.5c0.4,0.1,1,0.2,1.5,0.2
			c0.8,0,1.4-0.1,1.9-0.3c0.5-0.2,0.9-0.5,1.2-0.9c0.3-0.4,0.4-0.9,0.4-1.5c0-0.6-0.1-1.1-0.2-1.6c-0.1-0.5-0.3-1-0.5-1.6h2.8
			c0.2,0.6,0.4,1.1,0.5,1.7s0.2,1.2,0.2,1.8c0,1.4-0.3,2.5-0.8,3.3c-0.5,0.9-1.3,1.5-2.2,1.9c-0.9,0.4-2,0.6-3.2,0.6
			c-0.9,0-1.8-0.1-2.5-0.4c-0.8-0.3-1.4-0.7-2-1.2c-0.6-0.5-1-1.1-1.3-1.9c-0.3-0.8-0.5-1.6-0.5-2.6c0-0.6,0.1-1.2,0.2-1.9
			c0.1-0.7,0.4-1.3,0.7-2l2.6,1c-0.2,0.5-0.4,0.9-0.5,1.4C55.7,118.1,55.6,118.6,55.6,119.1z"/>
		<path class="st2" d="M53.1,109.3c0-1.1,0.1-2.1,0.4-2.8c0.3-0.8,0.7-1.3,1.2-1.7c0.5-0.4,1.2-0.6,2-0.6c0.5,0,0.9,0.1,1.3,0.3
			c0.4,0.2,0.8,0.4,1.1,0.7c0.3,0.3,0.6,0.7,0.8,1.1l5.3-3.6v3.8l-4.4,2.6v0.9h4.4v3.4H53.1V109.3z M55.5,109.3v0.7h2.8v-0.6
			c0-0.5-0.1-0.9-0.3-1.3c-0.2-0.3-0.6-0.5-1.2-0.5c-0.4,0-0.7,0.1-0.9,0.4C55.7,108.3,55.5,108.7,55.5,109.3z"/>
		<path class="st2" d="M49.4,93.7h0.2c0.2,0.2,0.4,0.5,0.6,0.8c0.2,0.3,0.5,0.7,0.7,1c0.2,0.4,0.5,0.7,0.7,1
			c0.2,0.3,0.4,0.6,0.5,0.9v2.2h-0.2c-0.2-0.2-0.5-0.4-0.8-0.7c-0.3-0.3-0.6-0.6-0.9-0.8c-0.3-0.3-0.6-0.5-0.8-0.7V93.7z M65.2,94.1
			v7.4H53.1v-7.4h2.6v4h1.9v-3.7h2.6v3.7h2.3v-4H65.2z"/>
		<path class="st2" d="M65.2,84.3l-2.3,0.6v4.1l2.3,0.6v3.7L53,89.2v-4.5l12.2-4.1V84.3z M60.2,85.6l-2,0.5
			c-0.2,0.1-0.5,0.1-0.9,0.2c-0.4,0.1-0.8,0.2-1.2,0.3c-0.4,0.1-0.8,0.2-1.1,0.2c0.3,0.1,0.6,0.1,1,0.2s0.8,0.2,1.2,0.3
			s0.7,0.2,1,0.3l2,0.5V85.6z"/>
		<path class="st2" d="M65.2,73.7v3.4h-9.5v3h-2.7v-9.5h2.7v3H65.2z"/>
		<path class="st2" d="M65.2,68.9H53.1v-3.4h12.2V68.9z"/>
		<path class="st2" d="M65.2,59.5v3.3H53.1v-7.4h2.6v4.1H58v-3.7h2.6v3.7H65.2z"/>
	</g>
	<g>
		<path class="st2" d="M24.6,192.4v-5.1H31c0.2,0.6,0.4,1.3,0.5,2.1c0.1,0.8,0.2,1.6,0.2,2.5c0,1.1-0.2,2.1-0.7,3
			c-0.4,0.9-1.1,1.5-2,2c-0.9,0.5-2,0.7-3.4,0.7c-1.2,0-2.3-0.2-3.2-0.7s-1.6-1.2-2.1-2.1c-0.5-0.9-0.7-2-0.7-3.4
			c0-0.7,0.1-1.4,0.2-2.1c0.1-0.7,0.3-1.2,0.5-1.7l2.5,1c-0.2,0.4-0.4,0.9-0.5,1.3s-0.2,0.9-0.2,1.5c0,0.7,0.2,1.3,0.5,1.7
			c0.3,0.4,0.7,0.7,1.3,0.9c0.5,0.2,1.1,0.3,1.7,0.3c0.7,0,1.3-0.1,1.8-0.3c0.5-0.2,0.9-0.5,1.1-0.9c0.3-0.4,0.4-0.9,0.4-1.5
			c0-0.2,0-0.4,0-0.7s-0.1-0.5-0.1-0.6h-1.8v2.1H24.6z"/>
		<path class="st2" d="M31.5,177.9v7H19.7v-7h2.5v3.8h1.9v-3.5h2.5v3.5h2.2v-3.8H31.5z"/>
		<path class="st2" d="M27.9,168.2c0.6,0,1.2,0.2,1.8,0.5c0.6,0.3,1,0.8,1.4,1.5c0.4,0.7,0.5,1.6,0.5,2.6c0,0.5,0,1-0.1,1.4
			c0,0.4-0.1,0.8-0.2,1.1s-0.3,0.7-0.4,1.1h-2.8c0.3-0.6,0.6-1.3,0.7-1.9c0.2-0.6,0.3-1.2,0.3-1.8c0-0.3,0-0.6-0.1-0.8
			c-0.1-0.2-0.2-0.3-0.3-0.4c-0.1-0.1-0.3-0.1-0.5-0.1c-0.2,0-0.4,0.1-0.5,0.2c-0.1,0.1-0.3,0.4-0.4,0.7c-0.2,0.3-0.3,0.7-0.6,1.2
			c-0.2,0.4-0.4,0.8-0.6,1.2c-0.2,0.4-0.5,0.7-0.7,0.9c-0.3,0.2-0.6,0.4-1,0.6c-0.4,0.1-0.8,0.2-1.3,0.2c-0.8,0-1.4-0.2-1.9-0.6
			s-0.9-0.9-1.2-1.6c-0.3-0.7-0.4-1.4-0.4-2.3c0-0.8,0.1-1.5,0.3-2.1c0.2-0.6,0.4-1.2,0.6-1.7l2.5,1c-0.2,0.5-0.4,1-0.6,1.5
			c-0.1,0.5-0.2,0.9-0.2,1.4c0,0.3,0,0.5,0.1,0.7c0.1,0.2,0.2,0.3,0.3,0.4c0.1,0.1,0.2,0.1,0.4,0.1c0.2,0,0.3-0.1,0.5-0.2
			c0.1-0.1,0.3-0.4,0.5-0.7s0.4-0.8,0.7-1.4c0.3-0.6,0.5-1.1,0.8-1.5c0.3-0.4,0.7-0.7,1.1-0.9S27.3,168.2,27.9,168.2z"/>
		<path class="st2" d="M31.5,161.2v3.2h-9.2v2.9h-2.6v-8.9h2.6v2.9H31.5z"/>
		<path class="st2" d="M31.5,156.6H19.7v-3.2h11.8V156.6z"/>
		<path class="st2" d="M25.6,139.9c0.9,0,1.7,0.1,2.5,0.3c0.7,0.2,1.4,0.6,1.9,1c0.5,0.5,0.9,1.1,1.2,1.8c0.3,0.7,0.4,1.6,0.4,2.6
			c0,1-0.1,1.8-0.4,2.6c-0.3,0.7-0.7,1.3-1.2,1.8c-0.5,0.5-1.2,0.8-1.9,1c-0.7,0.2-1.6,0.3-2.5,0.3c-1.2,0-2.3-0.2-3.2-0.6
			c-0.9-0.4-1.6-1-2.1-1.9c-0.5-0.8-0.7-1.9-0.7-3.3c0-1.3,0.2-2.4,0.7-3.3c0.5-0.8,1.2-1.5,2.1-1.8
			C23.3,140.1,24.4,139.9,25.6,139.9z M25.6,148c0.7,0,1.3-0.1,1.8-0.2c0.5-0.2,0.9-0.4,1.2-0.8s0.4-0.8,0.4-1.4
			c0-0.6-0.1-1-0.4-1.4s-0.7-0.6-1.2-0.7c-0.5-0.2-1.1-0.2-1.8-0.2c-1.1,0-1.9,0.2-2.5,0.5c-0.6,0.4-0.9,1-0.9,1.8
			c0,0.6,0.1,1,0.4,1.4s0.7,0.6,1.2,0.8C24.3,147.9,24.9,148,25.6,148z"/>
		<path class="st2" d="M31.5,126.6v4.2l-8.3,4.3v0.1c0.3,0,0.6-0.1,0.9-0.1c0.4,0,0.7,0,1.1-0.1c0.4,0,0.7,0,1,0h5.3v2.8H19.7v-4.2
			l8.2-4.3v0c-0.3,0-0.6,0-0.9,0c-0.3,0-0.7,0-1,0c-0.3,0-0.7,0-0.9,0h-5.3v-2.8H31.5z"/>
		<path class="st2" d="M25.4,109.8c1.4,0,2.5,0.3,3.4,0.8c0.9,0.5,1.6,1.2,2,2.2s0.7,2,0.7,3.3v3.8H19.7v-4.1c0-1.3,0.2-2.3,0.7-3.2
			c0.4-0.9,1.1-1.5,1.9-2C23.1,110,24.2,109.8,25.4,109.8z M25.5,113.1c-0.7,0-1.3,0.1-1.8,0.3c-0.5,0.2-0.8,0.5-1.1,0.9
			c-0.2,0.4-0.4,0.9-0.4,1.4v0.9h6.6v-0.7c0-1-0.3-1.7-0.8-2.1C27.5,113.3,26.6,113.1,25.5,113.1z"/>
		<path class="st2" d="M19.7,97.7h7.1c1,0,1.8,0.2,2.6,0.6c0.7,0.4,1.3,0.9,1.7,1.7c0.4,0.8,0.6,1.7,0.6,2.8c0,1.6-0.4,2.9-1.2,3.7
			c-0.8,0.9-2,1.3-3.5,1.3h-7.1v-3.2h6.9c0.8,0,1.4-0.2,1.8-0.5c0.4-0.3,0.6-0.8,0.6-1.4c0-0.4-0.1-0.8-0.2-1.1s-0.4-0.5-0.8-0.6
			c-0.4-0.1-0.8-0.2-1.4-0.2h-6.9V97.7z"/>
		<path class="st2" d="M31.5,85.7v3.2h-9.2v2.9h-2.6v-8.9h2.6v2.9H31.5z"/>
		<path class="st2" d="M31.5,74.2v7H19.7v-7h2.5V78h1.9v-3.5h2.5V78h2.2v-3.8H31.5z"/>
		<path class="st2" d="M31.5,67L23,69.4v0.1c0.2,0,0.5,0,0.9-0.1c0.4,0,0.8,0,1.2-0.1c0.4,0,0.9,0,1.3,0h5.1v2.8H19.7v-4.2l8.3-2.5
			v-0.1L19.7,63v-4.2h11.8v2.9h-5.2c-0.4,0-0.8,0-1.2,0c-0.4,0-0.8,0-1.2,0c-0.4,0-0.7,0-0.9-0.1v0.1l8.5,2.4V67z"/>
		<path class="st2" d="M19.7,52.2c0-1.5,0.3-2.6,1-3.4c0.6-0.7,1.6-1.1,2.8-1.1c0.5,0,1.1,0.1,1.5,0.2c0.5,0.2,0.9,0.4,1.3,0.7
			c0.4,0.3,0.7,0.8,0.9,1.4c0.2,0.6,0.3,1.3,0.3,2.1V53h3.9v3.2H19.7V52.2z M22.3,52.2V53H25v-0.6c0-0.3,0-0.5-0.1-0.8
			s-0.2-0.4-0.5-0.6c-0.2-0.1-0.5-0.2-0.8-0.2c-0.4,0-0.7,0.1-0.9,0.3C22.4,51.4,22.3,51.8,22.3,52.2z"/>
		<path class="st2" d="M27.9,38.1c0.6,0,1.2,0.2,1.8,0.5c0.6,0.3,1,0.8,1.4,1.5c0.4,0.7,0.5,1.6,0.5,2.6c0,0.5,0,1-0.1,1.4
			s-0.1,0.8-0.2,1.1s-0.3,0.7-0.4,1.1h-2.8c0.3-0.6,0.6-1.3,0.7-1.9c0.2-0.6,0.3-1.2,0.3-1.8c0-0.3,0-0.6-0.1-0.8
			c-0.1-0.2-0.2-0.4-0.3-0.4c-0.1-0.1-0.3-0.1-0.5-0.1c-0.2,0-0.4,0.1-0.5,0.2c-0.1,0.1-0.3,0.4-0.4,0.7c-0.2,0.3-0.3,0.7-0.6,1.2
			c-0.2,0.4-0.4,0.8-0.6,1.2c-0.2,0.4-0.5,0.7-0.7,0.9c-0.3,0.2-0.6,0.4-1,0.6c-0.4,0.1-0.8,0.2-1.3,0.2c-0.8,0-1.4-0.2-1.9-0.6
			s-0.9-0.9-1.2-1.6c-0.3-0.7-0.4-1.4-0.4-2.3c0-0.8,0.1-1.5,0.3-2.1c0.2-0.6,0.4-1.2,0.6-1.7l2.5,1c-0.2,0.5-0.4,1-0.6,1.5
			s-0.2,0.9-0.2,1.4c0,0.3,0,0.5,0.1,0.7c0.1,0.2,0.2,0.3,0.3,0.4c0.1,0.1,0.2,0.1,0.4,0.1c0.2,0,0.3-0.1,0.5-0.2
			c0.1-0.1,0.3-0.4,0.5-0.7c0.2-0.3,0.4-0.8,0.7-1.4c0.3-0.6,0.5-1.1,0.8-1.5c0.3-0.4,0.7-0.7,1.1-0.9
			C26.8,38.2,27.3,38.1,27.9,38.1z"/>
	</g>
	<g>
		<path class="st2" d="M42.6,37.3c1.7,0,2.9,0.4,3.7,1.1c0.8,0.7,1.2,1.7,1.2,3.1c0,0.6-0.1,1.2-0.3,1.7c-0.2,0.5-0.4,1-0.8,1.5
			s-0.9,0.8-1.5,1c-0.6,0.2-1.4,0.4-2.3,0.4h-1v4.3h-3.5v-13H42.6z M42.5,40.2h-0.9v3h0.7c0.3,0,0.6-0.1,0.8-0.2
			c0.3-0.1,0.5-0.3,0.6-0.5c0.2-0.2,0.2-0.5,0.2-0.9c0-0.4-0.1-0.7-0.4-1S43,40.2,42.5,40.2z"/>
		<path class="st2" d="M53.9,37.3c1.2,0,2.2,0.1,3,0.4c0.8,0.3,1.4,0.7,1.8,1.3c0.4,0.6,0.6,1.3,0.6,2.1c0,0.5-0.1,1-0.3,1.4
			c-0.2,0.4-0.4,0.8-0.8,1.2c-0.3,0.3-0.7,0.6-1.2,0.9l3.8,5.7h-4L54,45.6h-0.9v4.7h-3.5v-13H53.9z M53.8,40h-0.7v3h0.7
			c0.5,0,1-0.1,1.3-0.4c0.3-0.2,0.5-0.7,0.5-1.3c0-0.4-0.1-0.8-0.4-1C54.9,40.1,54.5,40,53.8,40z"/>
		<path class="st2" d="M62,50.4v-13h3.5v13H62z"/>
		<path class="st2" d="M76.9,46.4c0,0.7-0.2,1.4-0.5,2c-0.4,0.6-0.9,1.1-1.7,1.5c-0.8,0.4-1.7,0.6-2.9,0.6c-0.6,0-1.1,0-1.6-0.1
			s-0.9-0.1-1.3-0.3s-0.8-0.3-1.2-0.5v-3.1c0.7,0.4,1.4,0.6,2.1,0.8c0.7,0.2,1.4,0.3,2,0.3c0.4,0,0.6,0,0.9-0.1
			c0.2-0.1,0.4-0.2,0.5-0.3c0.1-0.1,0.2-0.3,0.2-0.5c0-0.2-0.1-0.4-0.2-0.6c-0.2-0.2-0.4-0.3-0.8-0.5C72,45.5,71.6,45.3,71,45
			c-0.5-0.2-0.9-0.5-1.3-0.7c-0.4-0.2-0.7-0.5-1-0.8c-0.3-0.3-0.5-0.7-0.6-1.1c-0.1-0.4-0.2-0.9-0.2-1.5c0-0.8,0.2-1.5,0.6-2.1
			c0.4-0.6,1-1,1.7-1.3c0.7-0.3,1.6-0.4,2.6-0.4c0.9,0,1.6,0.1,2.3,0.3s1.3,0.4,1.8,0.7l-1.1,2.7c-0.6-0.3-1.1-0.5-1.7-0.6
			s-1-0.2-1.5-0.2c-0.3,0-0.6,0-0.7,0.1c-0.2,0.1-0.3,0.2-0.4,0.3s-0.1,0.3-0.1,0.4c0,0.2,0.1,0.4,0.2,0.5s0.4,0.3,0.8,0.5
			c0.4,0.2,0.9,0.4,1.5,0.7c0.6,0.3,1.2,0.6,1.6,0.9c0.4,0.3,0.8,0.7,1,1.2C76.8,45.2,76.9,45.7,76.9,46.4z"/>
		<path class="st2" d="M86.7,50.4h-7.7v-13h7.7v2.8h-4.2v2.1h3.9V45h-3.9v2.5h4.2V50.4z"/>
		<path class="st2" d="M104.8,43.6c0,1.5-0.3,2.8-0.8,3.8c-0.6,1-1.4,1.8-2.4,2.3c-1,0.5-2.2,0.8-3.6,0.8h-4.2v-13h4.5
			c1.4,0,2.6,0.2,3.6,0.7c1,0.5,1.7,1.2,2.2,2.1S104.8,42.2,104.8,43.6z M101.1,43.7c0-0.8-0.1-1.4-0.3-2c-0.2-0.5-0.5-0.9-1-1.2
			s-1-0.4-1.6-0.4h-1v7.3H98c1.1,0,1.9-0.3,2.4-0.9C100.9,45.9,101.1,45,101.1,43.7z"/>
		<path class="st2" d="M114.8,50.4h-7.7v-13h7.7v2.8h-4.2v2.1h3.9V45h-3.9v2.5h4.2V50.4z"/>
		<path class="st2" d="M133,43.6c0,1.5-0.3,2.8-0.8,3.8c-0.6,1-1.4,1.8-2.4,2.3c-1,0.5-2.2,0.8-3.6,0.8h-4.2v-13h4.5
			c1.4,0,2.6,0.2,3.6,0.7c1,0.5,1.7,1.2,2.2,2.1S133,42.2,133,43.6z M129.3,43.7c0-0.8-0.1-1.4-0.3-2c-0.2-0.5-0.5-0.9-1-1.2
			s-1-0.4-1.6-0.4h-1v7.3h0.8c1.1,0,1.9-0.3,2.4-0.9C129,45.9,129.3,45,129.3,43.7z"/>
		<path class="st2" d="M143,50.4h-7.7v-13h7.7v2.8h-4.2v2.1h3.9V45h-3.9v2.5h4.2V50.4z M143.5,33.4v0.2c-0.2,0.2-0.5,0.4-0.8,0.6
			c-0.3,0.2-0.7,0.5-1.1,0.8c-0.4,0.3-0.7,0.5-1.1,0.8c-0.3,0.2-0.6,0.4-0.9,0.6h-2.3v-0.3c0.2-0.2,0.5-0.5,0.8-0.8
			c0.3-0.3,0.6-0.6,0.9-1s0.5-0.6,0.7-0.9H143.5z"/>
		<path class="st2" d="M151.1,40c-0.4,0-0.8,0.1-1.1,0.3c-0.3,0.2-0.6,0.4-0.8,0.8c-0.2,0.3-0.4,0.7-0.5,1.2s-0.2,1-0.2,1.6
			c0,0.8,0.1,1.5,0.3,2.1c0.2,0.6,0.5,1,1,1.3c0.4,0.3,1,0.4,1.6,0.4c0.6,0,1.1-0.1,1.7-0.2s1.1-0.4,1.6-0.6v3
			c-0.6,0.3-1.2,0.4-1.8,0.6c-0.6,0.1-1.2,0.2-1.9,0.2c-1.4,0-2.6-0.3-3.5-0.8c-0.9-0.6-1.6-1.3-2-2.3c-0.4-1-0.6-2.2-0.6-3.5
			c0-1,0.1-1.9,0.4-2.7c0.3-0.8,0.7-1.5,1.2-2.1c0.5-0.6,1.2-1.1,2-1.4c0.8-0.3,1.7-0.5,2.7-0.5c0.6,0,1.3,0.1,2,0.2
			c0.7,0.1,1.4,0.4,2,0.7l-1.1,2.8c-0.5-0.2-1-0.4-1.4-0.6C152.2,40.1,151.7,40,151.1,40z"/>
		<path class="st2" d="M157.2,50.4v-13h3.5v13H157.2z"/>
		<path class="st2" d="M172.1,46.4c0,0.7-0.2,1.4-0.5,2c-0.4,0.6-0.9,1.1-1.7,1.5c-0.8,0.4-1.7,0.6-2.9,0.6c-0.6,0-1.1,0-1.6-0.1
			s-0.9-0.1-1.3-0.3s-0.8-0.3-1.2-0.5v-3.1c0.7,0.4,1.4,0.6,2.1,0.8c0.7,0.2,1.4,0.3,2,0.3c0.4,0,0.6,0,0.9-0.1
			c0.2-0.1,0.4-0.2,0.5-0.3c0.1-0.1,0.2-0.3,0.2-0.5c0-0.2-0.1-0.4-0.2-0.6c-0.2-0.2-0.4-0.3-0.8-0.5c-0.3-0.2-0.8-0.4-1.4-0.6
			c-0.5-0.2-0.9-0.5-1.3-0.7c-0.4-0.2-0.7-0.5-1-0.8c-0.3-0.3-0.5-0.7-0.6-1.1c-0.1-0.4-0.2-0.9-0.2-1.5c0-0.8,0.2-1.5,0.6-2.1
			c0.4-0.6,1-1,1.7-1.3c0.7-0.3,1.6-0.4,2.6-0.4c0.9,0,1.6,0.1,2.3,0.3s1.3,0.4,1.8,0.7l-1.1,2.7c-0.6-0.3-1.1-0.5-1.7-0.6
			s-1-0.2-1.5-0.2c-0.3,0-0.6,0-0.7,0.1c-0.2,0.1-0.3,0.2-0.4,0.3s-0.1,0.3-0.1,0.4c0,0.2,0.1,0.4,0.2,0.5s0.4,0.3,0.8,0.5
			c0.4,0.2,0.9,0.4,1.5,0.7c0.6,0.3,1.2,0.6,1.6,0.9c0.4,0.3,0.8,0.7,1,1.2C172,45.2,172.1,45.7,172.1,46.4z"/>
		<path class="st2" d="M174.1,50.4v-13h3.5v13H174.1z"/>
		<path class="st2" d="M192.7,43.8c0,1-0.1,1.9-0.4,2.7c-0.2,0.8-0.6,1.5-1.1,2.1c-0.5,0.6-1.2,1.1-2,1.4c-0.8,0.3-1.8,0.5-2.9,0.5
			c-1.1,0-2-0.2-2.8-0.5c-0.8-0.3-1.5-0.8-2-1.4c-0.5-0.6-0.9-1.3-1.2-2.1c-0.3-0.8-0.4-1.7-0.4-2.8c0-1.4,0.2-2.5,0.7-3.5
			s1.1-1.8,2.1-2.3c0.9-0.6,2.1-0.8,3.6-0.8c1.5,0,2.7,0.3,3.6,0.8c0.9,0.6,1.6,1.3,2,2.3C192.5,41.3,192.7,42.5,192.7,43.8z
			 M183.7,43.8c0,0.8,0.1,1.5,0.3,2c0.2,0.6,0.5,1,0.8,1.3s0.9,0.5,1.5,0.5c0.6,0,1.2-0.2,1.5-0.5c0.4-0.3,0.7-0.7,0.8-1.3
			c0.2-0.6,0.3-1.2,0.3-2c0-1.2-0.2-2.1-0.6-2.8c-0.4-0.7-1.1-1-2-1c-0.6,0-1.1,0.2-1.5,0.5c-0.4,0.3-0.7,0.7-0.8,1.3
			C183.8,42.4,183.7,43.1,183.7,43.8z"/>
		<path class="st2" d="M207.4,50.4h-4.6l-4.8-9.2H198c0,0.3,0.1,0.6,0.1,1c0,0.4,0,0.8,0.1,1.2c0,0.4,0,0.8,0,1.1v5.9H195v-13h4.6
			l4.7,9.1h0.1c0-0.3,0-0.6-0.1-1c0-0.4,0-0.8,0-1.1c0-0.4,0-0.7,0-1v-5.9h3.1V50.4z"/>
		<path class="st2" d="M218.8,46.4c0,0.7-0.2,1.4-0.5,2c-0.4,0.6-0.9,1.1-1.7,1.5s-1.7,0.6-2.9,0.6c-0.6,0-1.1,0-1.6-0.1
			s-0.9-0.1-1.3-0.3s-0.8-0.3-1.2-0.5v-3.1c0.7,0.4,1.4,0.6,2.1,0.8c0.7,0.2,1.4,0.3,2,0.3c0.4,0,0.6,0,0.9-0.1
			c0.2-0.1,0.4-0.2,0.5-0.3c0.1-0.1,0.2-0.3,0.2-0.5c0-0.2-0.1-0.4-0.2-0.6c-0.2-0.2-0.4-0.3-0.8-0.5c-0.3-0.2-0.8-0.4-1.4-0.6
			c-0.5-0.2-0.9-0.5-1.3-0.7c-0.4-0.2-0.7-0.5-1-0.8c-0.3-0.3-0.5-0.7-0.6-1.1c-0.1-0.4-0.2-0.9-0.2-1.5c0-0.8,0.2-1.5,0.6-2.1
			c0.4-0.6,1-1,1.7-1.3c0.7-0.3,1.6-0.4,2.6-0.4c0.9,0,1.6,0.1,2.3,0.3c0.7,0.2,1.3,0.4,1.8,0.7l-1.1,2.7c-0.6-0.3-1.1-0.5-1.7-0.6
			c-0.5-0.2-1-0.2-1.5-0.2c-0.3,0-0.6,0-0.7,0.1c-0.2,0.1-0.3,0.2-0.4,0.3c-0.1,0.1-0.1,0.3-0.1,0.4c0,0.2,0.1,0.4,0.2,0.5
			c0.2,0.2,0.4,0.3,0.8,0.5s0.9,0.4,1.5,0.7c0.6,0.3,1.2,0.6,1.6,0.9c0.4,0.3,0.8,0.7,1,1.2C218.7,45.2,218.8,45.7,218.8,46.4z"/>
	</g>
	<g>
		<path class="st2" d="M81.5,99.7H89v9.3c-0.9,0.3-1.9,0.6-3.1,0.8c-1.2,0.2-2.4,0.3-3.6,0.3c-1.7,0-3.1-0.3-4.4-1s-2.2-1.6-2.9-3
			c-0.7-1.3-1.1-3-1.1-5c0-1.8,0.3-3.4,1-4.7c0.7-1.3,1.7-2.3,3.1-3.1c1.4-0.7,3-1.1,5-1.1c1.1,0,2.1,0.1,3.1,0.3
			c1,0.2,1.8,0.5,2.5,0.8L87.2,97c-0.6-0.3-1.3-0.5-1.9-0.7c-0.7-0.2-1.4-0.2-2.2-0.2c-1,0-1.9,0.2-2.5,0.7
			c-0.6,0.5-1.1,1.1-1.4,1.9c-0.3,0.8-0.4,1.6-0.4,2.6c0,1.1,0.2,2,0.5,2.7s0.7,1.3,1.3,1.7c0.6,0.4,1.3,0.6,2.1,0.6
			c0.3,0,0.6,0,1-0.1c0.4,0,0.7-0.1,0.9-0.1v-2.7h-3.1V99.7z"/>
		<path class="st2" d="M102.8,109.8H92.5V92.5h10.3v3.8h-5.6V99h5.2v3.8h-5.2v3.3h5.6V109.8z"/>
		<path class="st2" d="M117.2,104.6c0,0.9-0.2,1.8-0.7,2.7c-0.5,0.8-1.2,1.5-2.2,2c-1,0.5-2.3,0.8-3.9,0.8c-0.8,0-1.5,0-2.1-0.1
			c-0.6-0.1-1.1-0.2-1.7-0.3c-0.5-0.2-1-0.4-1.6-0.6v-4.2c0.9,0.5,1.9,0.8,2.8,1.1c1,0.2,1.8,0.4,2.6,0.4c0.5,0,0.8-0.1,1.1-0.2
			c0.3-0.1,0.5-0.3,0.7-0.5s0.2-0.4,0.2-0.7c0-0.3-0.1-0.6-0.3-0.8c-0.2-0.2-0.5-0.4-1-0.7c-0.5-0.2-1.1-0.5-1.8-0.9
			c-0.6-0.3-1.2-0.6-1.7-0.9c-0.5-0.3-1-0.7-1.3-1.1c-0.4-0.4-0.6-0.9-0.8-1.4c-0.2-0.5-0.3-1.2-0.3-1.9c0-1.1,0.3-2,0.8-2.8
			s1.3-1.3,2.3-1.7c1-0.4,2.1-0.6,3.4-0.6c1.1,0,2.1,0.1,3,0.4s1.7,0.5,2.4,0.9l-1.4,3.6c-0.7-0.3-1.5-0.6-2.2-0.8s-1.4-0.3-2-0.3
			c-0.4,0-0.7,0-1,0.1c-0.3,0.1-0.4,0.2-0.6,0.4c-0.1,0.2-0.2,0.4-0.2,0.6c0,0.3,0.1,0.5,0.3,0.7s0.6,0.4,1.1,0.7
			c0.5,0.2,1.2,0.6,2,1c0.8,0.4,1.6,0.8,2.2,1.2c0.6,0.4,1,1,1.4,1.6C117,102.9,117.2,103.7,117.2,104.6z"/>
		<path class="st2" d="M127.5,109.8h-4.7V96.4h-4.2v-3.8h13.1v3.8h-4.2V109.8z"/>
		<path class="st2" d="M134.2,109.8V92.5h4.7v17.3H134.2z"/>
		<path class="st2" d="M158.8,101.2c0,1.3-0.2,2.5-0.5,3.6c-0.3,1.1-0.8,2-1.5,2.8c-0.7,0.8-1.6,1.4-2.6,1.8
			c-1.1,0.4-2.3,0.6-3.8,0.6c-1.5,0-2.7-0.2-3.8-0.6s-1.9-1-2.6-1.8c-0.7-0.8-1.2-1.7-1.5-2.8c-0.3-1.1-0.5-2.3-0.5-3.7
			c0-1.8,0.3-3.4,0.9-4.7c0.6-1.3,1.5-2.4,2.8-3.1c1.2-0.7,2.8-1.1,4.8-1.1c2,0,3.6,0.4,4.8,1.1s2.1,1.8,2.7,3.1
			C158.5,97.8,158.8,99.4,158.8,101.2z M146.9,101.2c0,1,0.1,1.9,0.4,2.7s0.6,1.3,1.1,1.7c0.5,0.4,1.2,0.6,2,0.6
			c0.9,0,1.5-0.2,2.1-0.6s0.9-1,1.1-1.7c0.2-0.7,0.3-1.6,0.3-2.7c0-1.6-0.3-2.8-0.8-3.7c-0.5-0.9-1.4-1.4-2.7-1.4
			c-0.8,0-1.5,0.2-2,0.6c-0.5,0.4-0.9,1-1.1,1.8C147,99.2,146.9,100.1,146.9,101.2z"/>
		<path class="st2" d="M178.4,109.8h-6.1l-6.3-12.2h-0.1c0,0.4,0.1,0.8,0.1,1.3c0,0.5,0.1,1.1,0.1,1.6c0,0.5,0,1,0,1.5v7.8h-4.1
			V92.5h6.1l6.3,12h0.1c0-0.4,0-0.8-0.1-1.3c0-0.5,0-1-0.1-1.5c0-0.5,0-1,0-1.4v-7.8h4.2V109.8z"/>
		<path class="st2" d="M203.1,100.8c0,2-0.4,3.7-1.1,5s-1.8,2.3-3.2,3c-1.4,0.7-3,1-4.8,1h-5.6V92.5h6c1.9,0,3.4,0.3,4.7,1
			c1.3,0.6,2.3,1.6,3,2.8C202.8,97.5,203.1,99,203.1,100.8z M198.3,101c0-1-0.1-1.9-0.4-2.6c-0.3-0.7-0.7-1.2-1.3-1.6
			c-0.6-0.3-1.3-0.5-2.1-0.5h-1.4v9.7h1c1.4,0,2.5-0.4,3.1-1.2C197.9,103.9,198.3,102.7,198.3,101z"/>
		<path class="st2" d="M216.5,109.8h-10.3V92.5h10.3v3.8h-5.6V99h5.2v3.8h-5.2v3.3h5.6V109.8z"/>
		<path class="st2" d="M231.8,92.5c2.2,0,3.8,0.5,4.9,1.4c1.1,1,1.6,2.3,1.6,4.1c0,0.8-0.1,1.5-0.3,2.3c-0.2,0.7-0.6,1.4-1.1,1.9
			c-0.5,0.6-1.2,1-2,1.3c-0.8,0.3-1.9,0.5-3.1,0.5h-1.3v5.7h-4.7V92.5H231.8z M231.7,96.3h-1.2v4h0.9c0.4,0,0.8-0.1,1.1-0.2
			c0.3-0.1,0.6-0.4,0.8-0.7c0.2-0.3,0.3-0.7,0.3-1.2c0-0.5-0.2-1-0.5-1.3S232.4,96.3,231.7,96.3z"/>
		<path class="st2" d="M246.8,92.5c1.6,0,2.9,0.2,3.9,0.6c1,0.4,1.8,1,2.3,1.7c0.5,0.8,0.8,1.7,0.8,2.8c0,0.7-0.1,1.3-0.4,1.9
			c-0.2,0.6-0.6,1.1-1,1.5s-1,0.9-1.6,1.2l5,7.5h-5.3l-3.7-6.3h-1.2v6.3h-4.7V92.5H246.8z M246.7,96.1h-0.9v4h0.9
			c0.7,0,1.3-0.2,1.8-0.5c0.5-0.3,0.7-0.9,0.7-1.7c0-0.6-0.2-1-0.6-1.3C248.2,96.2,247.6,96.1,246.7,96.1z"/>
		<path class="st2" d="M273.7,101.2c0,1.3-0.2,2.5-0.5,3.6s-0.8,2-1.5,2.8c-0.7,0.8-1.6,1.4-2.6,1.8c-1.1,0.4-2.3,0.6-3.8,0.6
			c-1.5,0-2.7-0.2-3.8-0.6s-1.9-1-2.6-1.8s-1.2-1.7-1.5-2.8c-0.3-1.1-0.5-2.3-0.5-3.7c0-1.8,0.3-3.4,0.9-4.7s1.5-2.4,2.8-3.1
			c1.2-0.7,2.8-1.1,4.8-1.1c2,0,3.6,0.4,4.8,1.1c1.2,0.7,2.1,1.8,2.7,3.1C273.4,97.8,273.7,99.4,273.7,101.2z M261.8,101.2
			c0,1,0.1,1.9,0.4,2.7c0.2,0.7,0.6,1.3,1.1,1.7c0.5,0.4,1.2,0.6,2,0.6c0.9,0,1.5-0.2,2.1-0.6c0.5-0.4,0.9-1,1.1-1.7
			c0.2-0.7,0.3-1.6,0.3-2.7c0-1.6-0.3-2.8-0.8-3.7s-1.4-1.4-2.7-1.4c-0.8,0-1.5,0.2-2,0.6c-0.5,0.4-0.9,1-1.1,1.8
			C261.9,99.2,261.8,100.1,261.8,101.2z"/>
		<path class="st2" d="M275.5,115.3c-0.5,0-1,0-1.4-0.1c-0.4-0.1-0.7-0.1-1-0.2v-3.6c0.3,0,0.5,0.1,0.8,0.2c0.3,0.1,0.6,0.1,0.9,0.1
			c0.6,0,1-0.1,1.3-0.3s0.5-0.6,0.7-1s0.2-1,0.2-1.7v-16h4.7v15.6c0,1.7-0.3,3.1-0.8,4.2s-1.2,1.8-2.2,2.3
			C277.8,115,276.7,115.3,275.5,115.3z"/>
		<path class="st2" d="M295.6,109.8h-10.3V92.5h10.3v3.8H290V99h5.2v3.8H290v3.3h5.6V109.8z"/>
		<path class="st2" d="M306.3,109.8h-4.7V96.4h-4.2v-3.8h13.1v3.8h-4.2V109.8z"/>
		<path class="st2" d="M324.3,104.6c0,0.9-0.2,1.8-0.7,2.7c-0.5,0.8-1.2,1.5-2.2,2c-1,0.5-2.3,0.8-3.9,0.8c-0.8,0-1.5,0-2.1-0.1
			c-0.6-0.1-1.1-0.2-1.7-0.3c-0.5-0.2-1-0.4-1.6-0.6v-4.2c0.9,0.5,1.9,0.8,2.8,1.1c1,0.2,1.8,0.4,2.6,0.4c0.5,0,0.8-0.1,1.1-0.2
			c0.3-0.1,0.5-0.3,0.7-0.5c0.1-0.2,0.2-0.4,0.2-0.7c0-0.3-0.1-0.6-0.3-0.8s-0.5-0.4-1-0.7c-0.5-0.2-1.1-0.5-1.8-0.9
			c-0.6-0.3-1.2-0.6-1.7-0.9c-0.5-0.3-1-0.7-1.3-1.1c-0.4-0.4-0.6-0.9-0.8-1.4s-0.3-1.2-0.3-1.9c0-1.1,0.3-2,0.8-2.8
			c0.5-0.8,1.3-1.3,2.3-1.7c1-0.4,2.1-0.6,3.4-0.6c1.1,0,2.1,0.1,3,0.4s1.7,0.5,2.4,0.9l-1.4,3.6c-0.7-0.3-1.5-0.6-2.2-0.8
			s-1.4-0.3-2-0.3c-0.4,0-0.7,0-1,0.1c-0.3,0.1-0.4,0.2-0.6,0.4c-0.1,0.2-0.2,0.4-0.2,0.6c0,0.3,0.1,0.5,0.3,0.7s0.6,0.4,1.1,0.7
			s1.2,0.6,2,1c0.8,0.4,1.6,0.8,2.2,1.2s1,1,1.4,1.6S324.3,103.7,324.3,104.6z"/>
	</g>
	<g>
		<path class="st2" d="M79.4,131.2h-3.2v-9.1h-2.9v-2.6h8.9v2.6h-2.9V131.2z"/>
		<path class="st2" d="M87.8,119.5c1.1,0,2,0.1,2.7,0.4c0.7,0.3,1.2,0.6,1.6,1.2c0.4,0.5,0.5,1.2,0.5,1.9c0,0.5-0.1,0.9-0.2,1.3
			c-0.2,0.4-0.4,0.7-0.7,1c-0.3,0.3-0.7,0.6-1.1,0.8l3.4,5.1h-3.6l-2.5-4.3h-0.8v4.3H84v-11.7H87.8z M87.8,121.9h-0.6v2.7h0.6
			c0.5,0,0.9-0.1,1.2-0.3c0.3-0.2,0.5-0.6,0.5-1.1c0-0.4-0.1-0.7-0.4-0.9S88.3,121.9,87.8,121.9z"/>
		<path class="st2" d="M102.3,131.2l-0.6-2.2h-3.8l-0.6,2.2h-3.5l3.8-11.8h4.2l3.9,11.8H102.3z M101.1,126.4l-0.5-1.9
			c-0.1-0.2-0.1-0.5-0.2-0.9c-0.1-0.4-0.2-0.8-0.3-1.2c-0.1-0.4-0.2-0.8-0.2-1c0,0.3-0.1,0.6-0.2,1c-0.1,0.4-0.2,0.8-0.3,1.2
			c-0.1,0.4-0.2,0.7-0.2,1l-0.5,1.9H101.1z"/>
		<path class="st2" d="M117.2,119.5l-3.8,11.7h-3.7l-3.8-11.7h3.6l1.6,6c0.1,0.2,0.1,0.5,0.2,0.9c0.1,0.4,0.1,0.7,0.2,1
			c0.1,0.3,0.1,0.6,0.1,0.9c0-0.2,0.1-0.5,0.1-0.8c0.1-0.3,0.1-0.7,0.2-1c0.1-0.3,0.1-0.6,0.2-0.9l1.6-6H117.2z"/>
		<path class="st2" d="M125.7,131.2l-0.6-2.2h-3.8l-0.6,2.2h-3.5l3.8-11.8h4.2l3.9,11.8H125.7z M124.4,126.4l-0.5-1.9
			c-0.1-0.2-0.1-0.5-0.2-0.9c-0.1-0.4-0.2-0.8-0.3-1.2c-0.1-0.4-0.2-0.8-0.2-1c0,0.3-0.1,0.6-0.2,1c-0.1,0.4-0.2,0.8-0.3,1.2
			c-0.1,0.4-0.2,0.7-0.2,1l-0.5,1.9H124.4z"/>
		<path class="st2" d="M130.4,131.2v-11.7h3.2v11.7H130.4z"/>
		<path class="st2" d="M136.1,131.2v-11.7h3.2v9.2h4.5v2.6H136.1z"/>
		<path class="st2" d="M156.9,131.2h-7v-11.7h7v2.5h-3.8v1.8h3.5v2.5h-3.5v2.2h3.8V131.2z"/>
		<path class="st2" d="M170.2,131.2H166l-4.3-8.3h-0.1c0,0.3,0.1,0.6,0.1,0.9c0,0.4,0,0.7,0.1,1.1c0,0.4,0,0.7,0,1v5.3H159v-11.7
			h4.1l4.3,8.2h0c0-0.3,0-0.6,0-0.9c0-0.3,0-0.7,0-1c0-0.3,0-0.7,0-0.9v-5.3h2.8V131.2z"/>
		<path class="st2" d="M184,131.2h-7v-11.7h7v2.5h-3.8v1.8h3.5v2.5h-3.5v2.2h3.8V131.2z M184.4,116v0.2c-0.2,0.2-0.4,0.3-0.7,0.6
			c-0.3,0.2-0.6,0.5-1,0.7s-0.7,0.5-1,0.7c-0.3,0.2-0.6,0.4-0.8,0.5h-2.1v-0.2c0.2-0.2,0.4-0.4,0.7-0.7c0.3-0.3,0.5-0.6,0.8-0.9
			s0.5-0.6,0.7-0.8H184.4z"/>
		<path class="st2" d="M197,125.3c0,0.8-0.1,1.6-0.3,2.3s-0.4,1.3-0.8,1.8c-0.4,0.5-0.9,1-1.5,1.3l2.9,3.3h-4l-2-2.6c0,0,0,0-0.1,0
			c0,0,0,0-0.1,0c-1,0-1.8-0.1-2.6-0.4c-0.7-0.3-1.3-0.7-1.8-1.2c-0.5-0.5-0.8-1.2-1-1.9c-0.2-0.7-0.3-1.6-0.3-2.5
			c0-1.2,0.2-2.3,0.6-3.2s1-1.6,1.9-2.1c0.8-0.5,1.9-0.7,3.2-0.7c1.3,0,2.4,0.2,3.3,0.7c0.8,0.5,1.5,1.2,1.8,2.1
			C196.8,123,197,124.1,197,125.3z M188.9,125.3c0,0.7,0.1,1.3,0.2,1.8s0.4,0.9,0.8,1.2c0.3,0.3,0.8,0.4,1.4,0.4
			c0.6,0,1-0.1,1.4-0.4c0.3-0.3,0.6-0.7,0.7-1.2c0.2-0.5,0.2-1.1,0.2-1.8c0-1.1-0.2-1.9-0.5-2.5c-0.4-0.6-1-0.9-1.8-0.9
			c-0.6,0-1,0.1-1.4,0.4s-0.6,0.7-0.8,1.2C189,124,188.9,124.6,188.9,125.3z"/>
		<path class="st2" d="M209.1,119.5v7.1c0,1-0.2,1.8-0.6,2.6c-0.4,0.7-0.9,1.3-1.7,1.7s-1.7,0.6-2.8,0.6c-1.6,0-2.9-0.4-3.7-1.2
			s-1.3-2-1.3-3.5v-7.1h3.2v6.9c0,0.8,0.2,1.4,0.5,1.8c0.3,0.4,0.8,0.6,1.4,0.6c0.4,0,0.8-0.1,1.1-0.2c0.3-0.2,0.5-0.4,0.6-0.8
			c0.1-0.4,0.2-0.8,0.2-1.4v-6.9H209.1z"/>
		<path class="st2" d="M211.6,131.2v-11.7h3.2v11.7H211.6z"/>
		<path class="st2" d="M221.4,119.5c1.5,0,2.6,0.3,3.3,1c0.7,0.6,1.1,1.6,1.1,2.8c0,0.5-0.1,1-0.2,1.5c-0.2,0.5-0.4,0.9-0.7,1.3
			c-0.3,0.4-0.8,0.7-1.4,0.9c-0.6,0.2-1.3,0.3-2.1,0.3h-0.9v3.9h-3.2v-11.7H221.4z M221.3,122h-0.8v2.7h0.6c0.3,0,0.5,0,0.8-0.1
			s0.4-0.2,0.6-0.5c0.1-0.2,0.2-0.5,0.2-0.8c0-0.4-0.1-0.7-0.3-0.9C222.1,122.1,221.7,122,221.3,122z"/>
		<path class="st2" d="M234.7,131.2h-7v-11.7h7v2.5h-3.8v1.8h3.5v2.5h-3.5v2.2h3.8V131.2z"/>
	</g>
	<g>
		<path class="st2" d="M81,60.3c-0.4,0-0.8,0.1-1.1,0.3c-0.3,0.2-0.6,0.4-0.8,0.8c-0.2,0.3-0.4,0.7-0.5,1.2s-0.2,1-0.2,1.6
			c0,0.8,0.1,1.5,0.3,2.1c0.2,0.6,0.5,1,1,1.3c0.4,0.3,1,0.4,1.6,0.4c0.6,0,1.1-0.1,1.7-0.2s1.1-0.4,1.6-0.6v3
			c-0.6,0.3-1.2,0.4-1.8,0.6c-0.6,0.1-1.2,0.2-1.9,0.2c-1.4,0-2.6-0.3-3.5-0.8c-0.9-0.6-1.6-1.3-2-2.3c-0.4-1-0.6-2.2-0.6-3.5
			c0-1,0.1-1.9,0.4-2.7c0.3-0.8,0.7-1.5,1.2-2.1c0.5-0.6,1.2-1.1,2-1.4c0.8-0.3,1.7-0.5,2.7-0.5c0.6,0,1.3,0.1,2,0.2
			c0.7,0.1,1.4,0.4,2,0.7L84,61.1c-0.5-0.2-1-0.4-1.4-0.6C82.1,60.3,81.6,60.3,81,60.3z"/>
		<path class="st2" d="M99.3,64.1c0,1-0.1,1.9-0.4,2.7c-0.2,0.8-0.6,1.5-1.1,2.1c-0.5,0.6-1.2,1.1-2,1.4c-0.8,0.3-1.8,0.5-2.9,0.5
			c-1.1,0-2-0.2-2.8-0.5c-0.8-0.3-1.5-0.8-2-1.4c-0.5-0.6-0.9-1.3-1.2-2.1c-0.3-0.8-0.4-1.7-0.4-2.8c0-1.4,0.2-2.5,0.7-3.5
			s1.1-1.8,2.1-2.3c0.9-0.6,2.1-0.8,3.6-0.8c1.5,0,2.7,0.3,3.6,0.8c0.9,0.6,1.6,1.3,2,2.3C99.1,61.5,99.3,62.7,99.3,64.1z
			 M90.3,64.1c0,0.8,0.1,1.5,0.3,2c0.2,0.6,0.5,1,0.8,1.3s0.9,0.5,1.5,0.5c0.6,0,1.2-0.2,1.5-0.5c0.4-0.3,0.7-0.7,0.8-1.3
			c0.2-0.6,0.3-1.2,0.3-2c0-1.2-0.2-2.1-0.6-2.8c-0.4-0.7-1.1-1-2-1c-0.6,0-1.1,0.2-1.5,0.5C91,61,90.8,61.5,90.6,62
			C90.4,62.6,90.3,63.3,90.3,64.1z"/>
		<path class="st2" d="M101.6,70.6v-13h3.5v10.2h5v2.8H101.6z"/>
		<path class="st2" d="M112.3,70.6v-13h3.5v10.2h5v2.8H112.3z"/>
		<path class="st2" d="M130.9,70.6l-0.6-2.4H126l-0.7,2.4h-3.9l4.3-13.1h4.7l4.3,13.1H130.9z M129.6,65.3l-0.6-2.1
			c-0.1-0.2-0.1-0.6-0.3-1c-0.1-0.4-0.2-0.9-0.3-1.3c-0.1-0.5-0.2-0.8-0.3-1.1c-0.1,0.3-0.1,0.7-0.2,1.1c-0.1,0.4-0.2,0.9-0.3,1.3
			c-0.1,0.4-0.2,0.8-0.3,1.1l-0.6,2.1H129.6z"/>
		<path class="st2" d="M136.2,57.6h4.6c1.9,0,3.2,0.3,4,0.8c0.8,0.6,1.2,1.4,1.2,2.4c0,0.6-0.1,1.1-0.3,1.5
			c-0.2,0.4-0.5,0.7-0.8,0.9c-0.3,0.2-0.6,0.4-1,0.5v0.1c0.4,0.1,0.7,0.2,1.1,0.4s0.6,0.5,0.9,0.9c0.2,0.4,0.4,1,0.4,1.7
			c0,0.8-0.2,1.5-0.6,2c-0.4,0.6-1,1-1.7,1.3c-0.7,0.3-1.6,0.5-2.7,0.5h-5.1V57.6z M139.7,62.6h1.1c0.6,0,1-0.1,1.2-0.4
			c0.2-0.2,0.4-0.5,0.4-0.9c0-0.4-0.1-0.6-0.4-0.8c-0.3-0.2-0.7-0.3-1.3-0.3h-1V62.6z M139.7,65.1v2.7h1.2c0.6,0,1-0.1,1.3-0.4
			s0.4-0.6,0.4-1c0-0.2-0.1-0.5-0.2-0.7c-0.1-0.2-0.3-0.4-0.5-0.5s-0.6-0.2-1-0.2H139.7z"/>
		<path class="st2" d="M160.7,64.1c0,1-0.1,1.9-0.4,2.7c-0.2,0.8-0.6,1.5-1.1,2.1c-0.5,0.6-1.2,1.1-2,1.4c-0.8,0.3-1.8,0.5-2.9,0.5
			c-1.1,0-2-0.2-2.8-0.5c-0.8-0.3-1.5-0.8-2-1.4c-0.5-0.6-0.9-1.3-1.2-2.1c-0.3-0.8-0.4-1.7-0.4-2.8c0-1.4,0.2-2.5,0.7-3.5
			s1.1-1.8,2.1-2.3c0.9-0.6,2.1-0.8,3.6-0.8c1.5,0,2.7,0.3,3.6,0.8c0.9,0.6,1.6,1.3,2,2.3C160.5,61.5,160.7,62.7,160.7,64.1z
			 M151.7,64.1c0,0.8,0.1,1.5,0.3,2c0.2,0.6,0.5,1,0.8,1.3s0.9,0.5,1.5,0.5c0.6,0,1.2-0.2,1.5-0.5c0.4-0.3,0.7-0.7,0.8-1.3
			c0.2-0.6,0.3-1.2,0.3-2c0-1.2-0.2-2.1-0.6-2.8c-0.4-0.7-1.1-1-2-1c-0.6,0-1.1,0.2-1.5,0.5c-0.4,0.3-0.7,0.7-0.8,1.3
			C151.8,62.6,151.7,63.3,151.7,64.1z"/>
		<path class="st2" d="M167.4,57.6c1.2,0,2.2,0.1,3,0.4c0.8,0.3,1.4,0.7,1.8,1.3c0.4,0.6,0.6,1.3,0.6,2.1c0,0.5-0.1,1-0.3,1.4
			c-0.2,0.4-0.4,0.8-0.8,1.2c-0.3,0.3-0.7,0.6-1.2,0.9l3.8,5.7h-4l-2.8-4.7h-0.9v4.7h-3.5v-13H167.4z M167.3,60.2h-0.7v3h0.7
			c0.5,0,1-0.1,1.3-0.4c0.3-0.2,0.5-0.7,0.5-1.3c0-0.4-0.1-0.8-0.4-1C168.4,60.3,167.9,60.2,167.3,60.2z"/>
		<path class="st2" d="M183.4,70.6l-0.6-2.4h-4.2l-0.7,2.4H174l4.3-13.1h4.7l4.3,13.1H183.4z M182.1,65.3l-0.6-2.1
			c-0.1-0.2-0.1-0.6-0.3-1c-0.1-0.4-0.2-0.9-0.3-1.3c-0.1-0.5-0.2-0.8-0.3-1.1c-0.1,0.3-0.1,0.7-0.2,1.1c-0.1,0.4-0.2,0.9-0.3,1.3
			c-0.1,0.4-0.2,0.8-0.3,1.1l-0.6,2.1H182.1z"/>
		<path class="st2" d="M194.5,70.6h-3.5V60.4h-3.2v-2.9h9.9v2.9h-3.2V70.6z"/>
		<path class="st2" d="M199.5,70.6v-13h3.5v13H199.5z"/>
		<path class="st2" d="M218.1,64.1c0,1-0.1,1.9-0.4,2.7c-0.2,0.8-0.6,1.5-1.1,2.1c-0.5,0.6-1.2,1.1-2,1.4c-0.8,0.3-1.8,0.5-2.9,0.5
			c-1.1,0-2-0.2-2.8-0.5c-0.8-0.3-1.5-0.8-2-1.4c-0.5-0.6-0.9-1.3-1.2-2.1c-0.3-0.8-0.4-1.7-0.4-2.8c0-1.4,0.2-2.5,0.7-3.5
			s1.1-1.8,2.1-2.3c0.9-0.6,2.1-0.8,3.6-0.8c1.5,0,2.7,0.3,3.6,0.8c0.9,0.6,1.6,1.3,2,2.3C217.9,61.5,218.1,62.7,218.1,64.1z
			 M209.1,64.1c0,0.8,0.1,1.5,0.3,2c0.2,0.6,0.5,1,0.8,1.3s0.9,0.5,1.5,0.5c0.6,0,1.2-0.2,1.5-0.5c0.4-0.3,0.7-0.7,0.8-1.3
			c0.2-0.6,0.3-1.2,0.3-2c0-1.2-0.2-2.1-0.6-2.8c-0.4-0.7-1.1-1-2-1c-0.6,0-1.1,0.2-1.5,0.5c-0.4,0.3-0.7,0.7-0.8,1.3
			C209.2,62.6,209.1,63.3,209.1,64.1z"/>
		<path class="st2" d="M232.9,70.6h-4.6l-4.8-9.2h-0.1c0,0.3,0.1,0.6,0.1,1c0,0.4,0,0.8,0.1,1.2c0,0.4,0,0.8,0,1.1v5.9h-3.1v-13h4.6
			l4.7,9.1h0.1c0-0.3,0-0.6-0.1-1c0-0.4,0-0.8,0-1.1c0-0.4,0-0.7,0-1v-5.9h3.1V70.6z"/>
	</g>
	<g>
		<path class="st2" d="M39.8,192.3c0,0.3,0.1,0.5,0.2,0.7c0.1,0.2,0.3,0.4,0.5,0.5c0.2,0.1,0.5,0.2,0.8,0.3c0.3,0.1,0.7,0.1,1.1,0.1
			c0.6,0,1-0.1,1.4-0.2c0.4-0.1,0.7-0.3,0.9-0.6c0.2-0.3,0.3-0.6,0.3-1c0-0.4-0.1-0.7-0.2-1c-0.1-0.3-0.2-0.7-0.4-1h2
			c0.2,0.3,0.3,0.7,0.4,1.1c0.1,0.4,0.1,0.8,0.1,1.2c0,0.9-0.2,1.6-0.6,2.1c-0.4,0.5-0.9,0.9-1.6,1.2s-1.5,0.4-2.4,0.4
			c-0.7,0-1.3-0.1-1.9-0.3c-0.6-0.2-1-0.4-1.5-0.7c-0.4-0.3-0.7-0.7-1-1.2c-0.2-0.5-0.3-1-0.3-1.6c0-0.4,0-0.8,0.1-1.2
			c0.1-0.4,0.3-0.8,0.5-1.2l1.9,0.7c-0.2,0.3-0.3,0.6-0.4,0.9S39.8,192,39.8,192.3z"/>
		<path class="st2" d="M46.8,183.9l-1.7,0.4v2.6l1.7,0.4v2.3l-8.9-2.6v-2.8l8.9-2.6V183.9z M43.2,184.7l-1.5,0.3
			c-0.2,0-0.4,0.1-0.7,0.2c-0.3,0.1-0.6,0.1-0.9,0.2s-0.6,0.1-0.8,0.2c0.2,0,0.5,0.1,0.8,0.1s0.6,0.1,0.9,0.2
			c0.3,0.1,0.5,0.1,0.7,0.2l1.5,0.3V184.7z"/>
		<path class="st2" d="M37.9,177.9c0-1,0.2-1.7,0.7-2.2c0.5-0.5,1.2-0.7,2.1-0.7c0.4,0,0.8,0.1,1.2,0.2c0.4,0.1,0.7,0.3,1,0.5
			c0.3,0.2,0.5,0.5,0.7,0.9s0.3,0.9,0.3,1.4v0.6h3v2.1h-8.9V177.9z M39.9,178v0.5h2v-0.4c0-0.2,0-0.4-0.1-0.5
			c-0.1-0.2-0.2-0.3-0.3-0.4c-0.2-0.1-0.4-0.1-0.6-0.1c-0.3,0-0.5,0.1-0.7,0.2C39.9,177.5,39.9,177.7,39.9,178z"/>
		<path class="st2" d="M46.8,168.9l-1.7,0.4v2.6l1.7,0.4v2.3l-8.9-2.6v-2.8l8.9-2.6V168.9z M43.2,169.7l-1.5,0.3
			c-0.2,0-0.4,0.1-0.7,0.2c-0.3,0.1-0.6,0.1-0.9,0.2s-0.6,0.1-0.8,0.2c0.2,0,0.5,0.1,0.8,0.1s0.6,0.1,0.9,0.2
			c0.3,0.1,0.5,0.1,0.7,0.2l1.5,0.3V169.7z"/>
		<path class="st2" d="M39.8,162.2c0,0.3,0.1,0.5,0.2,0.7c0.1,0.2,0.3,0.4,0.5,0.5c0.2,0.1,0.5,0.2,0.8,0.3c0.3,0.1,0.7,0.1,1.1,0.1
			c0.6,0,1-0.1,1.4-0.2c0.4-0.1,0.7-0.3,0.9-0.6c0.2-0.3,0.3-0.6,0.3-1c0-0.4-0.1-0.7-0.2-1c-0.1-0.3-0.2-0.7-0.4-1h2
			c0.2,0.3,0.3,0.7,0.4,1.1c0.1,0.4,0.1,0.8,0.1,1.2c0,0.9-0.2,1.6-0.6,2.1c-0.4,0.5-0.9,0.9-1.6,1.2s-1.5,0.4-2.4,0.4
			c-0.7,0-1.3-0.1-1.9-0.3c-0.6-0.2-1-0.4-1.5-0.7c-0.4-0.3-0.7-0.7-1-1.2c-0.2-0.5-0.3-1-0.3-1.6c0-0.4,0-0.8,0.1-1.2
			c0.1-0.4,0.3-0.8,0.5-1.2l1.9,0.7c-0.2,0.3-0.3,0.6-0.4,0.9S39.8,161.8,39.8,162.2z"/>
		<path class="st2" d="M46.8,158.5h-8.9v-2.1h8.9V158.5z"/>
		<path class="st2" d="M46.8,151.2v2.1h-6.9v1.9h-2v-6h2v1.9H46.8z"/>
		<path class="st2" d="M46.8,143.5v4.7h-8.9v-4.7h1.9v2.6h1.4v-2.4h1.9v2.4h1.7v-2.6H46.8z"/>
		<path class="st2" d="M42.2,132.5c1,0,1.9,0.2,2.6,0.5s1.2,0.8,1.5,1.4s0.5,1.3,0.5,2.2v2.5h-8.9v-2.7c0-0.8,0.2-1.6,0.5-2.2
			c0.3-0.6,0.8-1,1.4-1.3C40.5,132.7,41.3,132.5,42.2,132.5z M42.3,134.7c-0.5,0-1,0.1-1.3,0.2c-0.4,0.1-0.6,0.3-0.8,0.6
			c-0.2,0.3-0.3,0.6-0.3,1v0.6h5v-0.5c0-0.6-0.2-1.1-0.6-1.4C43.8,134.9,43.1,134.7,42.3,134.7z"/>
		<path class="st2" d="M37.9,129.4l0.1-0.1c0.3,0.1,0.7,0.1,1.1,0.3c0.4,0.1,0.8,0.2,1.3,0.3c0.4,0.1,0.8,0.2,1.1,0.4v1.5
			c-0.3-0.1-0.6-0.1-0.9-0.2c-0.3-0.1-0.6-0.1-0.9-0.1s-0.6-0.1-0.9-0.1c-0.3,0-0.6-0.1-0.8-0.1V129.4z"/>
		<path class="st2" d="M46.8,123.5l-1.7,0.4v2.6l1.7,0.4v2.3l-8.9-2.6v-2.8l8.9-2.6V123.5z M43.2,124.3l-1.5,0.3
			c-0.2,0-0.4,0.1-0.7,0.2c-0.3,0.1-0.6,0.1-0.9,0.2s-0.6,0.1-0.8,0.2c0.2,0,0.5,0.1,0.8,0.1s0.6,0.1,0.9,0.2
			c0.3,0.1,0.5,0.1,0.7,0.2l1.5,0.3V124.3z"/>
		<path class="st2" d="M42.2,113.6c1,0,1.9,0.2,2.6,0.5c0.7,0.3,1.2,0.8,1.5,1.4c0.3,0.6,0.5,1.3,0.5,2.2v2.6h-8.9v-2.7
			c0-0.8,0.2-1.6,0.5-2.2c0.3-0.6,0.8-1,1.4-1.3C40.5,113.8,41.3,113.6,42.2,113.6z M42.3,115.8c-0.5,0-1,0.1-1.3,0.2
			c-0.4,0.1-0.6,0.3-0.8,0.6c-0.2,0.3-0.3,0.6-0.3,1v0.6h5v-0.5c0-0.6-0.2-1.1-0.6-1.4C43.8,116,43.1,115.8,42.3,115.8z"/>
		<path class="st2" d="M46.8,107.4l-1.7,0.4v2.6l1.7,0.4v2.3l-8.9-2.6v-2.8l8.9-2.6V107.4z M43.2,108.2l-1.5,0.3
			c-0.2,0-0.4,0.1-0.7,0.2c-0.3,0.1-0.6,0.1-0.9,0.2c-0.3,0.1-0.6,0.1-0.8,0.2c0.2,0,0.5,0.1,0.8,0.1c0.3,0.1,0.6,0.1,0.9,0.2
			c0.3,0.1,0.5,0.1,0.7,0.2l1.5,0.3V108.2z"/>
		<path class="st2" d="M37.9,101.5c0-1,0.2-1.7,0.7-2.2c0.5-0.5,1.2-0.7,2.1-0.7c0.4,0,0.8,0.1,1.2,0.2c0.4,0.1,0.7,0.3,1,0.5
			s0.5,0.5,0.7,0.9c0.2,0.4,0.3,0.9,0.3,1.4v0.6h3v2.1h-8.9V101.5z M39.9,101.5v0.5h2v-0.4c0-0.2,0-0.4-0.1-0.5
			c-0.1-0.2-0.2-0.3-0.3-0.4c-0.2-0.1-0.4-0.1-0.6-0.1c-0.3,0-0.5,0.1-0.7,0.2C39.9,101,39.9,101.2,39.9,101.5z"/>
		<path class="st2" d="M46.8,93.7v2.1h-6.9v1.9h-2v-6h2v1.9H46.8z"/>
		<path class="st2" d="M46.8,85.9l-1.7,0.4v2.6l1.7,0.4v2.3L37.9,89v-2.8l8.9-2.6V85.9z M43.2,86.7L41.7,87c-0.2,0-0.4,0.1-0.7,0.2
			c-0.3,0.1-0.6,0.1-0.9,0.2c-0.3,0.1-0.6,0.1-0.8,0.2c0.2,0,0.5,0.1,0.8,0.1c0.3,0.1,0.6,0.1,0.9,0.2c0.3,0.1,0.5,0.1,0.7,0.2
			l1.5,0.3V86.7z"/>
		<path class="st2" d="M46.8,79.2v2.1h-6.9v1.9h-2v-6h2v1.9H46.8z"/>
		<path class="st2" d="M46.8,76.1h-8.9V74h8.9V76.1z"/>
		<path class="st2" d="M42.4,64.9c0.7,0,1.3,0.1,1.9,0.2c0.6,0.1,1,0.4,1.5,0.7s0.7,0.7,0.9,1.2c0.2,0.5,0.3,1.1,0.3,1.7
			c0,0.7-0.1,1.2-0.3,1.7c-0.2,0.5-0.5,0.9-0.9,1.2c-0.4,0.3-0.9,0.5-1.5,0.7c-0.6,0.2-1.2,0.2-1.9,0.2c-0.9,0-1.7-0.1-2.4-0.4
			s-1.2-0.7-1.6-1.3c-0.4-0.6-0.6-1.3-0.6-2.2c0-0.9,0.2-1.6,0.6-2.2c0.4-0.6,0.9-1,1.6-1.2C40.6,65.1,41.4,64.9,42.4,64.9z
			 M42.4,70.4c0.5,0,1-0.1,1.4-0.2c0.4-0.1,0.7-0.3,0.9-0.5c0.2-0.2,0.3-0.5,0.3-0.9c0-0.4-0.1-0.7-0.3-0.9
			c-0.2-0.2-0.5-0.4-0.9-0.5c-0.4-0.1-0.8-0.2-1.4-0.2c-0.8,0-1.4,0.1-1.9,0.4c-0.5,0.2-0.7,0.6-0.7,1.2c0,0.4,0.1,0.7,0.3,0.9
			c0.2,0.2,0.5,0.4,0.9,0.5S41.8,70.4,42.4,70.4z"/>
		<path class="st2" d="M46.8,56v2.8l-6.3,2.9v0c0.2,0,0.4,0,0.7,0c0.3,0,0.5,0,0.8,0s0.5,0,0.8,0h4v1.9h-8.9v-2.8l6.2-2.9v0
			c-0.2,0-0.4,0-0.7,0c-0.3,0-0.5,0-0.8,0c-0.3,0-0.5,0-0.7,0h-4V56H46.8z"/>
	</g>
	<g>
		<path class="st2" d="M75.5,157.8h-4.4v-16.6h9.8v3.6h-5.4v3.2h5v3.6h-5V157.8z"/>
		<path class="st2" d="M99.2,149.5c0,1.3-0.2,2.4-0.5,3.5s-0.8,2-1.4,2.7c-0.7,0.8-1.5,1.3-2.5,1.7c-1,0.4-2.2,0.6-3.7,0.6
			c-1.4,0-2.6-0.2-3.6-0.6c-1-0.4-1.9-1-2.5-1.7c-0.7-0.8-1.1-1.7-1.5-2.7c-0.3-1.1-0.5-2.2-0.5-3.5c0-1.7,0.3-3.2,0.9-4.5
			c0.6-1.3,1.5-2.3,2.7-3c1.2-0.7,2.7-1.1,4.6-1.1c1.9,0,3.4,0.4,4.6,1.1c1.2,0.7,2.1,1.7,2.6,3C98.9,146.2,99.2,147.7,99.2,149.5z
			 M87.7,149.5c0,1,0.1,1.9,0.3,2.6c0.2,0.7,0.6,1.3,1.1,1.7c0.5,0.4,1.1,0.6,1.9,0.6c0.8,0,1.5-0.2,2-0.6c0.5-0.4,0.8-0.9,1.1-1.7
			c0.2-0.7,0.3-1.6,0.3-2.6c0-1.5-0.3-2.7-0.7-3.6c-0.5-0.9-1.4-1.3-2.6-1.3c-0.8,0-1.5,0.2-2,0.6c-0.5,0.4-0.9,1-1.1,1.7
			C87.8,147.6,87.7,148.5,87.7,149.5z"/>
		<path class="st2" d="M107.6,141.2c1.5,0,2.8,0.2,3.8,0.6c1,0.4,1.8,0.9,2.3,1.6c0.5,0.7,0.8,1.6,0.8,2.7c0,0.7-0.1,1.3-0.3,1.8
			s-0.6,1-1,1.5s-0.9,0.8-1.5,1.1l4.8,7.2h-5.1l-3.5-6h-1.1v6h-4.5v-16.6H107.6z M107.5,144.6h-0.9v3.8h0.8c0.7,0,1.3-0.2,1.7-0.5
			c0.4-0.3,0.7-0.8,0.7-1.6c0-0.5-0.2-1-0.5-1.3C108.9,144.7,108.3,144.6,107.5,144.6z"/>
		<path class="st2" d="M125.3,144.6c-0.5,0-1,0.1-1.4,0.3c-0.4,0.2-0.8,0.5-1.1,1s-0.5,0.9-0.7,1.6c-0.2,0.6-0.2,1.3-0.2,2.1
			c0,1,0.1,1.9,0.4,2.6c0.3,0.7,0.7,1.3,1.2,1.6c0.5,0.4,1.2,0.5,2,0.5c0.7,0,1.5-0.1,2.1-0.3c0.7-0.2,1.4-0.5,2.1-0.7v3.8
			c-0.7,0.3-1.5,0.6-2.3,0.7c-0.8,0.1-1.6,0.2-2.4,0.2c-1.8,0-3.3-0.4-4.4-1.1c-1.1-0.7-2-1.7-2.5-3s-0.8-2.7-0.8-4.4
			c0-1.3,0.2-2.4,0.5-3.5s0.9-2,1.6-2.7c0.7-0.8,1.5-1.4,2.5-1.8c1-0.4,2.2-0.6,3.4-0.6c0.8,0,1.6,0.1,2.5,0.3
			c0.9,0.2,1.8,0.5,2.6,0.9l-1.4,3.5c-0.6-0.3-1.2-0.5-1.8-0.7C126.6,144.7,126,144.6,125.3,144.6z"/>
		<path class="st2" d="M142.9,157.8H133v-16.6h9.9v3.6h-5.4v2.6h5v3.6h-5v3.1h5.4V157.8z"/>
		<path class="st2" d="M165.9,149.1c0,1.9-0.4,3.5-1.1,4.8c-0.7,1.3-1.7,2.2-3,2.9c-1.3,0.6-2.8,1-4.6,1h-5.4v-16.6h5.7
			c1.8,0,3.3,0.3,4.5,0.9s2.2,1.5,2.8,2.7C165.6,146,165.9,147.4,165.9,149.1z M161.2,149.3c0-1-0.1-1.8-0.4-2.5
			c-0.3-0.7-0.7-1.2-1.2-1.5c-0.5-0.3-1.2-0.5-2-0.5h-1.3v9.3h1c1.4,0,2.4-0.4,3-1.2C160.9,152.1,161.2,150.9,161.2,149.3z"/>
		<path class="st2" d="M178.7,157.8h-9.9v-16.6h9.9v3.6h-5.4v2.6h5v3.6h-5v3.1h5.4V157.8z"/>
		<path class="st2" d="M193.4,141.2c2.1,0,3.7,0.5,4.7,1.4c1,0.9,1.6,2.2,1.6,3.9c0,0.8-0.1,1.5-0.3,2.2c-0.2,0.7-0.6,1.3-1.1,1.9
			c-0.5,0.5-1.1,1-1.9,1.3c-0.8,0.3-1.8,0.5-3,0.5h-1.3v5.5h-4.5v-16.6H193.4z M193.3,144.8h-1.2v3.8h0.9c0.4,0,0.7-0.1,1.1-0.2
			c0.3-0.1,0.6-0.3,0.8-0.6c0.2-0.3,0.3-0.7,0.3-1.2c0-0.5-0.2-0.9-0.5-1.3C194.5,145,194,144.8,193.3,144.8z"/>
		<path class="st2" d="M207.8,141.2c1.5,0,2.8,0.2,3.8,0.6c1,0.4,1.8,0.9,2.3,1.6c0.5,0.7,0.8,1.6,0.8,2.7c0,0.7-0.1,1.3-0.3,1.8
			c-0.2,0.6-0.6,1-1,1.5c-0.4,0.4-0.9,0.8-1.5,1.1l4.8,7.2h-5.1l-3.5-6h-1.1v6h-4.5v-16.6H207.8z M207.8,144.6h-0.9v3.8h0.8
			c0.7,0,1.3-0.2,1.7-0.5c0.4-0.3,0.7-0.8,0.7-1.6c0-0.5-0.2-1-0.5-1.3S208.6,144.6,207.8,144.6z"/>
		<path class="st2" d="M233.7,149.5c0,1.3-0.2,2.4-0.5,3.5c-0.3,1-0.8,2-1.4,2.7c-0.7,0.8-1.5,1.3-2.5,1.7c-1,0.4-2.2,0.6-3.7,0.6
			c-1.4,0-2.6-0.2-3.6-0.6c-1-0.4-1.9-1-2.5-1.7c-0.7-0.8-1.1-1.7-1.5-2.7c-0.3-1.1-0.5-2.2-0.5-3.5c0-1.7,0.3-3.2,0.9-4.5
			c0.6-1.3,1.5-2.3,2.7-3c1.2-0.7,2.7-1.1,4.6-1.1c1.9,0,3.4,0.4,4.6,1.1c1.2,0.7,2.1,1.7,2.6,3
			C233.4,146.2,233.7,147.7,233.7,149.5z M222.2,149.5c0,1,0.1,1.9,0.3,2.6c0.2,0.7,0.6,1.3,1.1,1.7c0.5,0.4,1.1,0.6,1.9,0.6
			c0.8,0,1.5-0.2,2-0.6c0.5-0.4,0.8-0.9,1.1-1.7c0.2-0.7,0.3-1.6,0.3-2.6c0-1.5-0.3-2.7-0.8-3.6s-1.4-1.3-2.6-1.3
			c-0.8,0-1.5,0.2-2,0.6s-0.9,1-1.1,1.7C222.4,147.6,222.2,148.5,222.2,149.5z"/>
		<path class="st2" d="M242.4,141.2c2.1,0,3.7,0.5,4.7,1.4c1,0.9,1.6,2.2,1.6,3.9c0,0.8-0.1,1.5-0.3,2.2c-0.2,0.7-0.6,1.3-1.1,1.9
			c-0.5,0.5-1.1,1-1.9,1.3s-1.8,0.5-3,0.5h-1.3v5.5h-4.5v-16.6H242.4z M242.3,144.8h-1.2v3.8h0.9c0.4,0,0.7-0.1,1.1-0.2
			c0.3-0.1,0.6-0.3,0.8-0.6c0.2-0.3,0.3-0.7,0.3-1.2c0-0.5-0.2-0.9-0.5-1.3C243.5,145,243,144.8,242.3,144.8z"/>
		<path class="st2" d="M266.9,149.5c0,1.3-0.2,2.4-0.5,3.5c-0.3,1-0.8,2-1.4,2.7c-0.7,0.8-1.5,1.3-2.5,1.7c-1,0.4-2.2,0.6-3.7,0.6
			c-1.4,0-2.6-0.2-3.6-0.6c-1-0.4-1.9-1-2.5-1.7c-0.7-0.8-1.1-1.7-1.5-2.7c-0.3-1.1-0.5-2.2-0.5-3.5c0-1.7,0.3-3.2,0.9-4.5
			c0.6-1.3,1.5-2.3,2.7-3c1.2-0.7,2.7-1.1,4.6-1.1c1.9,0,3.4,0.4,4.6,1.1c1.2,0.7,2.1,1.7,2.6,3
			C266.6,146.2,266.9,147.7,266.9,149.5z M255.5,149.5c0,1,0.1,1.9,0.3,2.6c0.2,0.7,0.6,1.3,1.1,1.7c0.5,0.4,1.1,0.6,1.9,0.6
			c0.8,0,1.5-0.2,2-0.6c0.5-0.4,0.8-0.9,1.1-1.7c0.2-0.7,0.3-1.6,0.3-2.6c0-1.5-0.3-2.7-0.8-3.6s-1.4-1.3-2.6-1.3
			c-0.8,0-1.5,0.2-2,0.6s-0.9,1-1.1,1.7C255.6,147.6,255.5,148.5,255.5,149.5z"/>
		<path class="st2" d="M280.8,152.8c0,0.9-0.2,1.8-0.7,2.6c-0.5,0.8-1.2,1.5-2.1,2s-2.2,0.8-3.7,0.8c-0.8,0-1.4,0-2-0.1
			c-0.6-0.1-1.1-0.2-1.6-0.3s-1-0.4-1.5-0.6v-4c0.9,0.5,1.8,0.8,2.7,1c0.9,0.2,1.7,0.4,2.5,0.4c0.4,0,0.8-0.1,1.1-0.2
			c0.3-0.1,0.5-0.3,0.6-0.4c0.1-0.2,0.2-0.4,0.2-0.6c0-0.3-0.1-0.5-0.3-0.7c-0.2-0.2-0.5-0.4-1-0.6s-1-0.5-1.7-0.8
			c-0.6-0.3-1.2-0.6-1.7-0.9c-0.5-0.3-0.9-0.6-1.3-1c-0.4-0.4-0.6-0.8-0.8-1.4s-0.3-1.1-0.3-1.9c0-1.1,0.3-2,0.8-2.7
			c0.5-0.7,1.3-1.3,2.2-1.6c0.9-0.4,2-0.5,3.3-0.5c1.1,0,2.1,0.1,2.9,0.4s1.6,0.5,2.3,0.8l-1.4,3.5c-0.7-0.3-1.4-0.6-2.1-0.8
			c-0.7-0.2-1.3-0.3-1.9-0.3c-0.4,0-0.7,0-0.9,0.1s-0.4,0.2-0.5,0.4c-0.1,0.2-0.2,0.3-0.2,0.5c0,0.3,0.1,0.5,0.3,0.7
			c0.2,0.2,0.5,0.4,1,0.7c0.5,0.2,1.1,0.5,1.9,0.9c0.8,0.4,1.5,0.8,2.1,1.2c0.6,0.4,1,0.9,1.3,1.5
			C280.6,151.2,280.8,151.9,280.8,152.8z"/>
		<path class="st2" d="M283.3,157.8v-16.6h4.5v16.6H283.3z"/>
		<path class="st2" d="M298.8,157.8h-4.5v-12.9h-4.1v-3.7h12.6v3.7h-4V157.8z"/>
		<path class="st2" d="M305.2,157.8v-16.6h4.5v16.6H305.2z"/>
		<path class="st2" d="M328.8,149.5c0,1.3-0.2,2.4-0.5,3.5c-0.3,1-0.8,2-1.4,2.7c-0.7,0.8-1.5,1.3-2.5,1.7c-1,0.4-2.2,0.6-3.7,0.6
			c-1.4,0-2.6-0.2-3.6-0.6c-1-0.4-1.9-1-2.5-1.7c-0.7-0.8-1.1-1.7-1.5-2.7c-0.3-1.1-0.5-2.2-0.5-3.5c0-1.7,0.3-3.2,0.9-4.5
			c0.6-1.3,1.5-2.3,2.7-3c1.2-0.7,2.7-1.1,4.6-1.1c1.9,0,3.4,0.4,4.6,1.1c1.2,0.7,2.1,1.7,2.6,3
			C328.5,146.2,328.8,147.7,328.8,149.5z M317.4,149.5c0,1,0.1,1.9,0.3,2.6c0.2,0.7,0.6,1.3,1.1,1.7c0.5,0.4,1.1,0.6,1.9,0.6
			c0.8,0,1.5-0.2,2-0.6c0.5-0.4,0.8-0.9,1.1-1.7c0.2-0.7,0.3-1.6,0.3-2.6c0-1.5-0.3-2.7-0.8-3.6s-1.4-1.3-2.6-1.3
			c-0.8,0-1.5,0.2-2,0.6s-0.9,1-1.1,1.7C317.5,147.6,317.4,148.5,317.4,149.5z"/>
		<path class="st2" d="M347.6,157.8h-5.9l-6.1-11.7h-0.1c0,0.4,0.1,0.8,0.1,1.3c0,0.5,0.1,1,0.1,1.5s0,1,0,1.4v7.5h-4v-16.6h5.9
			l6,11.5h0.1c0-0.4,0-0.8-0.1-1.3c0-0.5,0-1-0.1-1.5c0-0.5,0-0.9,0-1.3v-7.5h4V157.8z"/>
	</g>
	<g>
		<path class="st2" d="M80.6,85l-0.4-1.5h-2.6L77.2,85h-2.4l2.6-8.1h2.9L83,85H80.6z M79.8,81.6l-0.3-1.3c0-0.1-0.1-0.3-0.2-0.6
			c-0.1-0.3-0.1-0.5-0.2-0.8s-0.1-0.5-0.2-0.7c0,0.2-0.1,0.4-0.1,0.7s-0.1,0.5-0.2,0.8c-0.1,0.3-0.1,0.5-0.2,0.7l-0.3,1.3H79.8z"/>
		<path class="st2" d="M87.1,80.2h3.5v4.4c-0.4,0.1-0.9,0.3-1.4,0.4s-1.1,0.1-1.7,0.1c-0.8,0-1.5-0.2-2-0.5s-1-0.8-1.4-1.4
			s-0.5-1.4-0.5-2.3c0-0.8,0.2-1.6,0.5-2.2c0.3-0.6,0.8-1.1,1.4-1.4s1.4-0.5,2.3-0.5c0.5,0,1,0,1.4,0.1c0.5,0.1,0.8,0.2,1.2,0.4
			L89.8,79c-0.3-0.1-0.6-0.3-0.9-0.3c-0.3-0.1-0.7-0.1-1-0.1c-0.5,0-0.9,0.1-1.2,0.3c-0.3,0.2-0.5,0.5-0.6,0.9
			c-0.1,0.4-0.2,0.8-0.2,1.2c0,0.5,0.1,0.9,0.2,1.3s0.4,0.6,0.6,0.8c0.3,0.2,0.6,0.3,1,0.3c0.1,0,0.3,0,0.5,0c0.2,0,0.3,0,0.4-0.1
			v-1.3h-1.4V80.2z"/>
		<path class="st2" d="M92.3,85v-8.1h2.2V85H92.3z"/>
		<path class="st2" d="M96.2,85v-8.1h2.2v6.3h3.1V85H96.2z"/>
		<path class="st2" d="M102.8,85v-8.1h2.2V85H102.8z"/>
		<path class="st2" d="M110.4,85h-2.2v-6.3h-2v-1.8h6.1v1.8h-2V85z"/>
		<path class="st2" d="M118.3,85h-4.8v-8.1h4.8v1.8h-2.6v1.3h2.4v1.8h-2.4v1.5h2.6V85z M118.6,74.4v0.1c-0.1,0.1-0.3,0.2-0.5,0.4
			c-0.2,0.2-0.4,0.3-0.7,0.5c-0.2,0.2-0.5,0.3-0.7,0.5c-0.2,0.1-0.4,0.3-0.6,0.4h-1.4v-0.2c0.1-0.1,0.3-0.3,0.5-0.5
			c0.2-0.2,0.4-0.4,0.5-0.6c0.2-0.2,0.3-0.4,0.5-0.6H118.6z"/>
		<path class="st2" d="M130.2,80.9c0,0.6-0.1,1.2-0.2,1.7s-0.4,1-0.7,1.3s-0.7,0.7-1.2,0.9c-0.5,0.2-1.1,0.3-1.8,0.3
			c-0.7,0-1.3-0.1-1.8-0.3s-0.9-0.5-1.2-0.8c-0.3-0.4-0.6-0.8-0.7-1.3s-0.2-1.1-0.2-1.7c0-0.8,0.1-1.6,0.4-2.2
			c0.3-0.6,0.7-1.1,1.3-1.4c0.6-0.3,1.3-0.5,2.2-0.5c0.9,0,1.7,0.2,2.3,0.5c0.6,0.3,1,0.8,1.3,1.5C130.1,79.3,130.2,80.1,130.2,80.9
			z M124.7,80.9c0,0.5,0.1,0.9,0.2,1.3s0.3,0.6,0.5,0.8c0.2,0.2,0.6,0.3,0.9,0.3c0.4,0,0.7-0.1,1-0.3c0.2-0.2,0.4-0.5,0.5-0.8
			c0.1-0.4,0.2-0.8,0.2-1.3c0-0.7-0.1-1.3-0.4-1.7c-0.2-0.4-0.7-0.6-1.3-0.6c-0.4,0-0.7,0.1-1,0.3c-0.2,0.2-0.4,0.5-0.5,0.8
			C124.7,80,124.7,80.4,124.7,80.9z"/>
		<path class="st2" d="M134.4,76.9c0.7,0,1.3,0.1,1.8,0.3s0.9,0.4,1.1,0.8c0.2,0.4,0.4,0.8,0.4,1.3c0,0.3-0.1,0.6-0.2,0.9
			c-0.1,0.3-0.3,0.5-0.5,0.7s-0.4,0.4-0.7,0.6l2.4,3.5h-2.5l-1.7-2.9h-0.6V85h-2.2v-8.1H134.4z M134.3,78.5h-0.4v1.8h0.4
			c0.3,0,0.6-0.1,0.8-0.2c0.2-0.1,0.3-0.4,0.3-0.8c0-0.3-0.1-0.5-0.3-0.6C135,78.6,134.7,78.5,134.3,78.5z"/>
		<path class="st2" d="M142.6,80.2h3.5v4.4c-0.4,0.1-0.9,0.3-1.4,0.4s-1.1,0.1-1.7,0.1c-0.8,0-1.5-0.2-2-0.5s-1-0.8-1.4-1.4
			s-0.5-1.4-0.5-2.3c0-0.8,0.2-1.6,0.5-2.2c0.3-0.6,0.8-1.1,1.4-1.4s1.4-0.5,2.3-0.5c0.5,0,1,0,1.4,0.1c0.5,0.1,0.8,0.2,1.2,0.4
			l-0.7,1.7c-0.3-0.1-0.6-0.3-0.9-0.3c-0.3-0.1-0.7-0.1-1-0.1c-0.5,0-0.9,0.1-1.2,0.3c-0.3,0.2-0.5,0.5-0.6,0.9
			c-0.1,0.4-0.2,0.8-0.2,1.2c0,0.5,0.1,0.9,0.2,1.3s0.4,0.6,0.6,0.8c0.3,0.2,0.6,0.3,1,0.3c0.1,0,0.3,0,0.5,0c0.2,0,0.3,0,0.4-0.1
			v-1.3h-1.4V80.2z"/>
		<path class="st2" d="M152.7,85l-0.4-1.5h-2.6l-0.4,1.5h-2.4l2.6-8.1h2.9l2.7,8.1H152.7z M151.9,81.6l-0.3-1.3
			c0-0.1-0.1-0.3-0.2-0.6c-0.1-0.3-0.1-0.5-0.2-0.8s-0.1-0.5-0.2-0.7c0,0.2-0.1,0.4-0.1,0.7s-0.1,0.5-0.2,0.8
			c-0.1,0.3-0.1,0.5-0.2,0.7l-0.3,1.3H151.9z"/>
		<path class="st2" d="M163.7,85h-2.9l-3-5.7h0c0,0.2,0,0.4,0,0.6c0,0.2,0,0.5,0,0.7c0,0.3,0,0.5,0,0.7V85H156v-8.1h2.9l2.9,5.6h0
			c0-0.2,0-0.4,0-0.6c0-0.2,0-0.5,0-0.7c0-0.2,0-0.5,0-0.6v-3.7h1.9V85z"/>
		<path class="st2" d="M165.5,85v-8.1h2.2V85H165.5z"/>
		<path class="st2" d="M174.7,82.5c0,0.4-0.1,0.9-0.3,1.2c-0.2,0.4-0.6,0.7-1,1c-0.5,0.2-1.1,0.4-1.8,0.4c-0.4,0-0.7,0-1,0
			c-0.3,0-0.5-0.1-0.8-0.2c-0.2-0.1-0.5-0.2-0.7-0.3v-1.9c0.4,0.2,0.9,0.4,1.3,0.5s0.9,0.2,1.2,0.2c0.2,0,0.4,0,0.5-0.1
			c0.1-0.1,0.2-0.1,0.3-0.2c0.1-0.1,0.1-0.2,0.1-0.3c0-0.1,0-0.3-0.1-0.4c-0.1-0.1-0.3-0.2-0.5-0.3c-0.2-0.1-0.5-0.2-0.8-0.4
			c-0.3-0.1-0.6-0.3-0.8-0.4c-0.2-0.1-0.4-0.3-0.6-0.5c-0.2-0.2-0.3-0.4-0.4-0.7s-0.1-0.6-0.1-0.9c0-0.5,0.1-1,0.4-1.3
			c0.3-0.4,0.6-0.6,1.1-0.8c0.5-0.2,1-0.3,1.6-0.3c0.5,0,1,0.1,1.4,0.2s0.8,0.3,1.1,0.4L174,79c-0.3-0.2-0.7-0.3-1-0.4
			s-0.6-0.1-0.9-0.1c-0.2,0-0.3,0-0.5,0.1c-0.1,0-0.2,0.1-0.3,0.2c-0.1,0.1-0.1,0.2-0.1,0.3c0,0.1,0,0.2,0.1,0.3
			c0.1,0.1,0.3,0.2,0.5,0.3c0.2,0.1,0.5,0.3,0.9,0.5c0.4,0.2,0.7,0.4,1,0.6c0.3,0.2,0.5,0.5,0.6,0.7S174.7,82.1,174.7,82.5z"/>
		<path class="st2" d="M180.9,85l-0.4-1.5h-2.6l-0.4,1.5h-2.4l2.6-8.1h2.9l2.7,8.1H180.9z M180.1,81.6l-0.3-1.3
			c0-0.1-0.1-0.3-0.2-0.6c-0.1-0.3-0.1-0.5-0.2-0.8s-0.1-0.5-0.2-0.7c0,0.2-0.1,0.4-0.1,0.7s-0.1,0.5-0.2,0.8
			c-0.1,0.3-0.1,0.5-0.2,0.7l-0.3,1.3H180.1z"/>
		<path class="st2" d="M187.8,85h-2.2v-6.3h-2v-1.8h6.1v1.8h-2V85z"/>
		<path class="st2" d="M190.9,85v-8.1h2.2V85H190.9z"/>
		<path class="st2" d="M202.4,80.9c0,0.6-0.1,1.2-0.2,1.7s-0.4,1-0.7,1.3s-0.7,0.7-1.2,0.9c-0.5,0.2-1.1,0.3-1.8,0.3
			c-0.7,0-1.3-0.1-1.8-0.3s-0.9-0.5-1.2-0.8c-0.3-0.4-0.6-0.8-0.7-1.3s-0.2-1.1-0.2-1.7c0-0.8,0.1-1.6,0.4-2.2
			c0.3-0.6,0.7-1.1,1.3-1.4c0.6-0.3,1.3-0.5,2.2-0.5c0.9,0,1.7,0.2,2.3,0.5c0.6,0.3,1,0.8,1.3,1.5C202.3,79.3,202.4,80.1,202.4,80.9
			z M196.8,80.9c0,0.5,0.1,0.9,0.2,1.3s0.3,0.6,0.5,0.8c0.2,0.2,0.6,0.3,0.9,0.3c0.4,0,0.7-0.1,1-0.3c0.2-0.2,0.4-0.5,0.5-0.8
			c0.1-0.4,0.2-0.8,0.2-1.3c0-0.7-0.1-1.3-0.4-1.7c-0.2-0.4-0.7-0.6-1.3-0.6c-0.4,0-0.7,0.1-1,0.3c-0.2,0.2-0.4,0.5-0.5,0.8
			C196.9,80,196.8,80.4,196.8,80.9z"/>
		<path class="st2" d="M211.6,85h-2.9l-3-5.7h0c0,0.2,0,0.4,0,0.6c0,0.2,0,0.5,0,0.7c0,0.3,0,0.5,0,0.7V85h-1.9v-8.1h2.9l2.9,5.6h0
			c0-0.2,0-0.4,0-0.6c0-0.2,0-0.5,0-0.7c0-0.2,0-0.5,0-0.6v-3.7h1.9V85z"/>
		<path class="st2" d="M221.1,85h-2.9l-3-5.7h0c0,0.2,0,0.4,0,0.6s0,0.5,0,0.7s0,0.5,0,0.7V85h-1.9v-8.1h2.9l2.9,5.6h0
			c0-0.2,0-0.4,0-0.6c0-0.2,0-0.5,0-0.7c0-0.2,0-0.5,0-0.6v-3.7h1.9V85z"/>
		<path class="st2" d="M227.6,85h-4.8v-8.1h4.8v1.8H225v1.3h2.4v1.8H225v1.5h2.6V85z"/>
		<path class="st2" d="M229,85v-8.1h2.2v6.3h3.1V85H229z"/>
		<path class="st2" d="M235.6,85v-8.1h2.2v6.3h3.1V85H235.6z"/>
		<path class="st2" d="M247,85h-4.8v-8.1h4.8v1.8h-2.6v1.3h2.4v1.8h-2.4v1.5h2.6V85z"/>
	</g>
</g>
</svg>
