<svg id="Calque_1" data-name="Calque 1" xmlns="http://www.w3.org/2000/svg" viewBox="0 0 445.85 189.65"><defs><style>.cls-1{fill:none;stroke:#fcd6b6;stroke-miterlimit:10;stroke-width:4px;}.cls-2{fill:#fcd6b6;}.cls-3{fill:#f6a96f;}.cls-4{font-size:17.05px;}.cls-10,.cls-11,.cls-4,.cls-5,.cls-6,.cls-7,.cls-8,.cls-9{fill:#888989;font-family:OpenSans-ExtraBold, Open Sans;font-weight:800;}.cls-5{font-size:16.47px;}.cls-6{font-size:18.28px;}.cls-7{font-size:24.24px;}.cls-8{font-size:16.45px;}.cls-9{font-size:12.46px;}.cls-10{font-size:23.26px;}.cls-11{font-size:11.34px;}</style></defs><path class="cls-1" d="M8.81,88.46V32.69a6.59,6.59,0,0,1,6.59-6.58H192.3a6.59,6.59,0,0,1,6.59,6.58V88.46a6.59,6.59,0,0,1-6.59,6.59" transform="translate(-6.81 -8.73)"/><rect class="cls-2" x="62.47" y="44.47" width="228.96" height="83.71" rx="6.59"/><rect class="cls-1" x="140.17" y="35.28" width="210.14" height="122.34" rx="6.59"/><path class="cls-3" d="M353.55,8.76a15.29,15.29,0,0,0-2.87.28c-.05,0-.72,4.77-1,6.93-.36,2.92-.36,2.89-.64,2.88a11.46,11.46,0,0,0-1.51.32,23.38,23.38,0,0,0-3.74,1.48c-2,1-2.5,1.13-2.64,1l-1.67-1.48c-1.16-1-4.48-3.89-5.4-4.63-.26-.2-4.16,3-5.87,4.76-1.55,1.63-2.48,2.75-2.39,2.89s1.19,1.58,2.55,3.35l2.89,3.75.42.54-.78,1.35a25.49,25.49,0,0,0-2.51,6,2.08,2.08,0,0,1-.23.7s-2.2.17-4.78.34-4.75.33-4.83.37c-.32.19-.72,4.1-.7,6.79a32,32,0,0,0,.23,4.33l.06.3,2.74.34,4.84.58,2.09.25.27,1.19a28.35,28.35,0,0,0,2,5.42l.63,1.31-.26.3c-.14.17-1.59,1.81-3.23,3.64s-3,3.37-3,3.4a56.48,56.48,0,0,0,5.31,6.38,15.4,15.4,0,0,0,2.22,1.8A57.08,57.08,0,0,0,338.05,71c.8-.65,1.51-1.19,1.58-1.22a3.8,3.8,0,0,1,1.07.59,24.09,24.09,0,0,0,5.11,2.43c1.95.64,1.93.63,2,1.06,0,.21.17,2.37.33,4.81s.29,4.45.31,4.49a22.53,22.53,0,0,0,4.8.58c2.94.15,6.37.07,6.47-.17s.47-2.85.91-6.17a19.17,19.17,0,0,1,.57-3.41,13.55,13.55,0,0,1,1.46-.41,22.68,22.68,0,0,0,5.27-2c1.12-.59,1.34-.67,1.5-.54s.68.6,1.29,1.17,2.13,1.89,3.39,3,2.3,2,2.35,2.1,2.83-1.94,4.57-3.59a33.93,33.93,0,0,0,3.62-4c.09-.14-.83-1.39-3.72-5.06-1.06-1.33-1.93-2.48-2-2.56a1.93,1.93,0,0,1,.43-.82,21,21,0,0,0,2.25-4.4c.25-.72.54-1.53.66-1.81a5.88,5.88,0,0,0,.32-1l.08-.47.88,0c5.21-.34,8.57-.57,8.62-.63a19.85,19.85,0,0,0,.63-3.68c.26-2.46.17-7-.17-7.38-.11-.13-4.36-.74-8.78-1.28-.6-.07-.81-.13-.81-.26a6.42,6.42,0,0,0-.25-1c-.13-.46-.39-1.35-.58-2A21.88,21.88,0,0,0,380.3,33c-.27-.46-.41-.81-.36-.9s1-1.16,2.11-2.42c1.64-1.86,3.57-4.1,4.08-4.74.14-.16-1.7-2.6-3.32-4.38s-4-3.9-4.24-3.79c-.06,0-1.83,1.37-3.9,3s-3.79,2.91-3.83,2.91a7.11,7.11,0,0,1-.61-.37c-.67-.44-3.27-1.77-4.45-2.3a19.76,19.76,0,0,0-2.08-.72l-1.24-.34,0-1.47c-.09-3.6-.48-8.08-.72-8.18a25.6,25.6,0,0,0-3-.42A44,44,0,0,0,353.55,8.76Zm4,23.76a13.12,13.12,0,0,1,8.88,5.61,12.83,12.83,0,0,1,2.53,8.3,12.62,12.62,0,0,1-1.69,6.44,13.63,13.63,0,0,1-6.38,5.89,12.49,12.49,0,0,1-6.62,1.14,12.83,12.83,0,0,1-6.93-2.43,13.8,13.8,0,0,1-5.49-14.66,13,13,0,0,1,4-6.72,13,13,0,0,1,7-3.59A28,28,0,0,1,357.52,32.52Z" transform="translate(-6.81 -8.73)"/><path class="cls-3" d="M352.27,34.67a12,12,0,0,0-5.17,2.83,10.78,10.78,0,0,0-3.62,6.91A11.71,11.71,0,0,0,348,55.57a11.2,11.2,0,0,0,4,2,14.43,14.43,0,0,0,5.57.16,12.51,12.51,0,0,0,3.65-1.52,13.64,13.64,0,0,0,4.68-5.42,8.88,8.88,0,0,0,.86-4.47,8.22,8.22,0,0,0-.21-3.18A12.07,12.07,0,0,0,358,34.67,15,15,0,0,0,352.27,34.67ZM357,37.5a10.35,10.35,0,0,1,2.92,1.21A9,9,0,0,1,362.49,51a10.46,10.46,0,0,1-1.35,1.52,9.2,9.2,0,0,1-4.32,2.34,12.2,12.2,0,0,1-4.07-.17,9.31,9.31,0,0,1-6-5.81,7.05,7.05,0,0,1-.31-2.7,7.9,7.9,0,0,1,.27-2.66,10.14,10.14,0,0,1,.64-1.65,9.08,9.08,0,0,1,6.23-4.45A12.4,12.4,0,0,1,357,37.5Z" transform="translate(-6.81 -8.73)"/><path class="cls-3" d="M399.75,58.63a53.18,53.18,0,0,0-6.24,1.08,4.45,4.45,0,0,1-.89.19,36.29,36.29,0,0,0-4.95,1.49l-1.81.65s.14,1.42,1.18,9.57a29.82,29.82,0,0,1,.29,3,26.53,26.53,0,0,1-2.41,1.49,31.41,31.41,0,0,0-5,3.68l-1.57,1.4-1.94-1c-2.32-1.2-5.63-2.85-7.7-3.83l-1.49-.7-.91,1.08a43.94,43.94,0,0,0-5,7.44,19.89,19.89,0,0,0-1.74,3.75c.09.16,5.41,4.36,7.82,6.19,1.6,1.22,2.14,1.68,2.09,1.81-.23.69-.86,3.11-1.09,4.23a23.39,23.39,0,0,0-.61,5.08l-.06,1.77-2.61.87c-3.26,1.09-8.06,2.75-8.78,3l-.55.22.05.53c.1,1.06.71,5.19.8,5.43a6.69,6.69,0,0,1,.26,1,46.92,46.92,0,0,0,2.3,7.19c.13,0,3.83-.42,10.21-1.31a23,23,0,0,1,2.3-.26,6.25,6.25,0,0,1,.59,1.05,30.86,30.86,0,0,0,4.42,6.4l1.28,1.47-1.56,3.13c-.86,1.73-2.12,4.27-2.78,5.65-1.16,2.42-1.2,2.52-1,2.71a46.33,46.33,0,0,0,4.24,3.32,39.12,39.12,0,0,0,3.85,2.35,41.58,41.58,0,0,0,4,2.05s1.7-2.24,3.73-4.93,3.76-5,3.84-5.05.4-.07,1.78.36a26.45,26.45,0,0,0,8.05,1.39l1.73.05.4,1.29c1,3.1,3.53,10.44,3.73,10.67a32.66,32.66,0,0,0,5.51-.78,53.28,53.28,0,0,0,8.2-2.27c.2-.08.38-.2.38-.28,0-.29-.65-5.79-1.07-8.82-.23-1.73-.43-3.23-.44-3.35s.5-.51,2.09-1.42a27.29,27.29,0,0,0,5.6-3.94l1.57-1.38.34.17c.67.32,7,3.43,8.92,4.41l2,1,.36-.38c.48-.53,2.24-2.91,3.12-4.21a52.21,52.21,0,0,0,4.15-7.52c.06-.22-.2-.47-2.52-2.27-1.42-1.11-3.62-2.79-4.9-3.75a18.44,18.44,0,0,1-2.3-1.9,8.77,8.77,0,0,1,.31-1.13c.17-.53.39-1.35.5-1.84s.31-1.41.46-2.06a40.52,40.52,0,0,0,.66-5.55l.05-1.07,5.84-2.05,5.83-2-.05-.57A65,65,0,0,0,451,93c-.38-1.21-1.38-4-1.47-4.06s-5.11.61-8.87,1.16l-3.6.51a2,2,0,0,1-.4-.66A38.41,38.41,0,0,0,431,82.13l-.84-.9,1.34-2.67c.74-1.46,2-4,2.8-5.58l1.45-2.9-.51-.48a30.85,30.85,0,0,0-3.81-2.9l-2.31-1.45c-.61-.39-1.5-.9-1.95-1.13l-1.29-.67a25.66,25.66,0,0,0-2.46-1.07c-.06,0-5.14,6.56-6.79,8.79-.49.64-.9,1.19-.91,1.21a12.79,12.79,0,0,1-1.48-.42,38.86,38.86,0,0,0-8.92-1.46l-1.39,0-1-3.19c-.93-2.89-1.84-5.61-2.63-7.81C400,58.82,399.93,58.63,399.75,58.63Zm8.88,31.11a19.12,19.12,0,0,1,4.83,2.13,17.55,17.55,0,0,1,8.28,13,19.55,19.55,0,0,1-.16,5.63,18.7,18.7,0,0,1-8.32,11.72,18.79,18.79,0,0,1-12.57,2.29,17.6,17.6,0,0,1-14.4-15.35,19.64,19.64,0,0,1,.11-5.54,19.8,19.8,0,0,1,6.19-10.47,18.14,18.14,0,0,1,16-3.45Z" transform="translate(-6.81 -8.73)"/><path class="cls-3" d="M401,92a14.47,14.47,0,0,0-9.95,6.8,15,15,0,0,0-2.29,11,15.55,15.55,0,0,0,4.07,7.87,15.2,15.2,0,0,0,16.24,3.65,14.53,14.53,0,0,0,7.08-5.34,7.63,7.63,0,0,1,.79-1,16.58,16.58,0,0,0,1.44-2.9,12.7,12.7,0,0,0,.74-4.2,13.55,13.55,0,0,0-.54-4.46,14.12,14.12,0,0,0-7.28-9.74,15,15,0,0,0-5.8-1.92A13.9,13.9,0,0,0,401,92Zm7.8,4.76A12.21,12.21,0,0,1,414.6,103a11.41,11.41,0,0,1-.64,9.26A10.91,10.91,0,0,1,407,118a11,11,0,0,1-11.55-3.19,10.67,10.67,0,0,1-2.13-3.24,8.71,8.71,0,0,1-.88-4.84,8.6,8.6,0,0,1,1.07-4.62,11.28,11.28,0,0,1,7.92-6.2A10.19,10.19,0,0,1,408.81,96.75Z" transform="translate(-6.81 -8.73)"/><text class="cls-4" transform="matrix(0, -1.03, 1, 0, 58.41, 187.98)">DESIGN CRÉATIF</text><text class="cls-5" transform="translate(24.69 189.64) rotate(-90)">GESTION DU TEMPS</text><text class="cls-6" transform="translate(29.85 41.65)">PRISE DE DÉCISIONS</text><text class="cls-7" transform="translate(65.92 101.1)">GESTION DE PROJETS</text><text class="cls-8" transform="translate(66.17 122.47)">TRAVAIL EN ÉQUIPE</text><text class="cls-6" transform="translate(67 61.88)">COLLABORATION</text><text class="cls-9" transform="matrix(0, -0.89, 1, 0, 40, 187.98)">CAPACITE D’ADAPTATION</text><text class="cls-10" transform="translate(62.47 149.07)">FORCE DE PROPOSITION</text><text class="cls-11" transform="translate(67.97 76.23)">AGILITÉ ORGANISATIONNEL</text></svg>